%TF.GenerationSoftware,KiCad,Pcbnew,5.1.8*%
%TF.CreationDate,2021-02-28T21:38:59-05:00*%
%TF.ProjectId,ECG,4543472e-6b69-4636-9164-5f7063625858,rev?*%
%TF.SameCoordinates,Original*%
%TF.FileFunction,Legend,Bot*%
%TF.FilePolarity,Positive*%
%FSLAX46Y46*%
G04 Gerber Fmt 4.6, Leading zero omitted, Abs format (unit mm)*
G04 Created by KiCad (PCBNEW 5.1.8) date 2021-02-28 21:38:59*
%MOMM*%
%LPD*%
G01*
G04 APERTURE LIST*
%ADD10C,0.150000*%
%TA.AperFunction,Profile*%
%ADD11C,0.100000*%
%TD*%
%ADD12C,0.120000*%
G04 APERTURE END LIST*
D10*
X163703000Y-119483142D02*
X163655380Y-119530761D01*
X163703000Y-119578380D01*
X163750619Y-119530761D01*
X163703000Y-119483142D01*
X163703000Y-119578380D01*
X178744619Y-105575952D02*
X179744619Y-105575952D01*
X179268428Y-105575952D02*
X179268428Y-105004523D01*
X178744619Y-105004523D02*
X179744619Y-105004523D01*
X178792238Y-104147380D02*
X178744619Y-104242619D01*
X178744619Y-104433095D01*
X178792238Y-104528333D01*
X178887476Y-104575952D01*
X179268428Y-104575952D01*
X179363666Y-104528333D01*
X179411285Y-104433095D01*
X179411285Y-104242619D01*
X179363666Y-104147380D01*
X179268428Y-104099761D01*
X179173190Y-104099761D01*
X179077952Y-104575952D01*
X178744619Y-103242619D02*
X179268428Y-103242619D01*
X179363666Y-103290238D01*
X179411285Y-103385476D01*
X179411285Y-103575952D01*
X179363666Y-103671190D01*
X178792238Y-103242619D02*
X178744619Y-103337857D01*
X178744619Y-103575952D01*
X178792238Y-103671190D01*
X178887476Y-103718809D01*
X178982714Y-103718809D01*
X179077952Y-103671190D01*
X179125571Y-103575952D01*
X179125571Y-103337857D01*
X179173190Y-103242619D01*
X178744619Y-102623571D02*
X178792238Y-102718809D01*
X178887476Y-102766428D01*
X179744619Y-102766428D01*
X179411285Y-102385476D02*
X179411285Y-102004523D01*
X179744619Y-102242619D02*
X178887476Y-102242619D01*
X178792238Y-102195000D01*
X178744619Y-102099761D01*
X178744619Y-102004523D01*
X178744619Y-101671190D02*
X179744619Y-101671190D01*
X178744619Y-101242619D02*
X179268428Y-101242619D01*
X179363666Y-101290238D01*
X179411285Y-101385476D01*
X179411285Y-101528333D01*
X179363666Y-101623571D01*
X179316047Y-101671190D01*
X178744619Y-100766428D02*
X179744619Y-100766428D01*
X179268428Y-100766428D02*
X179268428Y-100195000D01*
X178744619Y-100195000D02*
X179744619Y-100195000D01*
X179411285Y-99290238D02*
X178744619Y-99290238D01*
X179411285Y-99718809D02*
X178887476Y-99718809D01*
X178792238Y-99671190D01*
X178744619Y-99575952D01*
X178744619Y-99433095D01*
X178792238Y-99337857D01*
X178839857Y-99290238D01*
X178744619Y-98814047D02*
X179744619Y-98814047D01*
X179363666Y-98814047D02*
X179411285Y-98718809D01*
X179411285Y-98528333D01*
X179363666Y-98433095D01*
X179316047Y-98385476D01*
X179220809Y-98337857D01*
X178935095Y-98337857D01*
X178839857Y-98385476D01*
X178792238Y-98433095D01*
X178744619Y-98528333D01*
X178744619Y-98718809D01*
X178792238Y-98814047D01*
X178744619Y-96623571D02*
X178744619Y-97195000D01*
X178744619Y-96909285D02*
X179744619Y-96909285D01*
X179601761Y-97004523D01*
X179506523Y-97099761D01*
X179458904Y-97195000D01*
X178839857Y-96195000D02*
X178792238Y-96147380D01*
X178744619Y-96195000D01*
X178792238Y-96242619D01*
X178839857Y-96195000D01*
X178744619Y-96195000D01*
X179744619Y-95528333D02*
X179744619Y-95433095D01*
X179697000Y-95337857D01*
X179649380Y-95290238D01*
X179554142Y-95242619D01*
X179363666Y-95195000D01*
X179125571Y-95195000D01*
X178935095Y-95242619D01*
X178839857Y-95290238D01*
X178792238Y-95337857D01*
X178744619Y-95433095D01*
X178744619Y-95528333D01*
X178792238Y-95623571D01*
X178839857Y-95671190D01*
X178935095Y-95718809D01*
X179125571Y-95766428D01*
X179363666Y-95766428D01*
X179554142Y-95718809D01*
X179649380Y-95671190D01*
X179697000Y-95623571D01*
X179744619Y-95528333D01*
X178839857Y-94766428D02*
X178792238Y-94718809D01*
X178744619Y-94766428D01*
X178792238Y-94814047D01*
X178839857Y-94766428D01*
X178744619Y-94766428D01*
X178744619Y-93766428D02*
X178744619Y-94337857D01*
X178744619Y-94052142D02*
X179744619Y-94052142D01*
X179601761Y-94147380D01*
X179506523Y-94242619D01*
X179458904Y-94337857D01*
D11*
X177794600Y-111882900D02*
X178154600Y-111385100D01*
X178154600Y-111385100D02*
X178498200Y-110876200D01*
X178498200Y-110876200D02*
X178825400Y-110356700D01*
X178825400Y-110356700D02*
X179136100Y-109827200D01*
X179136100Y-109827200D02*
X179430000Y-109288000D01*
X179430000Y-109288000D02*
X179707100Y-108739800D01*
X179707100Y-108739800D02*
X179967300Y-108182900D01*
X179967300Y-108182900D02*
X180210400Y-107617900D01*
X126111700Y-112369300D02*
X126503990Y-112843500D01*
X126503990Y-112843500D02*
X126912260Y-113305200D01*
X126912260Y-113305200D02*
X151765000Y-140490000D01*
X151765000Y-140490000D02*
X176617900Y-113305000D01*
X176617900Y-113305000D02*
X177026200Y-112843300D01*
X177026200Y-112843300D02*
X177418400Y-112369100D01*
X177418400Y-112369100D02*
X177794600Y-111882900D01*
X180210400Y-107617900D02*
X180436400Y-107045200D01*
X180436400Y-107045200D02*
X180645100Y-106465400D01*
X180645100Y-106465400D02*
X180836400Y-105878900D01*
X180836400Y-105878900D02*
X181010100Y-105286200D01*
X181010100Y-105286200D02*
X181166200Y-104687800D01*
X181166200Y-104687800D02*
X181304500Y-104084200D01*
X181304500Y-104084200D02*
X181425000Y-103475900D01*
X181425000Y-103475900D02*
X181527400Y-102863400D01*
X181684400Y-97869400D02*
X181619400Y-97240700D01*
X181619400Y-97240700D02*
X181535200Y-96612700D01*
X181535200Y-96612700D02*
X181431700Y-95985900D01*
X181431700Y-95985900D02*
X181308700Y-95360700D01*
X181308700Y-95360700D02*
X181166200Y-94737600D01*
X181166200Y-94737600D02*
X181004800Y-94120000D01*
X181004800Y-94120000D02*
X180825500Y-93511300D01*
X180825500Y-93511300D02*
X180628600Y-92911800D01*
X181527400Y-102863400D02*
X181611700Y-102247100D01*
X181611700Y-102247100D02*
X181677800Y-101627600D01*
X181677800Y-101627600D02*
X181725500Y-101005300D01*
X181725500Y-101005300D02*
X181754700Y-100380700D01*
X181754700Y-100380700D02*
X181765400Y-99754300D01*
X181765400Y-99754300D02*
X181757300Y-99126700D01*
X181757300Y-99126700D02*
X181730300Y-98498200D01*
X181730300Y-98498200D02*
X181684400Y-97869400D01*
X180628600Y-92911800D02*
X180414500Y-92321900D01*
X180414500Y-92321900D02*
X180183400Y-91741900D01*
X180183400Y-91741900D02*
X179935700Y-91172200D01*
X179935700Y-91172200D02*
X179671800Y-90613200D01*
X179671800Y-90613200D02*
X179391900Y-90065160D01*
X122363821Y-94737500D02*
X122221297Y-95360600D01*
X122221297Y-95360600D02*
X122098333Y-95985900D01*
X122098333Y-95985900D02*
X121994812Y-96612700D01*
X121994812Y-96612700D02*
X121910612Y-97240700D01*
X121910612Y-97240700D02*
X121845615Y-97869400D01*
X121845615Y-97869400D02*
X121799701Y-98498200D01*
X121799701Y-98498200D02*
X121772750Y-99126700D01*
X121772750Y-99126700D02*
X121764643Y-99754400D01*
X121764643Y-99754400D02*
X121775260Y-100380800D01*
X121775260Y-100380800D02*
X121804482Y-101005400D01*
X121804482Y-101005400D02*
X121852189Y-101627700D01*
X121852189Y-101627700D02*
X121918261Y-102247200D01*
X121918261Y-102247200D02*
X122002579Y-102863500D01*
X122002579Y-102863500D02*
X122105023Y-103476000D01*
X122105023Y-103476000D02*
X122225473Y-104084300D01*
X122225473Y-104084300D02*
X122363811Y-104687900D01*
X122363811Y-104687900D02*
X122519916Y-105286300D01*
X122519916Y-105286300D02*
X122693668Y-105879000D01*
X122693668Y-105879000D02*
X122884950Y-106465500D01*
X122884950Y-106465500D02*
X123093640Y-107045400D01*
X123093640Y-107045400D02*
X123319620Y-107618000D01*
X123319620Y-107618000D02*
X123562770Y-108183100D01*
X123562770Y-108183100D02*
X123822960Y-108739900D01*
X123822960Y-108739900D02*
X124100090Y-109288200D01*
X124100090Y-109288200D02*
X124394030Y-109827400D01*
X124394030Y-109827400D02*
X124704660Y-110356900D01*
X124704660Y-110356900D02*
X125031860Y-110876400D01*
X125031860Y-110876400D02*
X125375520Y-111385200D01*
X125375520Y-111385200D02*
X125735500Y-111883100D01*
X125735500Y-111883100D02*
X126111700Y-112369300D01*
X179391900Y-90065160D02*
X179096400Y-89528520D01*
X179096400Y-89528520D02*
X178785600Y-89003590D01*
X178785600Y-89003590D02*
X178459800Y-88490760D01*
X178459800Y-88490760D02*
X178119400Y-87990360D01*
X178119400Y-87990360D02*
X177764600Y-87502760D01*
X177764600Y-87502760D02*
X177395900Y-87028310D01*
X177395900Y-87028310D02*
X177013600Y-86567380D01*
X177013600Y-86567380D02*
X176617900Y-86120310D01*
X176617900Y-86120310D02*
X176209100Y-85687470D01*
X176209100Y-85687470D02*
X175787700Y-85269220D01*
X175787700Y-85269220D02*
X175354000Y-84865910D01*
X175354000Y-84865910D02*
X174908200Y-84477900D01*
X174908200Y-84477900D02*
X174450800Y-84105540D01*
X174450800Y-84105540D02*
X173981900Y-83749200D01*
X173981900Y-83749200D02*
X173502000Y-83409230D01*
X173502000Y-83409230D02*
X173011400Y-83085990D01*
X173011400Y-83085990D02*
X172510400Y-82779830D01*
X172510400Y-82779830D02*
X171999300Y-82491120D01*
X171999300Y-82491120D02*
X171478500Y-82220210D01*
X171478500Y-82220210D02*
X170948300Y-81967450D01*
X170948300Y-81967450D02*
X170409000Y-81733220D01*
X170409000Y-81733220D02*
X169860900Y-81517850D01*
X169860900Y-81517850D02*
X169304400Y-81321716D01*
X169304400Y-81321716D02*
X168739800Y-81145168D01*
X168739800Y-81145168D02*
X168170200Y-80989277D01*
X168170200Y-80989277D02*
X167598600Y-80854781D01*
X167598600Y-80854781D02*
X167025500Y-80741550D01*
X167025500Y-80741550D02*
X166451400Y-80649454D01*
X166451400Y-80649454D02*
X165876700Y-80578361D01*
X165876700Y-80578361D02*
X165301800Y-80528141D01*
X165301800Y-80528141D02*
X164727200Y-80498664D01*
X164727200Y-80498664D02*
X164153400Y-80489797D01*
X164153400Y-80489797D02*
X163580800Y-80501411D01*
X163580800Y-80501411D02*
X163009800Y-80533374D01*
X163009800Y-80533374D02*
X162440900Y-80585555D01*
X162440900Y-80585555D02*
X161874500Y-80657825D01*
X161874500Y-80657825D02*
X161311100Y-80750052D01*
X161311100Y-80750052D02*
X160751100Y-80862106D01*
X160751100Y-80862106D02*
X160195000Y-80993854D01*
X160195000Y-80993854D02*
X159643200Y-81145168D01*
X159643200Y-81145168D02*
X159096100Y-81315915D01*
X159096100Y-81315915D02*
X158554300Y-81505970D01*
X158554300Y-81505970D02*
X158018100Y-81715190D01*
X158018100Y-81715190D02*
X157488000Y-81943450D01*
X157488000Y-81943450D02*
X156964500Y-82190630D01*
X156964500Y-82190630D02*
X156447900Y-82456580D01*
X156447900Y-82456580D02*
X155938800Y-82741190D01*
X155938800Y-82741190D02*
X155437600Y-83044310D01*
X155437600Y-83044310D02*
X154944700Y-83365820D01*
X154944700Y-83365820D02*
X154460600Y-83705590D01*
X154460600Y-83705590D02*
X153985700Y-84063480D01*
X153985700Y-84063480D02*
X153520400Y-84439360D01*
X153520400Y-84439360D02*
X153065300Y-84833120D01*
X153065300Y-84833120D02*
X152620800Y-85244600D01*
X152620800Y-85244600D02*
X152187200Y-85673690D01*
X152187200Y-85673690D02*
X151765200Y-86120250D01*
X151765200Y-86120250D02*
X151343100Y-85673670D01*
X151343100Y-85673670D02*
X150909500Y-85244570D01*
X150909500Y-85244570D02*
X150465000Y-84833070D01*
X150465000Y-84833070D02*
X150009900Y-84439310D01*
X150009900Y-84439310D02*
X149544700Y-84063410D01*
X149544700Y-84063410D02*
X149069800Y-83705500D01*
X149069800Y-83705500D02*
X148585600Y-83365730D01*
X148585600Y-83365730D02*
X148092800Y-83044200D01*
X148092800Y-83044200D02*
X147591500Y-82741070D01*
X147591500Y-82741070D02*
X147082400Y-82456460D01*
X147082400Y-82456460D02*
X146565900Y-82190490D01*
X146565900Y-82190490D02*
X146042300Y-81943310D01*
X146042300Y-81943310D02*
X145512200Y-81715040D01*
X145512200Y-81715040D02*
X144976000Y-81505810D01*
X144976000Y-81505810D02*
X144434200Y-81315753D01*
X144434200Y-81315753D02*
X143887100Y-81144999D01*
X143887100Y-81144999D02*
X143335300Y-80993681D01*
X143335300Y-80993681D02*
X142779200Y-80861928D01*
X142779200Y-80861928D02*
X142219200Y-80749871D01*
X142219200Y-80749871D02*
X141655800Y-80657641D01*
X141655800Y-80657641D02*
X141089400Y-80585370D01*
X141089400Y-80585370D02*
X140520400Y-80533187D01*
X140520400Y-80533187D02*
X139949400Y-80501223D01*
X139949400Y-80501223D02*
X139376800Y-80489610D01*
X139376800Y-80489610D02*
X138803000Y-80498477D01*
X138803000Y-80498477D02*
X138228400Y-80527957D01*
X138228400Y-80527957D02*
X137653500Y-80578180D01*
X137653500Y-80578180D02*
X137078800Y-80649276D01*
X137078800Y-80649276D02*
X136504600Y-80741376D01*
X136504600Y-80741376D02*
X135931600Y-80854612D01*
X135931600Y-80854612D02*
X135359900Y-80989114D01*
X135359900Y-80989114D02*
X134790300Y-81145012D01*
X134790300Y-81145012D02*
X134225700Y-81321564D01*
X134225700Y-81321564D02*
X133669200Y-81517700D01*
X133669200Y-81517700D02*
X133121100Y-81733070D01*
X133121100Y-81733070D02*
X132581800Y-81967320D01*
X132581800Y-81967320D02*
X132051600Y-82220070D01*
X132051600Y-82220070D02*
X131530770Y-82490990D01*
X131530770Y-82490990D02*
X131019700Y-82779710D01*
X131019700Y-82779710D02*
X130518690Y-83085870D01*
X130518690Y-83085870D02*
X130028080Y-83409110D01*
X130028080Y-83409110D02*
X129548180Y-83749090D01*
X129548180Y-83749090D02*
X129079340Y-84105430D01*
X129079340Y-84105430D02*
X128621860Y-84477790D01*
X128621860Y-84477790D02*
X128176090Y-84865810D01*
X128176090Y-84865810D02*
X127742340Y-85269120D01*
X127742340Y-85269120D02*
X127320940Y-85687380D01*
X127320940Y-85687380D02*
X126912230Y-86120220D01*
X126912230Y-86120220D02*
X126516520Y-86567290D01*
X126516520Y-86567290D02*
X126134140Y-87028230D01*
X126134140Y-87028230D02*
X125765430Y-87502680D01*
X125765430Y-87502680D02*
X125410700Y-87990280D01*
X125410700Y-87990280D02*
X125070280Y-88490680D01*
X125070280Y-88490680D02*
X124744500Y-89003520D01*
X124744500Y-89003520D02*
X124433690Y-89528450D01*
X124433690Y-89528450D02*
X124138180Y-90065100D01*
X124138180Y-90065100D02*
X123858280Y-90613100D01*
X123858280Y-90613100D02*
X123594330Y-91172100D01*
X123594330Y-91172100D02*
X123346660Y-91741800D01*
X123346660Y-91741800D02*
X123115580Y-92321800D01*
X123115580Y-92321800D02*
X122901430Y-92911700D01*
X122901430Y-92911700D02*
X122704541Y-93511200D01*
X122704541Y-93511200D02*
X122525227Y-94119900D01*
X122525227Y-94119900D02*
X122363821Y-94737500D01*
X122363821Y-94737500D02*
X122363821Y-94737500D01*
X122363821Y-94737500D02*
X122363821Y-94737500D01*
D12*
%TO.C,C27*%
X166978000Y-91432748D02*
X166978000Y-91955252D01*
X165508000Y-91432748D02*
X165508000Y-91955252D01*
%TO.C,C26*%
X164946000Y-91432748D02*
X164946000Y-91955252D01*
X163476000Y-91432748D02*
X163476000Y-91955252D01*
%TO.C,BT1*%
X138915000Y-109905000D02*
X138915000Y-106605000D01*
X147815000Y-115755000D02*
X138915000Y-109905000D01*
X147815000Y-116555000D02*
X147815000Y-115755000D01*
X147815000Y-116555000D02*
X155715000Y-116555000D01*
X155715000Y-116555000D02*
X155715000Y-115755000D01*
X155715000Y-115755000D02*
X164615000Y-109905000D01*
X164615000Y-109905000D02*
X164615000Y-106605000D01*
X138915000Y-100405000D02*
X138915000Y-96205000D01*
X164615000Y-100405000D02*
X164615000Y-96205000D01*
X161243249Y-93833249D02*
G75*
G02*
X161915000Y-93555000I671751J-671751D01*
G01*
X142286751Y-93833249D02*
G75*
G03*
X141615000Y-93555000I-671751J-671751D01*
G01*
X138915000Y-96255000D02*
G75*
G02*
X141615000Y-93555000I2700000J0D01*
G01*
X164615000Y-96255000D02*
G75*
G03*
X161915000Y-93555000I-2700000J0D01*
G01*
%TO.C,J5*%
X164605000Y-119186000D02*
X168135000Y-119186000D01*
X164605000Y-112716000D02*
X168135000Y-112716000D01*
X163280000Y-119121000D02*
X164605000Y-119121000D01*
X164605000Y-119186000D02*
X164605000Y-119121000D01*
X168135000Y-119186000D02*
X168135000Y-119121000D01*
X164605000Y-112781000D02*
X164605000Y-112716000D01*
X168135000Y-112781000D02*
X168135000Y-112716000D01*
%TO.C,TP13*%
X161626400Y-91287600D02*
G75*
G03*
X161626400Y-91287600I-1200000J0D01*
G01*
%TO.C,TP12*%
X171634000Y-87884000D02*
G75*
G03*
X171634000Y-87884000I-1200000J0D01*
G01*
%TO.C,TP21*%
X162363000Y-118491000D02*
G75*
G03*
X162363000Y-118491000I-1200000J0D01*
G01*
%TO.C,TP20*%
X150425000Y-122936000D02*
G75*
G03*
X150425000Y-122936000I-1200000J0D01*
G01*
%TO.C,TP19*%
X130250000Y-106000000D02*
G75*
G03*
X130250000Y-106000000I-2250000J0D01*
G01*
%TO.C,TP17*%
X146488000Y-89154000D02*
G75*
G03*
X146488000Y-89154000I-1200000J0D01*
G01*
%TO.C,TP16*%
X136709000Y-108839000D02*
G75*
G03*
X136709000Y-108839000I-1200000J0D01*
G01*
%TO.C,TP15*%
X160712000Y-113792000D02*
G75*
G03*
X160712000Y-113792000I-1200000J0D01*
G01*
%TO.C,TP11*%
X141200000Y-122000000D02*
G75*
G03*
X141200000Y-122000000I-1200000J0D01*
G01*
%TO.C,TP10*%
X161220000Y-126365000D02*
G75*
G03*
X161220000Y-126365000I-1200000J0D01*
G01*
%TO.C,TP9*%
X135947000Y-88011000D02*
G75*
G03*
X135947000Y-88011000I-1200000J0D01*
G01*
%TO.C,TP8*%
X152965000Y-126238000D02*
G75*
G03*
X152965000Y-126238000I-1200000J0D01*
G01*
%TO.C,TP7*%
X138995000Y-87122000D02*
G75*
G03*
X138995000Y-87122000I-1200000J0D01*
G01*
%TO.C,TP6*%
X152965000Y-88519000D02*
G75*
G03*
X152965000Y-88519000I-1200000J0D01*
G01*
%TO.C,TP5*%
X149790000Y-90297000D02*
G75*
G03*
X149790000Y-90297000I-1200000J0D01*
G01*
%TO.C,TP4*%
X143347000Y-89662000D02*
G75*
G03*
X143347000Y-89662000I-2250000J0D01*
G01*
%TO.C,TP3*%
X133788000Y-91186000D02*
G75*
G03*
X133788000Y-91186000I-1200000J0D01*
G01*
%TO.C,TP2*%
X136235000Y-94996000D02*
G75*
G03*
X136235000Y-94996000I-2250000J0D01*
G01*
%TO.C,TP1*%
X128200000Y-99000000D02*
G75*
G03*
X128200000Y-99000000I-1200000J0D01*
G01*
%TD*%
%TO.C,C27*%
D10*
X168632142Y-91432142D02*
X168679761Y-91384523D01*
X168727380Y-91241666D01*
X168727380Y-91146428D01*
X168679761Y-91003571D01*
X168584523Y-90908333D01*
X168489285Y-90860714D01*
X168298809Y-90813095D01*
X168155952Y-90813095D01*
X167965476Y-90860714D01*
X167870238Y-90908333D01*
X167775000Y-91003571D01*
X167727380Y-91146428D01*
X167727380Y-91241666D01*
X167775000Y-91384523D01*
X167822619Y-91432142D01*
X167822619Y-91813095D02*
X167775000Y-91860714D01*
X167727380Y-91955952D01*
X167727380Y-92194047D01*
X167775000Y-92289285D01*
X167822619Y-92336904D01*
X167917857Y-92384523D01*
X168013095Y-92384523D01*
X168155952Y-92336904D01*
X168727380Y-91765476D01*
X168727380Y-92384523D01*
X167727380Y-92717857D02*
X167727380Y-93384523D01*
X168727380Y-92955952D01*
%TO.C,C26*%
X162790142Y-90035142D02*
X162837761Y-89987523D01*
X162885380Y-89844666D01*
X162885380Y-89749428D01*
X162837761Y-89606571D01*
X162742523Y-89511333D01*
X162647285Y-89463714D01*
X162456809Y-89416095D01*
X162313952Y-89416095D01*
X162123476Y-89463714D01*
X162028238Y-89511333D01*
X161933000Y-89606571D01*
X161885380Y-89749428D01*
X161885380Y-89844666D01*
X161933000Y-89987523D01*
X161980619Y-90035142D01*
X161980619Y-90416095D02*
X161933000Y-90463714D01*
X161885380Y-90558952D01*
X161885380Y-90797047D01*
X161933000Y-90892285D01*
X161980619Y-90939904D01*
X162075857Y-90987523D01*
X162171095Y-90987523D01*
X162313952Y-90939904D01*
X162885380Y-90368476D01*
X162885380Y-90987523D01*
X161885380Y-91844666D02*
X161885380Y-91654190D01*
X161933000Y-91558952D01*
X161980619Y-91511333D01*
X162123476Y-91416095D01*
X162313952Y-91368476D01*
X162694904Y-91368476D01*
X162790142Y-91416095D01*
X162837761Y-91463714D01*
X162885380Y-91558952D01*
X162885380Y-91749428D01*
X162837761Y-91844666D01*
X162790142Y-91892285D01*
X162694904Y-91939904D01*
X162456809Y-91939904D01*
X162361571Y-91892285D01*
X162313952Y-91844666D01*
X162266333Y-91749428D01*
X162266333Y-91558952D01*
X162313952Y-91463714D01*
X162361571Y-91416095D01*
X162456809Y-91368476D01*
%TO.C,BT1*%
X152677714Y-117403571D02*
X152534857Y-117451190D01*
X152487238Y-117498809D01*
X152439619Y-117594047D01*
X152439619Y-117736904D01*
X152487238Y-117832142D01*
X152534857Y-117879761D01*
X152630095Y-117927380D01*
X153011047Y-117927380D01*
X153011047Y-116927380D01*
X152677714Y-116927380D01*
X152582476Y-116975000D01*
X152534857Y-117022619D01*
X152487238Y-117117857D01*
X152487238Y-117213095D01*
X152534857Y-117308333D01*
X152582476Y-117355952D01*
X152677714Y-117403571D01*
X153011047Y-117403571D01*
X152153904Y-116927380D02*
X151582476Y-116927380D01*
X151868190Y-117927380D02*
X151868190Y-116927380D01*
X150725333Y-117927380D02*
X151296761Y-117927380D01*
X151011047Y-117927380D02*
X151011047Y-116927380D01*
X151106285Y-117070238D01*
X151201523Y-117165476D01*
X151296761Y-117213095D01*
%TO.C,J5*%
X166703333Y-119638380D02*
X166703333Y-120352666D01*
X166750952Y-120495523D01*
X166846190Y-120590761D01*
X166989047Y-120638380D01*
X167084285Y-120638380D01*
X165750952Y-119638380D02*
X166227142Y-119638380D01*
X166274761Y-120114571D01*
X166227142Y-120066952D01*
X166131904Y-120019333D01*
X165893809Y-120019333D01*
X165798571Y-120066952D01*
X165750952Y-120114571D01*
X165703333Y-120209809D01*
X165703333Y-120447904D01*
X165750952Y-120543142D01*
X165798571Y-120590761D01*
X165893809Y-120638380D01*
X166131904Y-120638380D01*
X166227142Y-120590761D01*
X166274761Y-120543142D01*
%TO.C,TP13*%
X162164495Y-92737980D02*
X161593066Y-92737980D01*
X161878780Y-93737980D02*
X161878780Y-92737980D01*
X161259733Y-93737980D02*
X161259733Y-92737980D01*
X160878780Y-92737980D01*
X160783542Y-92785600D01*
X160735923Y-92833219D01*
X160688304Y-92928457D01*
X160688304Y-93071314D01*
X160735923Y-93166552D01*
X160783542Y-93214171D01*
X160878780Y-93261790D01*
X161259733Y-93261790D01*
X159735923Y-93737980D02*
X160307352Y-93737980D01*
X160021638Y-93737980D02*
X160021638Y-92737980D01*
X160116876Y-92880838D01*
X160212114Y-92976076D01*
X160307352Y-93023695D01*
X159402590Y-92737980D02*
X158783542Y-92737980D01*
X159116876Y-93118933D01*
X158974019Y-93118933D01*
X158878780Y-93166552D01*
X158831161Y-93214171D01*
X158783542Y-93309409D01*
X158783542Y-93547504D01*
X158831161Y-93642742D01*
X158878780Y-93690361D01*
X158974019Y-93737980D01*
X159259733Y-93737980D01*
X159354971Y-93690361D01*
X159402590Y-93642742D01*
%TO.C,TP12*%
X172172095Y-89334380D02*
X171600666Y-89334380D01*
X171886380Y-90334380D02*
X171886380Y-89334380D01*
X171267333Y-90334380D02*
X171267333Y-89334380D01*
X170886380Y-89334380D01*
X170791142Y-89382000D01*
X170743523Y-89429619D01*
X170695904Y-89524857D01*
X170695904Y-89667714D01*
X170743523Y-89762952D01*
X170791142Y-89810571D01*
X170886380Y-89858190D01*
X171267333Y-89858190D01*
X169743523Y-90334380D02*
X170314952Y-90334380D01*
X170029238Y-90334380D02*
X170029238Y-89334380D01*
X170124476Y-89477238D01*
X170219714Y-89572476D01*
X170314952Y-89620095D01*
X169362571Y-89429619D02*
X169314952Y-89382000D01*
X169219714Y-89334380D01*
X168981619Y-89334380D01*
X168886380Y-89382000D01*
X168838761Y-89429619D01*
X168791142Y-89524857D01*
X168791142Y-89620095D01*
X168838761Y-89762952D01*
X169410190Y-90334380D01*
X168791142Y-90334380D01*
%TO.C,TP21*%
X162901095Y-119941380D02*
X162329666Y-119941380D01*
X162615380Y-120941380D02*
X162615380Y-119941380D01*
X161996333Y-120941380D02*
X161996333Y-119941380D01*
X161615380Y-119941380D01*
X161520142Y-119989000D01*
X161472523Y-120036619D01*
X161424904Y-120131857D01*
X161424904Y-120274714D01*
X161472523Y-120369952D01*
X161520142Y-120417571D01*
X161615380Y-120465190D01*
X161996333Y-120465190D01*
X161043952Y-120036619D02*
X160996333Y-119989000D01*
X160901095Y-119941380D01*
X160663000Y-119941380D01*
X160567761Y-119989000D01*
X160520142Y-120036619D01*
X160472523Y-120131857D01*
X160472523Y-120227095D01*
X160520142Y-120369952D01*
X161091571Y-120941380D01*
X160472523Y-120941380D01*
X159520142Y-120941380D02*
X160091571Y-120941380D01*
X159805857Y-120941380D02*
X159805857Y-119941380D01*
X159901095Y-120084238D01*
X159996333Y-120179476D01*
X160091571Y-120227095D01*
%TO.C,TP20*%
X150963095Y-120356380D02*
X150391666Y-120356380D01*
X150677380Y-121356380D02*
X150677380Y-120356380D01*
X150058333Y-121356380D02*
X150058333Y-120356380D01*
X149677380Y-120356380D01*
X149582142Y-120404000D01*
X149534523Y-120451619D01*
X149486904Y-120546857D01*
X149486904Y-120689714D01*
X149534523Y-120784952D01*
X149582142Y-120832571D01*
X149677380Y-120880190D01*
X150058333Y-120880190D01*
X149105952Y-120451619D02*
X149058333Y-120404000D01*
X148963095Y-120356380D01*
X148725000Y-120356380D01*
X148629761Y-120404000D01*
X148582142Y-120451619D01*
X148534523Y-120546857D01*
X148534523Y-120642095D01*
X148582142Y-120784952D01*
X149153571Y-121356380D01*
X148534523Y-121356380D01*
X147915476Y-120356380D02*
X147820238Y-120356380D01*
X147725000Y-120404000D01*
X147677380Y-120451619D01*
X147629761Y-120546857D01*
X147582142Y-120737333D01*
X147582142Y-120975428D01*
X147629761Y-121165904D01*
X147677380Y-121261142D01*
X147725000Y-121308761D01*
X147820238Y-121356380D01*
X147915476Y-121356380D01*
X148010714Y-121308761D01*
X148058333Y-121261142D01*
X148105952Y-121165904D01*
X148153571Y-120975428D01*
X148153571Y-120737333D01*
X148105952Y-120546857D01*
X148058333Y-120451619D01*
X148010714Y-120404000D01*
X147915476Y-120356380D01*
%TO.C,TP19*%
X126833095Y-102703380D02*
X126261666Y-102703380D01*
X126547380Y-103703380D02*
X126547380Y-102703380D01*
X125928333Y-103703380D02*
X125928333Y-102703380D01*
X125547380Y-102703380D01*
X125452142Y-102751000D01*
X125404523Y-102798619D01*
X125356904Y-102893857D01*
X125356904Y-103036714D01*
X125404523Y-103131952D01*
X125452142Y-103179571D01*
X125547380Y-103227190D01*
X125928333Y-103227190D01*
X124404523Y-103703380D02*
X124975952Y-103703380D01*
X124690238Y-103703380D02*
X124690238Y-102703380D01*
X124785476Y-102846238D01*
X124880714Y-102941476D01*
X124975952Y-102989095D01*
X123928333Y-103703380D02*
X123737857Y-103703380D01*
X123642619Y-103655761D01*
X123595000Y-103608142D01*
X123499761Y-103465285D01*
X123452142Y-103274809D01*
X123452142Y-102893857D01*
X123499761Y-102798619D01*
X123547380Y-102751000D01*
X123642619Y-102703380D01*
X123833095Y-102703380D01*
X123928333Y-102751000D01*
X123975952Y-102798619D01*
X124023571Y-102893857D01*
X124023571Y-103131952D01*
X123975952Y-103227190D01*
X123928333Y-103274809D01*
X123833095Y-103322428D01*
X123642619Y-103322428D01*
X123547380Y-103274809D01*
X123499761Y-103227190D01*
X123452142Y-103131952D01*
%TO.C,TP17*%
X147026095Y-90604380D02*
X146454666Y-90604380D01*
X146740380Y-91604380D02*
X146740380Y-90604380D01*
X146121333Y-91604380D02*
X146121333Y-90604380D01*
X145740380Y-90604380D01*
X145645142Y-90652000D01*
X145597523Y-90699619D01*
X145549904Y-90794857D01*
X145549904Y-90937714D01*
X145597523Y-91032952D01*
X145645142Y-91080571D01*
X145740380Y-91128190D01*
X146121333Y-91128190D01*
X144597523Y-91604380D02*
X145168952Y-91604380D01*
X144883238Y-91604380D02*
X144883238Y-90604380D01*
X144978476Y-90747238D01*
X145073714Y-90842476D01*
X145168952Y-90890095D01*
X144264190Y-90604380D02*
X143597523Y-90604380D01*
X144026095Y-91604380D01*
%TO.C,TP16*%
X137247095Y-110289380D02*
X136675666Y-110289380D01*
X136961380Y-111289380D02*
X136961380Y-110289380D01*
X136342333Y-111289380D02*
X136342333Y-110289380D01*
X135961380Y-110289380D01*
X135866142Y-110337000D01*
X135818523Y-110384619D01*
X135770904Y-110479857D01*
X135770904Y-110622714D01*
X135818523Y-110717952D01*
X135866142Y-110765571D01*
X135961380Y-110813190D01*
X136342333Y-110813190D01*
X134818523Y-111289380D02*
X135389952Y-111289380D01*
X135104238Y-111289380D02*
X135104238Y-110289380D01*
X135199476Y-110432238D01*
X135294714Y-110527476D01*
X135389952Y-110575095D01*
X133961380Y-110289380D02*
X134151857Y-110289380D01*
X134247095Y-110337000D01*
X134294714Y-110384619D01*
X134389952Y-110527476D01*
X134437571Y-110717952D01*
X134437571Y-111098904D01*
X134389952Y-111194142D01*
X134342333Y-111241761D01*
X134247095Y-111289380D01*
X134056619Y-111289380D01*
X133961380Y-111241761D01*
X133913761Y-111194142D01*
X133866142Y-111098904D01*
X133866142Y-110860809D01*
X133913761Y-110765571D01*
X133961380Y-110717952D01*
X134056619Y-110670333D01*
X134247095Y-110670333D01*
X134342333Y-110717952D01*
X134389952Y-110765571D01*
X134437571Y-110860809D01*
%TO.C,TP15*%
X161250095Y-115242380D02*
X160678666Y-115242380D01*
X160964380Y-116242380D02*
X160964380Y-115242380D01*
X160345333Y-116242380D02*
X160345333Y-115242380D01*
X159964380Y-115242380D01*
X159869142Y-115290000D01*
X159821523Y-115337619D01*
X159773904Y-115432857D01*
X159773904Y-115575714D01*
X159821523Y-115670952D01*
X159869142Y-115718571D01*
X159964380Y-115766190D01*
X160345333Y-115766190D01*
X158821523Y-116242380D02*
X159392952Y-116242380D01*
X159107238Y-116242380D02*
X159107238Y-115242380D01*
X159202476Y-115385238D01*
X159297714Y-115480476D01*
X159392952Y-115528095D01*
X157916761Y-115242380D02*
X158392952Y-115242380D01*
X158440571Y-115718571D01*
X158392952Y-115670952D01*
X158297714Y-115623333D01*
X158059619Y-115623333D01*
X157964380Y-115670952D01*
X157916761Y-115718571D01*
X157869142Y-115813809D01*
X157869142Y-116051904D01*
X157916761Y-116147142D01*
X157964380Y-116194761D01*
X158059619Y-116242380D01*
X158297714Y-116242380D01*
X158392952Y-116194761D01*
X158440571Y-116147142D01*
%TO.C,TP11*%
X141738095Y-123450380D02*
X141166666Y-123450380D01*
X141452380Y-124450380D02*
X141452380Y-123450380D01*
X140833333Y-124450380D02*
X140833333Y-123450380D01*
X140452380Y-123450380D01*
X140357142Y-123498000D01*
X140309523Y-123545619D01*
X140261904Y-123640857D01*
X140261904Y-123783714D01*
X140309523Y-123878952D01*
X140357142Y-123926571D01*
X140452380Y-123974190D01*
X140833333Y-123974190D01*
X139309523Y-124450380D02*
X139880952Y-124450380D01*
X139595238Y-124450380D02*
X139595238Y-123450380D01*
X139690476Y-123593238D01*
X139785714Y-123688476D01*
X139880952Y-123736095D01*
X138357142Y-124450380D02*
X138928571Y-124450380D01*
X138642857Y-124450380D02*
X138642857Y-123450380D01*
X138738095Y-123593238D01*
X138833333Y-123688476D01*
X138928571Y-123736095D01*
%TO.C,TP10*%
X161758095Y-127815380D02*
X161186666Y-127815380D01*
X161472380Y-128815380D02*
X161472380Y-127815380D01*
X160853333Y-128815380D02*
X160853333Y-127815380D01*
X160472380Y-127815380D01*
X160377142Y-127863000D01*
X160329523Y-127910619D01*
X160281904Y-128005857D01*
X160281904Y-128148714D01*
X160329523Y-128243952D01*
X160377142Y-128291571D01*
X160472380Y-128339190D01*
X160853333Y-128339190D01*
X159329523Y-128815380D02*
X159900952Y-128815380D01*
X159615238Y-128815380D02*
X159615238Y-127815380D01*
X159710476Y-127958238D01*
X159805714Y-128053476D01*
X159900952Y-128101095D01*
X158710476Y-127815380D02*
X158615238Y-127815380D01*
X158520000Y-127863000D01*
X158472380Y-127910619D01*
X158424761Y-128005857D01*
X158377142Y-128196333D01*
X158377142Y-128434428D01*
X158424761Y-128624904D01*
X158472380Y-128720142D01*
X158520000Y-128767761D01*
X158615238Y-128815380D01*
X158710476Y-128815380D01*
X158805714Y-128767761D01*
X158853333Y-128720142D01*
X158900952Y-128624904D01*
X158948571Y-128434428D01*
X158948571Y-128196333D01*
X158900952Y-128005857D01*
X158853333Y-127910619D01*
X158805714Y-127863000D01*
X158710476Y-127815380D01*
%TO.C,TP9*%
X136389904Y-89495380D02*
X135818476Y-89495380D01*
X136104190Y-90495380D02*
X136104190Y-89495380D01*
X135485142Y-90495380D02*
X135485142Y-89495380D01*
X135104190Y-89495380D01*
X135008952Y-89543000D01*
X134961333Y-89590619D01*
X134913714Y-89685857D01*
X134913714Y-89828714D01*
X134961333Y-89923952D01*
X135008952Y-89971571D01*
X135104190Y-90019190D01*
X135485142Y-90019190D01*
X134437523Y-90495380D02*
X134247047Y-90495380D01*
X134151809Y-90447761D01*
X134104190Y-90400142D01*
X134008952Y-90257285D01*
X133961333Y-90066809D01*
X133961333Y-89685857D01*
X134008952Y-89590619D01*
X134056571Y-89543000D01*
X134151809Y-89495380D01*
X134342285Y-89495380D01*
X134437523Y-89543000D01*
X134485142Y-89590619D01*
X134532761Y-89685857D01*
X134532761Y-89923952D01*
X134485142Y-90019190D01*
X134437523Y-90066809D01*
X134342285Y-90114428D01*
X134151809Y-90114428D01*
X134056571Y-90066809D01*
X134008952Y-90019190D01*
X133961333Y-89923952D01*
%TO.C,TP8*%
X155947904Y-125690380D02*
X155376476Y-125690380D01*
X155662190Y-126690380D02*
X155662190Y-125690380D01*
X155043142Y-126690380D02*
X155043142Y-125690380D01*
X154662190Y-125690380D01*
X154566952Y-125738000D01*
X154519333Y-125785619D01*
X154471714Y-125880857D01*
X154471714Y-126023714D01*
X154519333Y-126118952D01*
X154566952Y-126166571D01*
X154662190Y-126214190D01*
X155043142Y-126214190D01*
X153900285Y-126118952D02*
X153995523Y-126071333D01*
X154043142Y-126023714D01*
X154090761Y-125928476D01*
X154090761Y-125880857D01*
X154043142Y-125785619D01*
X153995523Y-125738000D01*
X153900285Y-125690380D01*
X153709809Y-125690380D01*
X153614571Y-125738000D01*
X153566952Y-125785619D01*
X153519333Y-125880857D01*
X153519333Y-125928476D01*
X153566952Y-126023714D01*
X153614571Y-126071333D01*
X153709809Y-126118952D01*
X153900285Y-126118952D01*
X153995523Y-126166571D01*
X154043142Y-126214190D01*
X154090761Y-126309428D01*
X154090761Y-126499904D01*
X154043142Y-126595142D01*
X153995523Y-126642761D01*
X153900285Y-126690380D01*
X153709809Y-126690380D01*
X153614571Y-126642761D01*
X153566952Y-126595142D01*
X153519333Y-126499904D01*
X153519333Y-126309428D01*
X153566952Y-126214190D01*
X153614571Y-126166571D01*
X153709809Y-126118952D01*
%TO.C,TP7*%
X141469904Y-85685380D02*
X140898476Y-85685380D01*
X141184190Y-86685380D02*
X141184190Y-85685380D01*
X140565142Y-86685380D02*
X140565142Y-85685380D01*
X140184190Y-85685380D01*
X140088952Y-85733000D01*
X140041333Y-85780619D01*
X139993714Y-85875857D01*
X139993714Y-86018714D01*
X140041333Y-86113952D01*
X140088952Y-86161571D01*
X140184190Y-86209190D01*
X140565142Y-86209190D01*
X139660380Y-85685380D02*
X138993714Y-85685380D01*
X139422285Y-86685380D01*
%TO.C,TP6*%
X153026904Y-89969380D02*
X152455476Y-89969380D01*
X152741190Y-90969380D02*
X152741190Y-89969380D01*
X152122142Y-90969380D02*
X152122142Y-89969380D01*
X151741190Y-89969380D01*
X151645952Y-90017000D01*
X151598333Y-90064619D01*
X151550714Y-90159857D01*
X151550714Y-90302714D01*
X151598333Y-90397952D01*
X151645952Y-90445571D01*
X151741190Y-90493190D01*
X152122142Y-90493190D01*
X150693571Y-89969380D02*
X150884047Y-89969380D01*
X150979285Y-90017000D01*
X151026904Y-90064619D01*
X151122142Y-90207476D01*
X151169761Y-90397952D01*
X151169761Y-90778904D01*
X151122142Y-90874142D01*
X151074523Y-90921761D01*
X150979285Y-90969380D01*
X150788809Y-90969380D01*
X150693571Y-90921761D01*
X150645952Y-90874142D01*
X150598333Y-90778904D01*
X150598333Y-90540809D01*
X150645952Y-90445571D01*
X150693571Y-90397952D01*
X150788809Y-90350333D01*
X150979285Y-90350333D01*
X151074523Y-90397952D01*
X151122142Y-90445571D01*
X151169761Y-90540809D01*
%TO.C,TP5*%
X149851904Y-91747380D02*
X149280476Y-91747380D01*
X149566190Y-92747380D02*
X149566190Y-91747380D01*
X148947142Y-92747380D02*
X148947142Y-91747380D01*
X148566190Y-91747380D01*
X148470952Y-91795000D01*
X148423333Y-91842619D01*
X148375714Y-91937857D01*
X148375714Y-92080714D01*
X148423333Y-92175952D01*
X148470952Y-92223571D01*
X148566190Y-92271190D01*
X148947142Y-92271190D01*
X147470952Y-91747380D02*
X147947142Y-91747380D01*
X147994761Y-92223571D01*
X147947142Y-92175952D01*
X147851904Y-92128333D01*
X147613809Y-92128333D01*
X147518571Y-92175952D01*
X147470952Y-92223571D01*
X147423333Y-92318809D01*
X147423333Y-92556904D01*
X147470952Y-92652142D01*
X147518571Y-92699761D01*
X147613809Y-92747380D01*
X147851904Y-92747380D01*
X147947142Y-92699761D01*
X147994761Y-92652142D01*
%TO.C,TP4*%
X141469904Y-92289380D02*
X140898476Y-92289380D01*
X141184190Y-93289380D02*
X141184190Y-92289380D01*
X140565142Y-93289380D02*
X140565142Y-92289380D01*
X140184190Y-92289380D01*
X140088952Y-92337000D01*
X140041333Y-92384619D01*
X139993714Y-92479857D01*
X139993714Y-92622714D01*
X140041333Y-92717952D01*
X140088952Y-92765571D01*
X140184190Y-92813190D01*
X140565142Y-92813190D01*
X139136571Y-92622714D02*
X139136571Y-93289380D01*
X139374666Y-92241761D02*
X139612761Y-92956047D01*
X138993714Y-92956047D01*
%TO.C,TP3*%
X131690904Y-92543380D02*
X131119476Y-92543380D01*
X131405190Y-93543380D02*
X131405190Y-92543380D01*
X130786142Y-93543380D02*
X130786142Y-92543380D01*
X130405190Y-92543380D01*
X130309952Y-92591000D01*
X130262333Y-92638619D01*
X130214714Y-92733857D01*
X130214714Y-92876714D01*
X130262333Y-92971952D01*
X130309952Y-93019571D01*
X130405190Y-93067190D01*
X130786142Y-93067190D01*
X129881380Y-92543380D02*
X129262333Y-92543380D01*
X129595666Y-92924333D01*
X129452809Y-92924333D01*
X129357571Y-92971952D01*
X129309952Y-93019571D01*
X129262333Y-93114809D01*
X129262333Y-93352904D01*
X129309952Y-93448142D01*
X129357571Y-93495761D01*
X129452809Y-93543380D01*
X129738523Y-93543380D01*
X129833761Y-93495761D01*
X129881380Y-93448142D01*
%TO.C,TP2*%
X135246904Y-97750380D02*
X134675476Y-97750380D01*
X134961190Y-98750380D02*
X134961190Y-97750380D01*
X134342142Y-98750380D02*
X134342142Y-97750380D01*
X133961190Y-97750380D01*
X133865952Y-97798000D01*
X133818333Y-97845619D01*
X133770714Y-97940857D01*
X133770714Y-98083714D01*
X133818333Y-98178952D01*
X133865952Y-98226571D01*
X133961190Y-98274190D01*
X134342142Y-98274190D01*
X133389761Y-97845619D02*
X133342142Y-97798000D01*
X133246904Y-97750380D01*
X133008809Y-97750380D01*
X132913571Y-97798000D01*
X132865952Y-97845619D01*
X132818333Y-97940857D01*
X132818333Y-98036095D01*
X132865952Y-98178952D01*
X133437380Y-98750380D01*
X132818333Y-98750380D01*
%TO.C,TP1*%
X128261904Y-100450380D02*
X127690476Y-100450380D01*
X127976190Y-101450380D02*
X127976190Y-100450380D01*
X127357142Y-101450380D02*
X127357142Y-100450380D01*
X126976190Y-100450380D01*
X126880952Y-100498000D01*
X126833333Y-100545619D01*
X126785714Y-100640857D01*
X126785714Y-100783714D01*
X126833333Y-100878952D01*
X126880952Y-100926571D01*
X126976190Y-100974190D01*
X127357142Y-100974190D01*
X125833333Y-101450380D02*
X126404761Y-101450380D01*
X126119047Y-101450380D02*
X126119047Y-100450380D01*
X126214285Y-100593238D01*
X126309523Y-100688476D01*
X126404761Y-100736095D01*
%TD*%
M02*
