%TF.GenerationSoftware,KiCad,Pcbnew,5.1.8*%
%TF.CreationDate,2021-02-28T21:38:59-05:00*%
%TF.ProjectId,ECG,4543472e-6b69-4636-9164-5f7063625858,rev?*%
%TF.SameCoordinates,Original*%
%TF.FileFunction,Legend,Top*%
%TF.FilePolarity,Positive*%
%FSLAX46Y46*%
G04 Gerber Fmt 4.6, Leading zero omitted, Abs format (unit mm)*
G04 Created by KiCad (PCBNEW 5.1.8) date 2021-02-28 21:38:59*
%MOMM*%
%LPD*%
G01*
G04 APERTURE LIST*
%ADD10C,0.300000*%
%TA.AperFunction,Profile*%
%ADD11C,0.100000*%
%TD*%
%ADD12C,0.120000*%
%ADD13C,0.100000*%
%ADD14C,0.127000*%
%ADD15C,0.010000*%
%ADD16C,0.200000*%
%ADD17C,0.150000*%
%ADD18C,0.101600*%
%ADD19C,0.015000*%
G04 APERTURE END LIST*
D10*
X123317000Y-94642714D02*
X123388428Y-94714142D01*
X123317000Y-94785571D01*
X123245571Y-94714142D01*
X123317000Y-94642714D01*
X123317000Y-94785571D01*
X174371000Y-91340714D02*
X174442428Y-91412142D01*
X174371000Y-91483571D01*
X174299571Y-91412142D01*
X174371000Y-91340714D01*
X174371000Y-91483571D01*
X134493000Y-88927714D02*
X134564428Y-88999142D01*
X134493000Y-89070571D01*
X134421571Y-88999142D01*
X134493000Y-88927714D01*
X134493000Y-89070571D01*
X152019000Y-90959714D02*
X152090428Y-91031142D01*
X152019000Y-91102571D01*
X151947571Y-91031142D01*
X152019000Y-90959714D01*
X152019000Y-91102571D01*
X149733000Y-104548714D02*
X149804428Y-104620142D01*
X149733000Y-104691571D01*
X149661571Y-104620142D01*
X149733000Y-104548714D01*
X149733000Y-104691571D01*
X150495000Y-115978714D02*
X150566428Y-116050142D01*
X150495000Y-116121571D01*
X150423571Y-116050142D01*
X150495000Y-115978714D01*
X150495000Y-116121571D01*
X133223000Y-113692714D02*
X133294428Y-113764142D01*
X133223000Y-113835571D01*
X133151571Y-113764142D01*
X133223000Y-113692714D01*
X133223000Y-113835571D01*
D11*
X177794600Y-111882900D02*
X178154600Y-111385100D01*
X178154600Y-111385100D02*
X178498200Y-110876200D01*
X178498200Y-110876200D02*
X178825400Y-110356700D01*
X178825400Y-110356700D02*
X179136100Y-109827200D01*
X179136100Y-109827200D02*
X179430000Y-109288000D01*
X179430000Y-109288000D02*
X179707100Y-108739800D01*
X179707100Y-108739800D02*
X179967300Y-108182900D01*
X179967300Y-108182900D02*
X180210400Y-107617900D01*
X126111700Y-112369300D02*
X126503990Y-112843500D01*
X126503990Y-112843500D02*
X126912260Y-113305200D01*
X126912260Y-113305200D02*
X151765000Y-140490000D01*
X151765000Y-140490000D02*
X176617900Y-113305000D01*
X176617900Y-113305000D02*
X177026200Y-112843300D01*
X177026200Y-112843300D02*
X177418400Y-112369100D01*
X177418400Y-112369100D02*
X177794600Y-111882900D01*
X180210400Y-107617900D02*
X180436400Y-107045200D01*
X180436400Y-107045200D02*
X180645100Y-106465400D01*
X180645100Y-106465400D02*
X180836400Y-105878900D01*
X180836400Y-105878900D02*
X181010100Y-105286200D01*
X181010100Y-105286200D02*
X181166200Y-104687800D01*
X181166200Y-104687800D02*
X181304500Y-104084200D01*
X181304500Y-104084200D02*
X181425000Y-103475900D01*
X181425000Y-103475900D02*
X181527400Y-102863400D01*
X181684400Y-97869400D02*
X181619400Y-97240700D01*
X181619400Y-97240700D02*
X181535200Y-96612700D01*
X181535200Y-96612700D02*
X181431700Y-95985900D01*
X181431700Y-95985900D02*
X181308700Y-95360700D01*
X181308700Y-95360700D02*
X181166200Y-94737600D01*
X181166200Y-94737600D02*
X181004800Y-94120000D01*
X181004800Y-94120000D02*
X180825500Y-93511300D01*
X180825500Y-93511300D02*
X180628600Y-92911800D01*
X181527400Y-102863400D02*
X181611700Y-102247100D01*
X181611700Y-102247100D02*
X181677800Y-101627600D01*
X181677800Y-101627600D02*
X181725500Y-101005300D01*
X181725500Y-101005300D02*
X181754700Y-100380700D01*
X181754700Y-100380700D02*
X181765400Y-99754300D01*
X181765400Y-99754300D02*
X181757300Y-99126700D01*
X181757300Y-99126700D02*
X181730300Y-98498200D01*
X181730300Y-98498200D02*
X181684400Y-97869400D01*
X180628600Y-92911800D02*
X180414500Y-92321900D01*
X180414500Y-92321900D02*
X180183400Y-91741900D01*
X180183400Y-91741900D02*
X179935700Y-91172200D01*
X179935700Y-91172200D02*
X179671800Y-90613200D01*
X179671800Y-90613200D02*
X179391900Y-90065160D01*
X122363821Y-94737500D02*
X122221297Y-95360600D01*
X122221297Y-95360600D02*
X122098333Y-95985900D01*
X122098333Y-95985900D02*
X121994812Y-96612700D01*
X121994812Y-96612700D02*
X121910612Y-97240700D01*
X121910612Y-97240700D02*
X121845615Y-97869400D01*
X121845615Y-97869400D02*
X121799701Y-98498200D01*
X121799701Y-98498200D02*
X121772750Y-99126700D01*
X121772750Y-99126700D02*
X121764643Y-99754400D01*
X121764643Y-99754400D02*
X121775260Y-100380800D01*
X121775260Y-100380800D02*
X121804482Y-101005400D01*
X121804482Y-101005400D02*
X121852189Y-101627700D01*
X121852189Y-101627700D02*
X121918261Y-102247200D01*
X121918261Y-102247200D02*
X122002579Y-102863500D01*
X122002579Y-102863500D02*
X122105023Y-103476000D01*
X122105023Y-103476000D02*
X122225473Y-104084300D01*
X122225473Y-104084300D02*
X122363811Y-104687900D01*
X122363811Y-104687900D02*
X122519916Y-105286300D01*
X122519916Y-105286300D02*
X122693668Y-105879000D01*
X122693668Y-105879000D02*
X122884950Y-106465500D01*
X122884950Y-106465500D02*
X123093640Y-107045400D01*
X123093640Y-107045400D02*
X123319620Y-107618000D01*
X123319620Y-107618000D02*
X123562770Y-108183100D01*
X123562770Y-108183100D02*
X123822960Y-108739900D01*
X123822960Y-108739900D02*
X124100090Y-109288200D01*
X124100090Y-109288200D02*
X124394030Y-109827400D01*
X124394030Y-109827400D02*
X124704660Y-110356900D01*
X124704660Y-110356900D02*
X125031860Y-110876400D01*
X125031860Y-110876400D02*
X125375520Y-111385200D01*
X125375520Y-111385200D02*
X125735500Y-111883100D01*
X125735500Y-111883100D02*
X126111700Y-112369300D01*
X179391900Y-90065160D02*
X179096400Y-89528520D01*
X179096400Y-89528520D02*
X178785600Y-89003590D01*
X178785600Y-89003590D02*
X178459800Y-88490760D01*
X178459800Y-88490760D02*
X178119400Y-87990360D01*
X178119400Y-87990360D02*
X177764600Y-87502760D01*
X177764600Y-87502760D02*
X177395900Y-87028310D01*
X177395900Y-87028310D02*
X177013600Y-86567380D01*
X177013600Y-86567380D02*
X176617900Y-86120310D01*
X176617900Y-86120310D02*
X176209100Y-85687470D01*
X176209100Y-85687470D02*
X175787700Y-85269220D01*
X175787700Y-85269220D02*
X175354000Y-84865910D01*
X175354000Y-84865910D02*
X174908200Y-84477900D01*
X174908200Y-84477900D02*
X174450800Y-84105540D01*
X174450800Y-84105540D02*
X173981900Y-83749200D01*
X173981900Y-83749200D02*
X173502000Y-83409230D01*
X173502000Y-83409230D02*
X173011400Y-83085990D01*
X173011400Y-83085990D02*
X172510400Y-82779830D01*
X172510400Y-82779830D02*
X171999300Y-82491120D01*
X171999300Y-82491120D02*
X171478500Y-82220210D01*
X171478500Y-82220210D02*
X170948300Y-81967450D01*
X170948300Y-81967450D02*
X170409000Y-81733220D01*
X170409000Y-81733220D02*
X169860900Y-81517850D01*
X169860900Y-81517850D02*
X169304400Y-81321716D01*
X169304400Y-81321716D02*
X168739800Y-81145168D01*
X168739800Y-81145168D02*
X168170200Y-80989277D01*
X168170200Y-80989277D02*
X167598600Y-80854781D01*
X167598600Y-80854781D02*
X167025500Y-80741550D01*
X167025500Y-80741550D02*
X166451400Y-80649454D01*
X166451400Y-80649454D02*
X165876700Y-80578361D01*
X165876700Y-80578361D02*
X165301800Y-80528141D01*
X165301800Y-80528141D02*
X164727200Y-80498664D01*
X164727200Y-80498664D02*
X164153400Y-80489797D01*
X164153400Y-80489797D02*
X163580800Y-80501411D01*
X163580800Y-80501411D02*
X163009800Y-80533374D01*
X163009800Y-80533374D02*
X162440900Y-80585555D01*
X162440900Y-80585555D02*
X161874500Y-80657825D01*
X161874500Y-80657825D02*
X161311100Y-80750052D01*
X161311100Y-80750052D02*
X160751100Y-80862106D01*
X160751100Y-80862106D02*
X160195000Y-80993854D01*
X160195000Y-80993854D02*
X159643200Y-81145168D01*
X159643200Y-81145168D02*
X159096100Y-81315915D01*
X159096100Y-81315915D02*
X158554300Y-81505970D01*
X158554300Y-81505970D02*
X158018100Y-81715190D01*
X158018100Y-81715190D02*
X157488000Y-81943450D01*
X157488000Y-81943450D02*
X156964500Y-82190630D01*
X156964500Y-82190630D02*
X156447900Y-82456580D01*
X156447900Y-82456580D02*
X155938800Y-82741190D01*
X155938800Y-82741190D02*
X155437600Y-83044310D01*
X155437600Y-83044310D02*
X154944700Y-83365820D01*
X154944700Y-83365820D02*
X154460600Y-83705590D01*
X154460600Y-83705590D02*
X153985700Y-84063480D01*
X153985700Y-84063480D02*
X153520400Y-84439360D01*
X153520400Y-84439360D02*
X153065300Y-84833120D01*
X153065300Y-84833120D02*
X152620800Y-85244600D01*
X152620800Y-85244600D02*
X152187200Y-85673690D01*
X152187200Y-85673690D02*
X151765200Y-86120250D01*
X151765200Y-86120250D02*
X151343100Y-85673670D01*
X151343100Y-85673670D02*
X150909500Y-85244570D01*
X150909500Y-85244570D02*
X150465000Y-84833070D01*
X150465000Y-84833070D02*
X150009900Y-84439310D01*
X150009900Y-84439310D02*
X149544700Y-84063410D01*
X149544700Y-84063410D02*
X149069800Y-83705500D01*
X149069800Y-83705500D02*
X148585600Y-83365730D01*
X148585600Y-83365730D02*
X148092800Y-83044200D01*
X148092800Y-83044200D02*
X147591500Y-82741070D01*
X147591500Y-82741070D02*
X147082400Y-82456460D01*
X147082400Y-82456460D02*
X146565900Y-82190490D01*
X146565900Y-82190490D02*
X146042300Y-81943310D01*
X146042300Y-81943310D02*
X145512200Y-81715040D01*
X145512200Y-81715040D02*
X144976000Y-81505810D01*
X144976000Y-81505810D02*
X144434200Y-81315753D01*
X144434200Y-81315753D02*
X143887100Y-81144999D01*
X143887100Y-81144999D02*
X143335300Y-80993681D01*
X143335300Y-80993681D02*
X142779200Y-80861928D01*
X142779200Y-80861928D02*
X142219200Y-80749871D01*
X142219200Y-80749871D02*
X141655800Y-80657641D01*
X141655800Y-80657641D02*
X141089400Y-80585370D01*
X141089400Y-80585370D02*
X140520400Y-80533187D01*
X140520400Y-80533187D02*
X139949400Y-80501223D01*
X139949400Y-80501223D02*
X139376800Y-80489610D01*
X139376800Y-80489610D02*
X138803000Y-80498477D01*
X138803000Y-80498477D02*
X138228400Y-80527957D01*
X138228400Y-80527957D02*
X137653500Y-80578180D01*
X137653500Y-80578180D02*
X137078800Y-80649276D01*
X137078800Y-80649276D02*
X136504600Y-80741376D01*
X136504600Y-80741376D02*
X135931600Y-80854612D01*
X135931600Y-80854612D02*
X135359900Y-80989114D01*
X135359900Y-80989114D02*
X134790300Y-81145012D01*
X134790300Y-81145012D02*
X134225700Y-81321564D01*
X134225700Y-81321564D02*
X133669200Y-81517700D01*
X133669200Y-81517700D02*
X133121100Y-81733070D01*
X133121100Y-81733070D02*
X132581800Y-81967320D01*
X132581800Y-81967320D02*
X132051600Y-82220070D01*
X132051600Y-82220070D02*
X131530770Y-82490990D01*
X131530770Y-82490990D02*
X131019700Y-82779710D01*
X131019700Y-82779710D02*
X130518690Y-83085870D01*
X130518690Y-83085870D02*
X130028080Y-83409110D01*
X130028080Y-83409110D02*
X129548180Y-83749090D01*
X129548180Y-83749090D02*
X129079340Y-84105430D01*
X129079340Y-84105430D02*
X128621860Y-84477790D01*
X128621860Y-84477790D02*
X128176090Y-84865810D01*
X128176090Y-84865810D02*
X127742340Y-85269120D01*
X127742340Y-85269120D02*
X127320940Y-85687380D01*
X127320940Y-85687380D02*
X126912230Y-86120220D01*
X126912230Y-86120220D02*
X126516520Y-86567290D01*
X126516520Y-86567290D02*
X126134140Y-87028230D01*
X126134140Y-87028230D02*
X125765430Y-87502680D01*
X125765430Y-87502680D02*
X125410700Y-87990280D01*
X125410700Y-87990280D02*
X125070280Y-88490680D01*
X125070280Y-88490680D02*
X124744500Y-89003520D01*
X124744500Y-89003520D02*
X124433690Y-89528450D01*
X124433690Y-89528450D02*
X124138180Y-90065100D01*
X124138180Y-90065100D02*
X123858280Y-90613100D01*
X123858280Y-90613100D02*
X123594330Y-91172100D01*
X123594330Y-91172100D02*
X123346660Y-91741800D01*
X123346660Y-91741800D02*
X123115580Y-92321800D01*
X123115580Y-92321800D02*
X122901430Y-92911700D01*
X122901430Y-92911700D02*
X122704541Y-93511200D01*
X122704541Y-93511200D02*
X122525227Y-94119900D01*
X122525227Y-94119900D02*
X122363821Y-94737500D01*
X122363821Y-94737500D02*
X122363821Y-94737500D01*
X122363821Y-94737500D02*
X122363821Y-94737500D01*
D12*
%TO.C,Q1*%
X153207600Y-88355200D02*
X153207600Y-86895200D01*
X156367600Y-88355200D02*
X156367600Y-86195200D01*
X156367600Y-88355200D02*
X155437600Y-88355200D01*
X153207600Y-88355200D02*
X154137600Y-88355200D01*
%TO.C,U9*%
X162057000Y-105139000D02*
X160157000Y-105139000D01*
X160657000Y-107459000D02*
X162057000Y-107459000D01*
%TO.C,R28*%
X172566000Y-115178064D02*
X172566000Y-114723936D01*
X171096000Y-115178064D02*
X171096000Y-114723936D01*
%TO.C,R25*%
X165127000Y-111548936D02*
X165127000Y-112003064D01*
X166597000Y-111548936D02*
X166597000Y-112003064D01*
%TO.C,R24*%
X168629000Y-112003064D02*
X168629000Y-111548936D01*
X167159000Y-112003064D02*
X167159000Y-111548936D01*
%TO.C,C3*%
X129114250Y-100096250D02*
X128326750Y-100096250D01*
X128720500Y-99702500D02*
X128720500Y-100490000D01*
X124527437Y-100730000D02*
X123463000Y-101794437D01*
X129218563Y-100730000D02*
X130283000Y-101794437D01*
X129218563Y-100730000D02*
X127933000Y-100730000D01*
X124527437Y-100730000D02*
X125813000Y-100730000D01*
X123463000Y-101794437D02*
X123463000Y-107550000D01*
X130283000Y-101794437D02*
X130283000Y-107550000D01*
X130283000Y-107550000D02*
X127933000Y-107550000D01*
X123463000Y-107550000D02*
X125813000Y-107550000D01*
D13*
%TO.C,U8*%
X164211000Y-91404440D02*
X164211000Y-92202000D01*
X164211000Y-92202000D02*
X164211000Y-104800400D01*
X164211000Y-104800400D02*
X164211000Y-104800400D01*
X164211000Y-104800400D02*
X164211000Y-92202000D01*
X163299140Y-92202000D02*
X164061140Y-92202000D01*
X164061140Y-92202000D02*
X164211000Y-92202000D01*
X164213540Y-92196920D02*
X164731700Y-92196920D01*
X164800280Y-106202480D02*
X164218620Y-106202480D01*
X180207920Y-106197400D02*
X173934120Y-106197400D01*
X173852840Y-92196920D02*
X180207920Y-92196920D01*
X180210460Y-106202480D02*
X180210460Y-106199940D01*
X164211000Y-106197400D02*
X164211000Y-92199460D01*
X164465000Y-92202000D02*
X164360860Y-92202000D01*
X164360860Y-92202000D02*
X164211000Y-92202000D01*
X164211000Y-92202000D02*
X164211000Y-92202000D01*
D14*
X164211000Y-92202000D02*
X176911000Y-92202000D01*
X176911000Y-92202000D02*
X180210460Y-92202000D01*
X180210460Y-92202000D02*
X180210460Y-106199940D01*
X180210460Y-106199940D02*
X164211000Y-106199940D01*
X164211000Y-106199940D02*
X164211000Y-92202000D01*
X176911000Y-92202000D02*
X176911000Y-91203780D01*
X177010060Y-91203780D02*
X185008520Y-91203780D01*
X185008520Y-91203780D02*
X185008520Y-106199940D01*
X185008520Y-106199940D02*
X180210460Y-106199940D01*
D13*
X164360860Y-92202000D02*
G75*
G03*
X164061140Y-92202000I-149860J0D01*
G01*
X164061140Y-92202000D02*
G75*
G03*
X164360860Y-92202000I149860J0D01*
G01*
D15*
%TO.C,L1*%
G36*
X127021167Y-92604167D02*
G01*
X133540500Y-92604167D01*
X133540500Y-98933000D01*
X133350000Y-98933000D01*
X133350000Y-92794667D01*
X127211667Y-92794667D01*
X127211667Y-98933000D01*
X133350000Y-98933000D01*
X133540500Y-98933000D01*
X133540500Y-99123500D01*
X127021167Y-99123500D01*
X127021167Y-92604167D01*
G37*
X127021167Y-92604167D02*
X133540500Y-92604167D01*
X133540500Y-98933000D01*
X133350000Y-98933000D01*
X133350000Y-92794667D01*
X127211667Y-92794667D01*
X127211667Y-98933000D01*
X133350000Y-98933000D01*
X133540500Y-98933000D01*
X133540500Y-99123500D01*
X127021167Y-99123500D01*
X127021167Y-92604167D01*
D12*
%TO.C,U7*%
X171438000Y-90535000D02*
X167438000Y-90535000D01*
X167438000Y-90535000D02*
X167438000Y-88535000D01*
X167438000Y-88535000D02*
X171438000Y-88535000D01*
X171438000Y-88535000D02*
X171438000Y-90535000D01*
%TO.C,R23*%
X170661000Y-111532936D02*
X170661000Y-111987064D01*
X169191000Y-111532936D02*
X169191000Y-111987064D01*
%TO.C,R22*%
X164177736Y-81103800D02*
X164631864Y-81103800D01*
X164177736Y-82573800D02*
X164631864Y-82573800D01*
%TO.C,R19*%
X158319800Y-88044264D02*
X158319800Y-87590136D01*
X159789800Y-88044264D02*
X159789800Y-87590136D01*
%TO.C,R13*%
X163650600Y-102658936D02*
X163650600Y-103113064D01*
X162180600Y-102658936D02*
X162180600Y-103113064D01*
%TO.C,J4*%
X174034000Y-108192000D02*
X171914000Y-108192000D01*
X174034000Y-110252000D02*
X174034000Y-108192000D01*
X171914000Y-110252000D02*
X171914000Y-108192000D01*
X174034000Y-110252000D02*
X171914000Y-110252000D01*
X174034000Y-111252000D02*
X174034000Y-112312000D01*
X174034000Y-112312000D02*
X172974000Y-112312000D01*
%TO.C,J3*%
X172336800Y-85489600D02*
X172336800Y-83369600D01*
X158276800Y-85489600D02*
X172336800Y-85489600D01*
X158276800Y-83369600D02*
X172336800Y-83369600D01*
X158276800Y-85489600D02*
X158276800Y-83369600D01*
X157276800Y-85489600D02*
X156216800Y-85489600D01*
X156216800Y-85489600D02*
X156216800Y-84429600D01*
%TO.C,J2*%
X163106800Y-87128800D02*
X163106800Y-89248800D01*
X165166800Y-87128800D02*
X163106800Y-87128800D01*
X165166800Y-89248800D02*
X163106800Y-89248800D01*
X165166800Y-87128800D02*
X165166800Y-89248800D01*
X166166800Y-87128800D02*
X167226800Y-87128800D01*
X167226800Y-87128800D02*
X167226800Y-88188800D01*
%TO.C,C25*%
X169149752Y-115246000D02*
X168627248Y-115246000D01*
X169149752Y-113776000D02*
X168627248Y-113776000D01*
%TO.C,C23*%
X165833248Y-107723000D02*
X166355752Y-107723000D01*
X165833248Y-109193000D02*
X166355752Y-109193000D01*
%TO.C,C21*%
X160046000Y-113490000D02*
X161246000Y-113490000D01*
X164566000Y-113490000D02*
X163366000Y-113490000D01*
X164566000Y-110034437D02*
X164566000Y-113490000D01*
X160046000Y-110034437D02*
X160046000Y-113490000D01*
X161110437Y-108970000D02*
X161246000Y-108970000D01*
X163501563Y-108970000D02*
X163366000Y-108970000D01*
X163501563Y-108970000D02*
X164566000Y-110034437D01*
X161110437Y-108970000D02*
X160046000Y-110034437D01*
X163866000Y-108230000D02*
X163866000Y-108730000D01*
X164116000Y-108480000D02*
X163616000Y-108480000D01*
%TO.C,C19*%
X169033648Y-86742600D02*
X169556152Y-86742600D01*
X169033648Y-88212600D02*
X169556152Y-88212600D01*
%TO.C,C15*%
X171781800Y-88631752D02*
X171781800Y-88109248D01*
X173251800Y-88631752D02*
X173251800Y-88109248D01*
%TO.C,C16*%
X146746000Y-115221000D02*
X146746000Y-114721000D01*
X146996000Y-114971000D02*
X146496000Y-114971000D01*
X146256000Y-112215437D02*
X145191563Y-111151000D01*
X146256000Y-114606563D02*
X145191563Y-115671000D01*
X146256000Y-114606563D02*
X146256000Y-114471000D01*
X146256000Y-112215437D02*
X146256000Y-112351000D01*
X145191563Y-111151000D02*
X141736000Y-111151000D01*
X145191563Y-115671000D02*
X141736000Y-115671000D01*
X141736000Y-115671000D02*
X141736000Y-114471000D01*
X141736000Y-111151000D02*
X141736000Y-112351000D01*
%TO.C,C2*%
X142145000Y-103654000D02*
X141645000Y-103654000D01*
X141895000Y-103404000D02*
X141895000Y-103904000D01*
X139139437Y-104144000D02*
X138075000Y-105208437D01*
X141530563Y-104144000D02*
X142595000Y-105208437D01*
X141530563Y-104144000D02*
X141395000Y-104144000D01*
X139139437Y-104144000D02*
X139275000Y-104144000D01*
X138075000Y-105208437D02*
X138075000Y-108664000D01*
X142595000Y-105208437D02*
X142595000Y-108664000D01*
X142595000Y-108664000D02*
X141395000Y-108664000D01*
X138075000Y-108664000D02*
X139275000Y-108664000D01*
%TO.C,U2*%
X125530500Y-95137000D02*
X123100500Y-95137000D01*
X123770500Y-98207000D02*
X125530500Y-98207000D01*
%TO.C,D1*%
X158062600Y-89301400D02*
X158062600Y-86841400D01*
X156592600Y-89301400D02*
X158062600Y-89301400D01*
X156592600Y-86841400D02*
X156592600Y-89301400D01*
%TO.C,U6*%
X154635200Y-91470800D02*
X151185200Y-91470800D01*
X154635200Y-91470800D02*
X156585200Y-91470800D01*
X154635200Y-96590800D02*
X152685200Y-96590800D01*
X154635200Y-96590800D02*
X156585200Y-96590800D01*
%TO.C,R18*%
X156741864Y-97004200D02*
X156287736Y-97004200D01*
X156741864Y-98474200D02*
X156287736Y-98474200D01*
%TO.C,R17*%
X148172500Y-92625936D02*
X148172500Y-93080064D01*
X149642500Y-92625936D02*
X149642500Y-93080064D01*
%TO.C,R16*%
X146267500Y-92609936D02*
X146267500Y-93064064D01*
X147737500Y-92609936D02*
X147737500Y-93064064D01*
%TO.C,C22*%
X155099652Y-89587400D02*
X154577148Y-89587400D01*
X155099652Y-91057400D02*
X154577148Y-91057400D01*
%TO.C,C13*%
X142735248Y-94070000D02*
X144157752Y-94070000D01*
X142735248Y-91350000D02*
X144157752Y-91350000D01*
%TO.C,R15*%
X155348000Y-106722936D02*
X155348000Y-107177064D01*
X156818000Y-106722936D02*
X156818000Y-107177064D01*
%TO.C,R7*%
X144753000Y-108669064D02*
X144753000Y-108214936D01*
X143283000Y-108669064D02*
X143283000Y-108214936D01*
%TO.C,D2*%
X130152000Y-86968000D02*
X132612000Y-86968000D01*
X130152000Y-85498000D02*
X130152000Y-86968000D01*
X132612000Y-85498000D02*
X130152000Y-85498000D01*
%TO.C,R11*%
X141361936Y-98398000D02*
X141816064Y-98398000D01*
X141361936Y-96928000D02*
X141816064Y-96928000D01*
%TO.C,C5*%
X140870000Y-117514648D02*
X140870000Y-118037152D01*
X142340000Y-117514648D02*
X142340000Y-118037152D01*
%TO.C,U4*%
X137223500Y-89515000D02*
X133773500Y-89515000D01*
X137223500Y-89515000D02*
X139173500Y-89515000D01*
X137223500Y-94635000D02*
X135273500Y-94635000D01*
X137223500Y-94635000D02*
X139173500Y-94635000D01*
%TO.C,C8*%
X144880000Y-100845252D02*
X144880000Y-100322748D01*
X143410000Y-100845252D02*
X143410000Y-100322748D01*
%TO.C,D3*%
X151030000Y-87000000D02*
X151030000Y-89460000D01*
X152500000Y-87000000D02*
X151030000Y-87000000D01*
X152500000Y-89460000D02*
X152500000Y-87000000D01*
%TO.C,C17*%
X147855000Y-111153752D02*
X147855000Y-110631248D01*
X149325000Y-111153752D02*
X149325000Y-110631248D01*
%TO.C,R8*%
X145076936Y-98398000D02*
X145531064Y-98398000D01*
X145076936Y-96928000D02*
X145531064Y-96928000D01*
%TO.C,R4*%
X158523000Y-117644936D02*
X158523000Y-118099064D01*
X159993000Y-117644936D02*
X159993000Y-118099064D01*
%TO.C,C18*%
X137633252Y-89000000D02*
X137110748Y-89000000D01*
X137633252Y-87530000D02*
X137110748Y-87530000D01*
%TO.C,R10*%
X142848000Y-100811064D02*
X142848000Y-100356936D01*
X141378000Y-100811064D02*
X141378000Y-100356936D01*
%TO.C,C10*%
X137314000Y-100301248D02*
X137314000Y-100823752D01*
X138784000Y-100301248D02*
X138784000Y-100823752D01*
%TO.C,U5*%
X149332000Y-100584000D02*
X149332000Y-104034000D01*
X149332000Y-100584000D02*
X149332000Y-98634000D01*
X154452000Y-100584000D02*
X154452000Y-102534000D01*
X154452000Y-100584000D02*
X154452000Y-98634000D01*
%TO.C,R9*%
X145442000Y-106182936D02*
X145442000Y-106637064D01*
X146912000Y-106182936D02*
X146912000Y-106637064D01*
%TO.C,C12*%
X146912000Y-100823752D02*
X146912000Y-100301248D01*
X145442000Y-100823752D02*
X145442000Y-100301248D01*
%TO.C,C7*%
X151206252Y-105828000D02*
X149783748Y-105828000D01*
X151206252Y-108548000D02*
X149783748Y-108548000D01*
%TO.C,R21*%
X130672064Y-88165000D02*
X130217936Y-88165000D01*
X130672064Y-89635000D02*
X130217936Y-89635000D01*
%TO.C,R3*%
X143537000Y-117517936D02*
X143537000Y-117972064D01*
X145007000Y-117517936D02*
X145007000Y-117972064D01*
D14*
%TO.C,J1*%
X157765000Y-132325000D02*
X157765000Y-116825000D01*
X156265000Y-132325000D02*
X157765000Y-132325000D01*
X156265000Y-133325000D02*
X156265000Y-132325000D01*
X147265000Y-133325000D02*
X156265000Y-133325000D01*
X147265000Y-132325000D02*
X147265000Y-133325000D01*
X145765000Y-132325000D02*
X147265000Y-132325000D01*
X145765000Y-116825000D02*
X145765000Y-132325000D01*
D16*
X145365000Y-128825000D02*
G75*
G03*
X145365000Y-128825000I-100000J0D01*
G01*
D14*
X145765000Y-116825000D02*
X157765000Y-116825000D01*
D12*
%TO.C,C24*%
X132561000Y-114201752D02*
X132561000Y-113679248D01*
X131091000Y-114201752D02*
X131091000Y-113679248D01*
%TO.C,C20*%
X148944000Y-100301248D02*
X148944000Y-100823752D01*
X147474000Y-100301248D02*
X147474000Y-100823752D01*
%TO.C,C6*%
X161190000Y-117616248D02*
X161190000Y-118138752D01*
X162660000Y-117616248D02*
X162660000Y-118138752D01*
%TO.C,R14*%
X154840000Y-100372936D02*
X154840000Y-100827064D01*
X156310000Y-100372936D02*
X156310000Y-100827064D01*
%TO.C,C4*%
X135748752Y-112295000D02*
X135226248Y-112295000D01*
X135748752Y-113765000D02*
X135226248Y-113765000D01*
%TO.C,R26*%
X149252000Y-88402936D02*
X149252000Y-88857064D01*
X150722000Y-88402936D02*
X150722000Y-88857064D01*
%TO.C,C11*%
X153316000Y-106651248D02*
X153316000Y-107173752D01*
X154786000Y-106651248D02*
X154786000Y-107173752D01*
%TO.C,R6*%
X137202936Y-121385000D02*
X137657064Y-121385000D01*
X137202936Y-119915000D02*
X137657064Y-119915000D01*
%TO.C,R5*%
X149706000Y-114892064D02*
X149706000Y-114437936D01*
X148236000Y-114892064D02*
X148236000Y-114437936D01*
%TO.C,U3*%
X150139920Y-112499140D02*
X150139920Y-115499140D01*
X153379920Y-111499140D02*
X153379920Y-113499140D01*
%TO.C,C1*%
X136480250Y-101626250D02*
X135692750Y-101626250D01*
X136086500Y-101232500D02*
X136086500Y-102020000D01*
X131893437Y-102260000D02*
X130829000Y-103324437D01*
X136584563Y-102260000D02*
X137649000Y-103324437D01*
X136584563Y-102260000D02*
X135299000Y-102260000D01*
X131893437Y-102260000D02*
X133179000Y-102260000D01*
X130829000Y-103324437D02*
X130829000Y-109080000D01*
X137649000Y-103324437D02*
X137649000Y-109080000D01*
X137649000Y-109080000D02*
X135299000Y-109080000D01*
X130829000Y-109080000D02*
X133179000Y-109080000D01*
%TO.C,R12*%
X147309064Y-102770000D02*
X146854936Y-102770000D01*
X147309064Y-104240000D02*
X146854936Y-104240000D01*
%TO.C,C9*%
X140816000Y-100845252D02*
X140816000Y-100322748D01*
X139346000Y-100845252D02*
X139346000Y-100322748D01*
%TO.C,R2*%
X158523000Y-121962936D02*
X158523000Y-122417064D01*
X159993000Y-121962936D02*
X159993000Y-122417064D01*
%TO.C,U1*%
X136525000Y-114280000D02*
X133075000Y-114280000D01*
X136525000Y-114280000D02*
X138475000Y-114280000D01*
X136525000Y-119400000D02*
X134575000Y-119400000D01*
X136525000Y-119400000D02*
X138475000Y-119400000D01*
%TO.C,R1*%
X143537000Y-121962936D02*
X143537000Y-122417064D01*
X145007000Y-121962936D02*
X145007000Y-122417064D01*
%TO.C,C14*%
X168375000Y-117736252D02*
X168375000Y-117213748D01*
X166905000Y-117736252D02*
X166905000Y-117213748D01*
D16*
%TO.C,S1*%
X133315000Y-84405000D02*
G75*
G03*
X133315000Y-84405000I-100000J0D01*
G01*
D14*
X134765000Y-82305000D02*
X134765000Y-83055000D01*
X143365000Y-82305000D02*
X134765000Y-82305000D01*
X143365000Y-83055000D02*
X143365000Y-82305000D01*
X143365000Y-86605000D02*
X143365000Y-85855000D01*
X134765000Y-86605000D02*
X143365000Y-86605000D01*
X134765000Y-85755000D02*
X134765000Y-86605000D01*
D12*
%TO.C,R20*%
X164873000Y-117263936D02*
X164873000Y-117718064D01*
X166343000Y-117263936D02*
X166343000Y-117718064D01*
%TD*%
%TO.C,U9*%
D17*
X160595095Y-103751380D02*
X160595095Y-104560904D01*
X160642714Y-104656142D01*
X160690333Y-104703761D01*
X160785571Y-104751380D01*
X160976047Y-104751380D01*
X161071285Y-104703761D01*
X161118904Y-104656142D01*
X161166523Y-104560904D01*
X161166523Y-103751380D01*
X161690333Y-104751380D02*
X161880809Y-104751380D01*
X161976047Y-104703761D01*
X162023666Y-104656142D01*
X162118904Y-104513285D01*
X162166523Y-104322809D01*
X162166523Y-103941857D01*
X162118904Y-103846619D01*
X162071285Y-103799000D01*
X161976047Y-103751380D01*
X161785571Y-103751380D01*
X161690333Y-103799000D01*
X161642714Y-103846619D01*
X161595095Y-103941857D01*
X161595095Y-104179952D01*
X161642714Y-104275190D01*
X161690333Y-104322809D01*
X161785571Y-104370428D01*
X161976047Y-104370428D01*
X162071285Y-104322809D01*
X162118904Y-104275190D01*
X162166523Y-104179952D01*
%TO.C,R28*%
X174061380Y-115069857D02*
X173585190Y-115403190D01*
X174061380Y-115641285D02*
X173061380Y-115641285D01*
X173061380Y-115260333D01*
X173109000Y-115165095D01*
X173156619Y-115117476D01*
X173251857Y-115069857D01*
X173394714Y-115069857D01*
X173489952Y-115117476D01*
X173537571Y-115165095D01*
X173585190Y-115260333D01*
X173585190Y-115641285D01*
X173156619Y-114688904D02*
X173109000Y-114641285D01*
X173061380Y-114546047D01*
X173061380Y-114307952D01*
X173109000Y-114212714D01*
X173156619Y-114165095D01*
X173251857Y-114117476D01*
X173347095Y-114117476D01*
X173489952Y-114165095D01*
X174061380Y-114736523D01*
X174061380Y-114117476D01*
X173489952Y-113546047D02*
X173442333Y-113641285D01*
X173394714Y-113688904D01*
X173299476Y-113736523D01*
X173251857Y-113736523D01*
X173156619Y-113688904D01*
X173109000Y-113641285D01*
X173061380Y-113546047D01*
X173061380Y-113355571D01*
X173109000Y-113260333D01*
X173156619Y-113212714D01*
X173251857Y-113165095D01*
X173299476Y-113165095D01*
X173394714Y-113212714D01*
X173442333Y-113260333D01*
X173489952Y-113355571D01*
X173489952Y-113546047D01*
X173537571Y-113641285D01*
X173585190Y-113688904D01*
X173680428Y-113736523D01*
X173870904Y-113736523D01*
X173966142Y-113688904D01*
X174013761Y-113641285D01*
X174061380Y-113546047D01*
X174061380Y-113355571D01*
X174013761Y-113260333D01*
X173966142Y-113212714D01*
X173870904Y-113165095D01*
X173680428Y-113165095D01*
X173585190Y-113212714D01*
X173537571Y-113260333D01*
X173489952Y-113355571D01*
%TO.C,C3*%
X128738333Y-108942142D02*
X128690714Y-108989761D01*
X128547857Y-109037380D01*
X128452619Y-109037380D01*
X128309761Y-108989761D01*
X128214523Y-108894523D01*
X128166904Y-108799285D01*
X128119285Y-108608809D01*
X128119285Y-108465952D01*
X128166904Y-108275476D01*
X128214523Y-108180238D01*
X128309761Y-108085000D01*
X128452619Y-108037380D01*
X128547857Y-108037380D01*
X128690714Y-108085000D01*
X128738333Y-108132619D01*
X129071666Y-108037380D02*
X129690714Y-108037380D01*
X129357380Y-108418333D01*
X129500238Y-108418333D01*
X129595476Y-108465952D01*
X129643095Y-108513571D01*
X129690714Y-108608809D01*
X129690714Y-108846904D01*
X129643095Y-108942142D01*
X129595476Y-108989761D01*
X129500238Y-109037380D01*
X129214523Y-109037380D01*
X129119285Y-108989761D01*
X129071666Y-108942142D01*
%TO.C,U8*%
X175495857Y-89335428D02*
X175495857Y-90569142D01*
X175568428Y-90714285D01*
X175641000Y-90786857D01*
X175786142Y-90859428D01*
X176076428Y-90859428D01*
X176221571Y-90786857D01*
X176294142Y-90714285D01*
X176366714Y-90569142D01*
X176366714Y-89335428D01*
X177310142Y-89988571D02*
X177165000Y-89916000D01*
X177092428Y-89843428D01*
X177019857Y-89698285D01*
X177019857Y-89625714D01*
X177092428Y-89480571D01*
X177165000Y-89408000D01*
X177310142Y-89335428D01*
X177600428Y-89335428D01*
X177745571Y-89408000D01*
X177818142Y-89480571D01*
X177890714Y-89625714D01*
X177890714Y-89698285D01*
X177818142Y-89843428D01*
X177745571Y-89916000D01*
X177600428Y-89988571D01*
X177310142Y-89988571D01*
X177165000Y-90061142D01*
X177092428Y-90133714D01*
X177019857Y-90278857D01*
X177019857Y-90569142D01*
X177092428Y-90714285D01*
X177165000Y-90786857D01*
X177310142Y-90859428D01*
X177600428Y-90859428D01*
X177745571Y-90786857D01*
X177818142Y-90714285D01*
X177890714Y-90569142D01*
X177890714Y-90278857D01*
X177818142Y-90133714D01*
X177745571Y-90061142D01*
X177600428Y-89988571D01*
D18*
X183503025Y-102662566D02*
X183563501Y-102481138D01*
X183623978Y-102420661D01*
X183744930Y-102360185D01*
X183926359Y-102360185D01*
X184047311Y-102420661D01*
X184107787Y-102481138D01*
X184168263Y-102602090D01*
X184168263Y-103085900D01*
X182898263Y-103085900D01*
X182898263Y-102662566D01*
X182958740Y-102541614D01*
X183019216Y-102481138D01*
X183140168Y-102420661D01*
X183261120Y-102420661D01*
X183382073Y-102481138D01*
X183442549Y-102541614D01*
X183503025Y-102662566D01*
X183503025Y-103085900D01*
X182898263Y-101997328D02*
X182898263Y-101271614D01*
X184168263Y-101634471D02*
X182898263Y-101634471D01*
X183442549Y-100666852D02*
X183382073Y-100787804D01*
X183321597Y-100848280D01*
X183200644Y-100908757D01*
X183140168Y-100908757D01*
X183019216Y-100848280D01*
X182958740Y-100787804D01*
X182898263Y-100666852D01*
X182898263Y-100424947D01*
X182958740Y-100303995D01*
X183019216Y-100243519D01*
X183140168Y-100183042D01*
X183200644Y-100183042D01*
X183321597Y-100243519D01*
X183382073Y-100303995D01*
X183442549Y-100424947D01*
X183442549Y-100666852D01*
X183503025Y-100787804D01*
X183563501Y-100848280D01*
X183684454Y-100908757D01*
X183926359Y-100908757D01*
X184047311Y-100848280D01*
X184107787Y-100787804D01*
X184168263Y-100666852D01*
X184168263Y-100424947D01*
X184107787Y-100303995D01*
X184047311Y-100243519D01*
X183926359Y-100183042D01*
X183684454Y-100183042D01*
X183563501Y-100243519D01*
X183503025Y-100303995D01*
X183442549Y-100424947D01*
X182898263Y-99759709D02*
X182898263Y-98973519D01*
X183382073Y-99396852D01*
X183382073Y-99215423D01*
X183442549Y-99094471D01*
X183503025Y-99033995D01*
X183623978Y-98973519D01*
X183926359Y-98973519D01*
X184047311Y-99033995D01*
X184107787Y-99094471D01*
X184168263Y-99215423D01*
X184168263Y-99578280D01*
X184107787Y-99699233D01*
X184047311Y-99759709D01*
X183019216Y-98489709D02*
X182958740Y-98429233D01*
X182898263Y-98308280D01*
X182898263Y-98005900D01*
X182958740Y-97884947D01*
X183019216Y-97824471D01*
X183140168Y-97763995D01*
X183261120Y-97763995D01*
X183442549Y-97824471D01*
X184168263Y-98550185D01*
X184168263Y-97763995D01*
X183503025Y-96796376D02*
X183503025Y-97219709D01*
X184168263Y-97219709D02*
X182898263Y-97219709D01*
X182898263Y-96614947D01*
X176754245Y-102731388D02*
X176814721Y-102549960D01*
X176875198Y-102489483D01*
X176996150Y-102429007D01*
X177177579Y-102429007D01*
X177298531Y-102489483D01*
X177359007Y-102549960D01*
X177419483Y-102670912D01*
X177419483Y-103154721D01*
X176149483Y-103154721D01*
X176149483Y-102731388D01*
X176209960Y-102610436D01*
X176270436Y-102549960D01*
X176391388Y-102489483D01*
X176512340Y-102489483D01*
X176633293Y-102549960D01*
X176693769Y-102610436D01*
X176754245Y-102731388D01*
X176754245Y-103154721D01*
X176149483Y-102066150D02*
X176149483Y-101340436D01*
X177419483Y-101703293D02*
X176149483Y-101703293D01*
X176693769Y-100735674D02*
X176633293Y-100856626D01*
X176572817Y-100917102D01*
X176451864Y-100977579D01*
X176391388Y-100977579D01*
X176270436Y-100917102D01*
X176209960Y-100856626D01*
X176149483Y-100735674D01*
X176149483Y-100493769D01*
X176209960Y-100372817D01*
X176270436Y-100312340D01*
X176391388Y-100251864D01*
X176451864Y-100251864D01*
X176572817Y-100312340D01*
X176633293Y-100372817D01*
X176693769Y-100493769D01*
X176693769Y-100735674D01*
X176754245Y-100856626D01*
X176814721Y-100917102D01*
X176935674Y-100977579D01*
X177177579Y-100977579D01*
X177298531Y-100917102D01*
X177359007Y-100856626D01*
X177419483Y-100735674D01*
X177419483Y-100493769D01*
X177359007Y-100372817D01*
X177298531Y-100312340D01*
X177177579Y-100251864D01*
X176935674Y-100251864D01*
X176814721Y-100312340D01*
X176754245Y-100372817D01*
X176693769Y-100493769D01*
X176149483Y-99828531D02*
X176149483Y-99042340D01*
X176633293Y-99465674D01*
X176633293Y-99284245D01*
X176693769Y-99163293D01*
X176754245Y-99102817D01*
X176875198Y-99042340D01*
X177177579Y-99042340D01*
X177298531Y-99102817D01*
X177359007Y-99163293D01*
X177419483Y-99284245D01*
X177419483Y-99647102D01*
X177359007Y-99768055D01*
X177298531Y-99828531D01*
X176270436Y-98558531D02*
X176209960Y-98498055D01*
X176149483Y-98377102D01*
X176149483Y-98074721D01*
X176209960Y-97953769D01*
X176270436Y-97893293D01*
X176391388Y-97832817D01*
X176512340Y-97832817D01*
X176693769Y-97893293D01*
X177419483Y-98619007D01*
X177419483Y-97832817D01*
X177419483Y-96683769D02*
X177419483Y-97288531D01*
X176149483Y-97288531D01*
%TO.C,L1*%
D17*
X129709333Y-100523523D02*
X129104571Y-100523523D01*
X129104571Y-99253523D01*
X130797904Y-100523523D02*
X130072190Y-100523523D01*
X130435047Y-100523523D02*
X130435047Y-99253523D01*
X130314095Y-99434952D01*
X130193142Y-99555904D01*
X130072190Y-99616380D01*
%TO.C,R23*%
X169283142Y-109545380D02*
X168949809Y-109069190D01*
X168711714Y-109545380D02*
X168711714Y-108545380D01*
X169092666Y-108545380D01*
X169187904Y-108593000D01*
X169235523Y-108640619D01*
X169283142Y-108735857D01*
X169283142Y-108878714D01*
X169235523Y-108973952D01*
X169187904Y-109021571D01*
X169092666Y-109069190D01*
X168711714Y-109069190D01*
X169664095Y-108640619D02*
X169711714Y-108593000D01*
X169806952Y-108545380D01*
X170045047Y-108545380D01*
X170140285Y-108593000D01*
X170187904Y-108640619D01*
X170235523Y-108735857D01*
X170235523Y-108831095D01*
X170187904Y-108973952D01*
X169616476Y-109545380D01*
X170235523Y-109545380D01*
X170568857Y-108545380D02*
X171187904Y-108545380D01*
X170854571Y-108926333D01*
X170997428Y-108926333D01*
X171092666Y-108973952D01*
X171140285Y-109021571D01*
X171187904Y-109116809D01*
X171187904Y-109354904D01*
X171140285Y-109450142D01*
X171092666Y-109497761D01*
X170997428Y-109545380D01*
X170711714Y-109545380D01*
X170616476Y-109497761D01*
X170568857Y-109450142D01*
%TO.C,R22*%
X167124142Y-82621380D02*
X166790809Y-82145190D01*
X166552714Y-82621380D02*
X166552714Y-81621380D01*
X166933666Y-81621380D01*
X167028904Y-81669000D01*
X167076523Y-81716619D01*
X167124142Y-81811857D01*
X167124142Y-81954714D01*
X167076523Y-82049952D01*
X167028904Y-82097571D01*
X166933666Y-82145190D01*
X166552714Y-82145190D01*
X167505095Y-81716619D02*
X167552714Y-81669000D01*
X167647952Y-81621380D01*
X167886047Y-81621380D01*
X167981285Y-81669000D01*
X168028904Y-81716619D01*
X168076523Y-81811857D01*
X168076523Y-81907095D01*
X168028904Y-82049952D01*
X167457476Y-82621380D01*
X168076523Y-82621380D01*
X168457476Y-81716619D02*
X168505095Y-81669000D01*
X168600333Y-81621380D01*
X168838428Y-81621380D01*
X168933666Y-81669000D01*
X168981285Y-81716619D01*
X169028904Y-81811857D01*
X169028904Y-81907095D01*
X168981285Y-82049952D01*
X168409857Y-82621380D01*
X169028904Y-82621380D01*
%TO.C,R19*%
X161234380Y-88460057D02*
X160758190Y-88793390D01*
X161234380Y-89031485D02*
X160234380Y-89031485D01*
X160234380Y-88650533D01*
X160282000Y-88555295D01*
X160329619Y-88507676D01*
X160424857Y-88460057D01*
X160567714Y-88460057D01*
X160662952Y-88507676D01*
X160710571Y-88555295D01*
X160758190Y-88650533D01*
X160758190Y-89031485D01*
X161234380Y-87507676D02*
X161234380Y-88079104D01*
X161234380Y-87793390D02*
X160234380Y-87793390D01*
X160377238Y-87888628D01*
X160472476Y-87983866D01*
X160520095Y-88079104D01*
X161234380Y-87031485D02*
X161234380Y-86841009D01*
X161186761Y-86745771D01*
X161139142Y-86698152D01*
X160996285Y-86602914D01*
X160805809Y-86555295D01*
X160424857Y-86555295D01*
X160329619Y-86602914D01*
X160282000Y-86650533D01*
X160234380Y-86745771D01*
X160234380Y-86936247D01*
X160282000Y-87031485D01*
X160329619Y-87079104D01*
X160424857Y-87126723D01*
X160662952Y-87126723D01*
X160758190Y-87079104D01*
X160805809Y-87031485D01*
X160853428Y-86936247D01*
X160853428Y-86745771D01*
X160805809Y-86650533D01*
X160758190Y-86602914D01*
X160662952Y-86555295D01*
%TO.C,R13*%
X161869380Y-102242857D02*
X161393190Y-102576190D01*
X161869380Y-102814285D02*
X160869380Y-102814285D01*
X160869380Y-102433333D01*
X160917000Y-102338095D01*
X160964619Y-102290476D01*
X161059857Y-102242857D01*
X161202714Y-102242857D01*
X161297952Y-102290476D01*
X161345571Y-102338095D01*
X161393190Y-102433333D01*
X161393190Y-102814285D01*
X161869380Y-101290476D02*
X161869380Y-101861904D01*
X161869380Y-101576190D02*
X160869380Y-101576190D01*
X161012238Y-101671428D01*
X161107476Y-101766666D01*
X161155095Y-101861904D01*
X160869380Y-100957142D02*
X160869380Y-100338095D01*
X161250333Y-100671428D01*
X161250333Y-100528571D01*
X161297952Y-100433333D01*
X161345571Y-100385714D01*
X161440809Y-100338095D01*
X161678904Y-100338095D01*
X161774142Y-100385714D01*
X161821761Y-100433333D01*
X161869380Y-100528571D01*
X161869380Y-100814285D01*
X161821761Y-100909523D01*
X161774142Y-100957142D01*
%TO.C,J4*%
X174799666Y-110704380D02*
X174799666Y-111418666D01*
X174752047Y-111561523D01*
X174656809Y-111656761D01*
X174513952Y-111704380D01*
X174418714Y-111704380D01*
X175704428Y-111037714D02*
X175704428Y-111704380D01*
X175466333Y-110656761D02*
X175228238Y-111371047D01*
X175847285Y-111371047D01*
%TO.C,J3*%
X154669180Y-84762933D02*
X155383466Y-84762933D01*
X155526323Y-84810552D01*
X155621561Y-84905790D01*
X155669180Y-85048647D01*
X155669180Y-85143885D01*
X154669180Y-84381980D02*
X154669180Y-83762933D01*
X155050133Y-84096266D01*
X155050133Y-83953409D01*
X155097752Y-83858171D01*
X155145371Y-83810552D01*
X155240609Y-83762933D01*
X155478704Y-83762933D01*
X155573942Y-83810552D01*
X155621561Y-83858171D01*
X155669180Y-83953409D01*
X155669180Y-84239123D01*
X155621561Y-84334361D01*
X155573942Y-84381980D01*
%TO.C,J2*%
X164893666Y-90130380D02*
X164893666Y-90844666D01*
X164846047Y-90987523D01*
X164750809Y-91082761D01*
X164607952Y-91130380D01*
X164512714Y-91130380D01*
X165322238Y-90225619D02*
X165369857Y-90178000D01*
X165465095Y-90130380D01*
X165703190Y-90130380D01*
X165798428Y-90178000D01*
X165846047Y-90225619D01*
X165893666Y-90320857D01*
X165893666Y-90416095D01*
X165846047Y-90558952D01*
X165274619Y-91130380D01*
X165893666Y-91130380D01*
%TO.C,C15*%
X174728142Y-89034857D02*
X174775761Y-89082476D01*
X174823380Y-89225333D01*
X174823380Y-89320571D01*
X174775761Y-89463428D01*
X174680523Y-89558666D01*
X174585285Y-89606285D01*
X174394809Y-89653904D01*
X174251952Y-89653904D01*
X174061476Y-89606285D01*
X173966238Y-89558666D01*
X173871000Y-89463428D01*
X173823380Y-89320571D01*
X173823380Y-89225333D01*
X173871000Y-89082476D01*
X173918619Y-89034857D01*
X174823380Y-88082476D02*
X174823380Y-88653904D01*
X174823380Y-88368190D02*
X173823380Y-88368190D01*
X173966238Y-88463428D01*
X174061476Y-88558666D01*
X174109095Y-88653904D01*
X173823380Y-87177714D02*
X173823380Y-87653904D01*
X174299571Y-87701523D01*
X174251952Y-87653904D01*
X174204333Y-87558666D01*
X174204333Y-87320571D01*
X174251952Y-87225333D01*
X174299571Y-87177714D01*
X174394809Y-87130095D01*
X174632904Y-87130095D01*
X174728142Y-87177714D01*
X174775761Y-87225333D01*
X174823380Y-87320571D01*
X174823380Y-87558666D01*
X174775761Y-87653904D01*
X174728142Y-87701523D01*
%TO.C,C16*%
X142972142Y-110720142D02*
X142924523Y-110767761D01*
X142781666Y-110815380D01*
X142686428Y-110815380D01*
X142543571Y-110767761D01*
X142448333Y-110672523D01*
X142400714Y-110577285D01*
X142353095Y-110386809D01*
X142353095Y-110243952D01*
X142400714Y-110053476D01*
X142448333Y-109958238D01*
X142543571Y-109863000D01*
X142686428Y-109815380D01*
X142781666Y-109815380D01*
X142924523Y-109863000D01*
X142972142Y-109910619D01*
X143924523Y-110815380D02*
X143353095Y-110815380D01*
X143638809Y-110815380D02*
X143638809Y-109815380D01*
X143543571Y-109958238D01*
X143448333Y-110053476D01*
X143353095Y-110101095D01*
X144781666Y-109815380D02*
X144591190Y-109815380D01*
X144495952Y-109863000D01*
X144448333Y-109910619D01*
X144353095Y-110053476D01*
X144305476Y-110243952D01*
X144305476Y-110624904D01*
X144353095Y-110720142D01*
X144400714Y-110767761D01*
X144495952Y-110815380D01*
X144686428Y-110815380D01*
X144781666Y-110767761D01*
X144829285Y-110720142D01*
X144876904Y-110624904D01*
X144876904Y-110386809D01*
X144829285Y-110291571D01*
X144781666Y-110243952D01*
X144686428Y-110196333D01*
X144495952Y-110196333D01*
X144400714Y-110243952D01*
X144353095Y-110291571D01*
X144305476Y-110386809D01*
%TO.C,C2*%
X138390333Y-110085142D02*
X138342714Y-110132761D01*
X138199857Y-110180380D01*
X138104619Y-110180380D01*
X137961761Y-110132761D01*
X137866523Y-110037523D01*
X137818904Y-109942285D01*
X137771285Y-109751809D01*
X137771285Y-109608952D01*
X137818904Y-109418476D01*
X137866523Y-109323238D01*
X137961761Y-109228000D01*
X138104619Y-109180380D01*
X138199857Y-109180380D01*
X138342714Y-109228000D01*
X138390333Y-109275619D01*
X138771285Y-109275619D02*
X138818904Y-109228000D01*
X138914142Y-109180380D01*
X139152238Y-109180380D01*
X139247476Y-109228000D01*
X139295095Y-109275619D01*
X139342714Y-109370857D01*
X139342714Y-109466095D01*
X139295095Y-109608952D01*
X138723666Y-110180380D01*
X139342714Y-110180380D01*
%TO.C,U2*%
X123888595Y-93649380D02*
X123888595Y-94458904D01*
X123936214Y-94554142D01*
X123983833Y-94601761D01*
X124079071Y-94649380D01*
X124269547Y-94649380D01*
X124364785Y-94601761D01*
X124412404Y-94554142D01*
X124460023Y-94458904D01*
X124460023Y-93649380D01*
X124888595Y-93744619D02*
X124936214Y-93697000D01*
X125031452Y-93649380D01*
X125269547Y-93649380D01*
X125364785Y-93697000D01*
X125412404Y-93744619D01*
X125460023Y-93839857D01*
X125460023Y-93935095D01*
X125412404Y-94077952D01*
X124840976Y-94649380D01*
X125460023Y-94649380D01*
%TO.C,U6*%
X157226095Y-90130380D02*
X157226095Y-90939904D01*
X157273714Y-91035142D01*
X157321333Y-91082761D01*
X157416571Y-91130380D01*
X157607047Y-91130380D01*
X157702285Y-91082761D01*
X157749904Y-91035142D01*
X157797523Y-90939904D01*
X157797523Y-90130380D01*
X158702285Y-90130380D02*
X158511809Y-90130380D01*
X158416571Y-90178000D01*
X158368952Y-90225619D01*
X158273714Y-90368476D01*
X158226095Y-90558952D01*
X158226095Y-90939904D01*
X158273714Y-91035142D01*
X158321333Y-91082761D01*
X158416571Y-91130380D01*
X158607047Y-91130380D01*
X158702285Y-91082761D01*
X158749904Y-91035142D01*
X158797523Y-90939904D01*
X158797523Y-90701809D01*
X158749904Y-90606571D01*
X158702285Y-90558952D01*
X158607047Y-90511333D01*
X158416571Y-90511333D01*
X158321333Y-90558952D01*
X158273714Y-90606571D01*
X158226095Y-90701809D01*
%TO.C,R18*%
X159250142Y-98242380D02*
X158916809Y-97766190D01*
X158678714Y-98242380D02*
X158678714Y-97242380D01*
X159059666Y-97242380D01*
X159154904Y-97290000D01*
X159202523Y-97337619D01*
X159250142Y-97432857D01*
X159250142Y-97575714D01*
X159202523Y-97670952D01*
X159154904Y-97718571D01*
X159059666Y-97766190D01*
X158678714Y-97766190D01*
X160202523Y-98242380D02*
X159631095Y-98242380D01*
X159916809Y-98242380D02*
X159916809Y-97242380D01*
X159821571Y-97385238D01*
X159726333Y-97480476D01*
X159631095Y-97528095D01*
X160773952Y-97670952D02*
X160678714Y-97623333D01*
X160631095Y-97575714D01*
X160583476Y-97480476D01*
X160583476Y-97432857D01*
X160631095Y-97337619D01*
X160678714Y-97290000D01*
X160773952Y-97242380D01*
X160964428Y-97242380D01*
X161059666Y-97290000D01*
X161107285Y-97337619D01*
X161154904Y-97432857D01*
X161154904Y-97480476D01*
X161107285Y-97575714D01*
X161059666Y-97623333D01*
X160964428Y-97670952D01*
X160773952Y-97670952D01*
X160678714Y-97718571D01*
X160631095Y-97766190D01*
X160583476Y-97861428D01*
X160583476Y-98051904D01*
X160631095Y-98147142D01*
X160678714Y-98194761D01*
X160773952Y-98242380D01*
X160964428Y-98242380D01*
X161059666Y-98194761D01*
X161107285Y-98147142D01*
X161154904Y-98051904D01*
X161154904Y-97861428D01*
X161107285Y-97766190D01*
X161059666Y-97718571D01*
X160964428Y-97670952D01*
%TO.C,R17*%
X148328142Y-96083380D02*
X147994809Y-95607190D01*
X147756714Y-96083380D02*
X147756714Y-95083380D01*
X148137666Y-95083380D01*
X148232904Y-95131000D01*
X148280523Y-95178619D01*
X148328142Y-95273857D01*
X148328142Y-95416714D01*
X148280523Y-95511952D01*
X148232904Y-95559571D01*
X148137666Y-95607190D01*
X147756714Y-95607190D01*
X149280523Y-96083380D02*
X148709095Y-96083380D01*
X148994809Y-96083380D02*
X148994809Y-95083380D01*
X148899571Y-95226238D01*
X148804333Y-95321476D01*
X148709095Y-95369095D01*
X149613857Y-95083380D02*
X150280523Y-95083380D01*
X149851952Y-96083380D01*
%TO.C,R16*%
X146423142Y-90876380D02*
X146089809Y-90400190D01*
X145851714Y-90876380D02*
X145851714Y-89876380D01*
X146232666Y-89876380D01*
X146327904Y-89924000D01*
X146375523Y-89971619D01*
X146423142Y-90066857D01*
X146423142Y-90209714D01*
X146375523Y-90304952D01*
X146327904Y-90352571D01*
X146232666Y-90400190D01*
X145851714Y-90400190D01*
X147375523Y-90876380D02*
X146804095Y-90876380D01*
X147089809Y-90876380D02*
X147089809Y-89876380D01*
X146994571Y-90019238D01*
X146899333Y-90114476D01*
X146804095Y-90162095D01*
X148232666Y-89876380D02*
X148042190Y-89876380D01*
X147946952Y-89924000D01*
X147899333Y-89971619D01*
X147804095Y-90114476D01*
X147756476Y-90304952D01*
X147756476Y-90685904D01*
X147804095Y-90781142D01*
X147851714Y-90828761D01*
X147946952Y-90876380D01*
X148137428Y-90876380D01*
X148232666Y-90828761D01*
X148280285Y-90781142D01*
X148327904Y-90685904D01*
X148327904Y-90447809D01*
X148280285Y-90352571D01*
X148232666Y-90304952D01*
X148137428Y-90257333D01*
X147946952Y-90257333D01*
X147851714Y-90304952D01*
X147804095Y-90352571D01*
X147756476Y-90447809D01*
%TO.C,C13*%
X142803642Y-90767142D02*
X142756023Y-90814761D01*
X142613166Y-90862380D01*
X142517928Y-90862380D01*
X142375071Y-90814761D01*
X142279833Y-90719523D01*
X142232214Y-90624285D01*
X142184595Y-90433809D01*
X142184595Y-90290952D01*
X142232214Y-90100476D01*
X142279833Y-90005238D01*
X142375071Y-89910000D01*
X142517928Y-89862380D01*
X142613166Y-89862380D01*
X142756023Y-89910000D01*
X142803642Y-89957619D01*
X143756023Y-90862380D02*
X143184595Y-90862380D01*
X143470309Y-90862380D02*
X143470309Y-89862380D01*
X143375071Y-90005238D01*
X143279833Y-90100476D01*
X143184595Y-90148095D01*
X144089357Y-89862380D02*
X144708404Y-89862380D01*
X144375071Y-90243333D01*
X144517928Y-90243333D01*
X144613166Y-90290952D01*
X144660785Y-90338571D01*
X144708404Y-90433809D01*
X144708404Y-90671904D01*
X144660785Y-90767142D01*
X144613166Y-90814761D01*
X144517928Y-90862380D01*
X144232214Y-90862380D01*
X144136976Y-90814761D01*
X144089357Y-90767142D01*
%TO.C,R15*%
X156535380Y-110751857D02*
X156059190Y-111085190D01*
X156535380Y-111323285D02*
X155535380Y-111323285D01*
X155535380Y-110942333D01*
X155583000Y-110847095D01*
X155630619Y-110799476D01*
X155725857Y-110751857D01*
X155868714Y-110751857D01*
X155963952Y-110799476D01*
X156011571Y-110847095D01*
X156059190Y-110942333D01*
X156059190Y-111323285D01*
X156535380Y-109799476D02*
X156535380Y-110370904D01*
X156535380Y-110085190D02*
X155535380Y-110085190D01*
X155678238Y-110180428D01*
X155773476Y-110275666D01*
X155821095Y-110370904D01*
X155535380Y-108894714D02*
X155535380Y-109370904D01*
X156011571Y-109418523D01*
X155963952Y-109370904D01*
X155916333Y-109275666D01*
X155916333Y-109037571D01*
X155963952Y-108942333D01*
X156011571Y-108894714D01*
X156106809Y-108847095D01*
X156344904Y-108847095D01*
X156440142Y-108894714D01*
X156487761Y-108942333D01*
X156535380Y-109037571D01*
X156535380Y-109275666D01*
X156487761Y-109370904D01*
X156440142Y-109418523D01*
%TO.C,D2*%
X131073904Y-85255380D02*
X131073904Y-84255380D01*
X131312000Y-84255380D01*
X131454857Y-84303000D01*
X131550095Y-84398238D01*
X131597714Y-84493476D01*
X131645333Y-84683952D01*
X131645333Y-84826809D01*
X131597714Y-85017285D01*
X131550095Y-85112523D01*
X131454857Y-85207761D01*
X131312000Y-85255380D01*
X131073904Y-85255380D01*
X132026285Y-84350619D02*
X132073904Y-84303000D01*
X132169142Y-84255380D01*
X132407238Y-84255380D01*
X132502476Y-84303000D01*
X132550095Y-84350619D01*
X132597714Y-84445857D01*
X132597714Y-84541095D01*
X132550095Y-84683952D01*
X131978666Y-85255380D01*
X132597714Y-85255380D01*
%TO.C,R11*%
X140946142Y-96465380D02*
X140612809Y-95989190D01*
X140374714Y-96465380D02*
X140374714Y-95465380D01*
X140755666Y-95465380D01*
X140850904Y-95513000D01*
X140898523Y-95560619D01*
X140946142Y-95655857D01*
X140946142Y-95798714D01*
X140898523Y-95893952D01*
X140850904Y-95941571D01*
X140755666Y-95989190D01*
X140374714Y-95989190D01*
X141898523Y-96465380D02*
X141327095Y-96465380D01*
X141612809Y-96465380D02*
X141612809Y-95465380D01*
X141517571Y-95608238D01*
X141422333Y-95703476D01*
X141327095Y-95751095D01*
X142850904Y-96465380D02*
X142279476Y-96465380D01*
X142565190Y-96465380D02*
X142565190Y-95465380D01*
X142469952Y-95608238D01*
X142374714Y-95703476D01*
X142279476Y-95751095D01*
%TO.C,C5*%
X141438333Y-120753142D02*
X141390714Y-120800761D01*
X141247857Y-120848380D01*
X141152619Y-120848380D01*
X141009761Y-120800761D01*
X140914523Y-120705523D01*
X140866904Y-120610285D01*
X140819285Y-120419809D01*
X140819285Y-120276952D01*
X140866904Y-120086476D01*
X140914523Y-119991238D01*
X141009761Y-119896000D01*
X141152619Y-119848380D01*
X141247857Y-119848380D01*
X141390714Y-119896000D01*
X141438333Y-119943619D01*
X142343095Y-119848380D02*
X141866904Y-119848380D01*
X141819285Y-120324571D01*
X141866904Y-120276952D01*
X141962142Y-120229333D01*
X142200238Y-120229333D01*
X142295476Y-120276952D01*
X142343095Y-120324571D01*
X142390714Y-120419809D01*
X142390714Y-120657904D01*
X142343095Y-120753142D01*
X142295476Y-120800761D01*
X142200238Y-120848380D01*
X141962142Y-120848380D01*
X141866904Y-120800761D01*
X141819285Y-120753142D01*
%TO.C,U4*%
X136461595Y-95083380D02*
X136461595Y-95892904D01*
X136509214Y-95988142D01*
X136556833Y-96035761D01*
X136652071Y-96083380D01*
X136842547Y-96083380D01*
X136937785Y-96035761D01*
X136985404Y-95988142D01*
X137033023Y-95892904D01*
X137033023Y-95083380D01*
X137937785Y-95416714D02*
X137937785Y-96083380D01*
X137699690Y-95035761D02*
X137461595Y-95750047D01*
X138080642Y-95750047D01*
%TO.C,R8*%
X145137333Y-96465380D02*
X144804000Y-95989190D01*
X144565904Y-96465380D02*
X144565904Y-95465380D01*
X144946857Y-95465380D01*
X145042095Y-95513000D01*
X145089714Y-95560619D01*
X145137333Y-95655857D01*
X145137333Y-95798714D01*
X145089714Y-95893952D01*
X145042095Y-95941571D01*
X144946857Y-95989190D01*
X144565904Y-95989190D01*
X145708761Y-95893952D02*
X145613523Y-95846333D01*
X145565904Y-95798714D01*
X145518285Y-95703476D01*
X145518285Y-95655857D01*
X145565904Y-95560619D01*
X145613523Y-95513000D01*
X145708761Y-95465380D01*
X145899238Y-95465380D01*
X145994476Y-95513000D01*
X146042095Y-95560619D01*
X146089714Y-95655857D01*
X146089714Y-95703476D01*
X146042095Y-95798714D01*
X145994476Y-95846333D01*
X145899238Y-95893952D01*
X145708761Y-95893952D01*
X145613523Y-95941571D01*
X145565904Y-95989190D01*
X145518285Y-96084428D01*
X145518285Y-96274904D01*
X145565904Y-96370142D01*
X145613523Y-96417761D01*
X145708761Y-96465380D01*
X145899238Y-96465380D01*
X145994476Y-96417761D01*
X146042095Y-96370142D01*
X146089714Y-96274904D01*
X146089714Y-96084428D01*
X146042095Y-95989190D01*
X145994476Y-95941571D01*
X145899238Y-95893952D01*
%TO.C,R4*%
X159091333Y-115768380D02*
X158758000Y-115292190D01*
X158519904Y-115768380D02*
X158519904Y-114768380D01*
X158900857Y-114768380D01*
X158996095Y-114816000D01*
X159043714Y-114863619D01*
X159091333Y-114958857D01*
X159091333Y-115101714D01*
X159043714Y-115196952D01*
X158996095Y-115244571D01*
X158900857Y-115292190D01*
X158519904Y-115292190D01*
X159948476Y-115101714D02*
X159948476Y-115768380D01*
X159710380Y-114720761D02*
X159472285Y-115435047D01*
X160091333Y-115435047D01*
%TO.C,C18*%
X140200142Y-88749142D02*
X140152523Y-88796761D01*
X140009666Y-88844380D01*
X139914428Y-88844380D01*
X139771571Y-88796761D01*
X139676333Y-88701523D01*
X139628714Y-88606285D01*
X139581095Y-88415809D01*
X139581095Y-88272952D01*
X139628714Y-88082476D01*
X139676333Y-87987238D01*
X139771571Y-87892000D01*
X139914428Y-87844380D01*
X140009666Y-87844380D01*
X140152523Y-87892000D01*
X140200142Y-87939619D01*
X141152523Y-88844380D02*
X140581095Y-88844380D01*
X140866809Y-88844380D02*
X140866809Y-87844380D01*
X140771571Y-87987238D01*
X140676333Y-88082476D01*
X140581095Y-88130095D01*
X141723952Y-88272952D02*
X141628714Y-88225333D01*
X141581095Y-88177714D01*
X141533476Y-88082476D01*
X141533476Y-88034857D01*
X141581095Y-87939619D01*
X141628714Y-87892000D01*
X141723952Y-87844380D01*
X141914428Y-87844380D01*
X142009666Y-87892000D01*
X142057285Y-87939619D01*
X142104904Y-88034857D01*
X142104904Y-88082476D01*
X142057285Y-88177714D01*
X142009666Y-88225333D01*
X141914428Y-88272952D01*
X141723952Y-88272952D01*
X141628714Y-88320571D01*
X141581095Y-88368190D01*
X141533476Y-88463428D01*
X141533476Y-88653904D01*
X141581095Y-88749142D01*
X141628714Y-88796761D01*
X141723952Y-88844380D01*
X141914428Y-88844380D01*
X142009666Y-88796761D01*
X142057285Y-88749142D01*
X142104904Y-88653904D01*
X142104904Y-88463428D01*
X142057285Y-88368190D01*
X142009666Y-88320571D01*
X141914428Y-88272952D01*
%TO.C,C10*%
X138660142Y-98051857D02*
X138707761Y-98099476D01*
X138755380Y-98242333D01*
X138755380Y-98337571D01*
X138707761Y-98480428D01*
X138612523Y-98575666D01*
X138517285Y-98623285D01*
X138326809Y-98670904D01*
X138183952Y-98670904D01*
X137993476Y-98623285D01*
X137898238Y-98575666D01*
X137803000Y-98480428D01*
X137755380Y-98337571D01*
X137755380Y-98242333D01*
X137803000Y-98099476D01*
X137850619Y-98051857D01*
X138755380Y-97099476D02*
X138755380Y-97670904D01*
X138755380Y-97385190D02*
X137755380Y-97385190D01*
X137898238Y-97480428D01*
X137993476Y-97575666D01*
X138041095Y-97670904D01*
X137755380Y-96480428D02*
X137755380Y-96385190D01*
X137803000Y-96289952D01*
X137850619Y-96242333D01*
X137945857Y-96194714D01*
X138136333Y-96147095D01*
X138374428Y-96147095D01*
X138564904Y-96194714D01*
X138660142Y-96242333D01*
X138707761Y-96289952D01*
X138755380Y-96385190D01*
X138755380Y-96480428D01*
X138707761Y-96575666D01*
X138660142Y-96623285D01*
X138564904Y-96670904D01*
X138374428Y-96718523D01*
X138136333Y-96718523D01*
X137945857Y-96670904D01*
X137850619Y-96623285D01*
X137803000Y-96575666D01*
X137755380Y-96480428D01*
%TO.C,U5*%
X154813095Y-103338380D02*
X154813095Y-104147904D01*
X154860714Y-104243142D01*
X154908333Y-104290761D01*
X155003571Y-104338380D01*
X155194047Y-104338380D01*
X155289285Y-104290761D01*
X155336904Y-104243142D01*
X155384523Y-104147904D01*
X155384523Y-103338380D01*
X156336904Y-103338380D02*
X155860714Y-103338380D01*
X155813095Y-103814571D01*
X155860714Y-103766952D01*
X155955952Y-103719333D01*
X156194047Y-103719333D01*
X156289285Y-103766952D01*
X156336904Y-103814571D01*
X156384523Y-103909809D01*
X156384523Y-104147904D01*
X156336904Y-104243142D01*
X156289285Y-104290761D01*
X156194047Y-104338380D01*
X155955952Y-104338380D01*
X155860714Y-104290761D01*
X155813095Y-104243142D01*
%TO.C,R9*%
X144978380Y-106592666D02*
X144502190Y-106926000D01*
X144978380Y-107164095D02*
X143978380Y-107164095D01*
X143978380Y-106783142D01*
X144026000Y-106687904D01*
X144073619Y-106640285D01*
X144168857Y-106592666D01*
X144311714Y-106592666D01*
X144406952Y-106640285D01*
X144454571Y-106687904D01*
X144502190Y-106783142D01*
X144502190Y-107164095D01*
X144978380Y-106116476D02*
X144978380Y-105926000D01*
X144930761Y-105830761D01*
X144883142Y-105783142D01*
X144740285Y-105687904D01*
X144549809Y-105640285D01*
X144168857Y-105640285D01*
X144073619Y-105687904D01*
X144026000Y-105735523D01*
X143978380Y-105830761D01*
X143978380Y-106021238D01*
X144026000Y-106116476D01*
X144073619Y-106164095D01*
X144168857Y-106211714D01*
X144406952Y-106211714D01*
X144502190Y-106164095D01*
X144549809Y-106116476D01*
X144597428Y-106021238D01*
X144597428Y-105830761D01*
X144549809Y-105735523D01*
X144502190Y-105687904D01*
X144406952Y-105640285D01*
%TO.C,R21*%
X129802142Y-91002380D02*
X129468809Y-90526190D01*
X129230714Y-91002380D02*
X129230714Y-90002380D01*
X129611666Y-90002380D01*
X129706904Y-90050000D01*
X129754523Y-90097619D01*
X129802142Y-90192857D01*
X129802142Y-90335714D01*
X129754523Y-90430952D01*
X129706904Y-90478571D01*
X129611666Y-90526190D01*
X129230714Y-90526190D01*
X130183095Y-90097619D02*
X130230714Y-90050000D01*
X130325952Y-90002380D01*
X130564047Y-90002380D01*
X130659285Y-90050000D01*
X130706904Y-90097619D01*
X130754523Y-90192857D01*
X130754523Y-90288095D01*
X130706904Y-90430952D01*
X130135476Y-91002380D01*
X130754523Y-91002380D01*
X131706904Y-91002380D02*
X131135476Y-91002380D01*
X131421190Y-91002380D02*
X131421190Y-90002380D01*
X131325952Y-90145238D01*
X131230714Y-90240476D01*
X131135476Y-90288095D01*
%TO.C,J1*%
D19*
X143368594Y-130394117D02*
X144084056Y-130394117D01*
X144227148Y-130441814D01*
X144322543Y-130537209D01*
X144370240Y-130680301D01*
X144370240Y-130775696D01*
X144370240Y-129392471D02*
X144370240Y-129964840D01*
X144370240Y-129678655D02*
X143368594Y-129678655D01*
X143511686Y-129774050D01*
X143607081Y-129869445D01*
X143654779Y-129964840D01*
%TO.C,C24*%
D17*
X130503142Y-114583357D02*
X130550761Y-114630976D01*
X130598380Y-114773833D01*
X130598380Y-114869071D01*
X130550761Y-115011928D01*
X130455523Y-115107166D01*
X130360285Y-115154785D01*
X130169809Y-115202404D01*
X130026952Y-115202404D01*
X129836476Y-115154785D01*
X129741238Y-115107166D01*
X129646000Y-115011928D01*
X129598380Y-114869071D01*
X129598380Y-114773833D01*
X129646000Y-114630976D01*
X129693619Y-114583357D01*
X129693619Y-114202404D02*
X129646000Y-114154785D01*
X129598380Y-114059547D01*
X129598380Y-113821452D01*
X129646000Y-113726214D01*
X129693619Y-113678595D01*
X129788857Y-113630976D01*
X129884095Y-113630976D01*
X130026952Y-113678595D01*
X130598380Y-114250023D01*
X130598380Y-113630976D01*
X129931714Y-112773833D02*
X130598380Y-112773833D01*
X129550761Y-113011928D02*
X130265047Y-113250023D01*
X130265047Y-112630976D01*
%TO.C,C6*%
X161758333Y-115673142D02*
X161710714Y-115720761D01*
X161567857Y-115768380D01*
X161472619Y-115768380D01*
X161329761Y-115720761D01*
X161234523Y-115625523D01*
X161186904Y-115530285D01*
X161139285Y-115339809D01*
X161139285Y-115196952D01*
X161186904Y-115006476D01*
X161234523Y-114911238D01*
X161329761Y-114816000D01*
X161472619Y-114768380D01*
X161567857Y-114768380D01*
X161710714Y-114816000D01*
X161758333Y-114863619D01*
X162615476Y-114768380D02*
X162425000Y-114768380D01*
X162329761Y-114816000D01*
X162282142Y-114863619D01*
X162186904Y-115006476D01*
X162139285Y-115196952D01*
X162139285Y-115577904D01*
X162186904Y-115673142D01*
X162234523Y-115720761D01*
X162329761Y-115768380D01*
X162520238Y-115768380D01*
X162615476Y-115720761D01*
X162663095Y-115673142D01*
X162710714Y-115577904D01*
X162710714Y-115339809D01*
X162663095Y-115244571D01*
X162615476Y-115196952D01*
X162520238Y-115149333D01*
X162329761Y-115149333D01*
X162234523Y-115196952D01*
X162186904Y-115244571D01*
X162139285Y-115339809D01*
%TO.C,R14*%
X157677380Y-101242857D02*
X157201190Y-101576190D01*
X157677380Y-101814285D02*
X156677380Y-101814285D01*
X156677380Y-101433333D01*
X156725000Y-101338095D01*
X156772619Y-101290476D01*
X156867857Y-101242857D01*
X157010714Y-101242857D01*
X157105952Y-101290476D01*
X157153571Y-101338095D01*
X157201190Y-101433333D01*
X157201190Y-101814285D01*
X157677380Y-100290476D02*
X157677380Y-100861904D01*
X157677380Y-100576190D02*
X156677380Y-100576190D01*
X156820238Y-100671428D01*
X156915476Y-100766666D01*
X156963095Y-100861904D01*
X157010714Y-99433333D02*
X157677380Y-99433333D01*
X156629761Y-99671428D02*
X157344047Y-99909523D01*
X157344047Y-99290476D01*
%TO.C,C4*%
X135215333Y-111863142D02*
X135167714Y-111910761D01*
X135024857Y-111958380D01*
X134929619Y-111958380D01*
X134786761Y-111910761D01*
X134691523Y-111815523D01*
X134643904Y-111720285D01*
X134596285Y-111529809D01*
X134596285Y-111386952D01*
X134643904Y-111196476D01*
X134691523Y-111101238D01*
X134786761Y-111006000D01*
X134929619Y-110958380D01*
X135024857Y-110958380D01*
X135167714Y-111006000D01*
X135215333Y-111053619D01*
X136072476Y-111291714D02*
X136072476Y-111958380D01*
X135834380Y-110910761D02*
X135596285Y-111625047D01*
X136215333Y-111625047D01*
%TO.C,R26*%
X148788380Y-89034857D02*
X148312190Y-89368190D01*
X148788380Y-89606285D02*
X147788380Y-89606285D01*
X147788380Y-89225333D01*
X147836000Y-89130095D01*
X147883619Y-89082476D01*
X147978857Y-89034857D01*
X148121714Y-89034857D01*
X148216952Y-89082476D01*
X148264571Y-89130095D01*
X148312190Y-89225333D01*
X148312190Y-89606285D01*
X147883619Y-88653904D02*
X147836000Y-88606285D01*
X147788380Y-88511047D01*
X147788380Y-88272952D01*
X147836000Y-88177714D01*
X147883619Y-88130095D01*
X147978857Y-88082476D01*
X148074095Y-88082476D01*
X148216952Y-88130095D01*
X148788380Y-88701523D01*
X148788380Y-88082476D01*
X147788380Y-87225333D02*
X147788380Y-87415809D01*
X147836000Y-87511047D01*
X147883619Y-87558666D01*
X148026476Y-87653904D01*
X148216952Y-87701523D01*
X148597904Y-87701523D01*
X148693142Y-87653904D01*
X148740761Y-87606285D01*
X148788380Y-87511047D01*
X148788380Y-87320571D01*
X148740761Y-87225333D01*
X148693142Y-87177714D01*
X148597904Y-87130095D01*
X148359809Y-87130095D01*
X148264571Y-87177714D01*
X148216952Y-87225333D01*
X148169333Y-87320571D01*
X148169333Y-87511047D01*
X148216952Y-87606285D01*
X148264571Y-87653904D01*
X148359809Y-87701523D01*
%TO.C,C11*%
X154789142Y-110624857D02*
X154836761Y-110672476D01*
X154884380Y-110815333D01*
X154884380Y-110910571D01*
X154836761Y-111053428D01*
X154741523Y-111148666D01*
X154646285Y-111196285D01*
X154455809Y-111243904D01*
X154312952Y-111243904D01*
X154122476Y-111196285D01*
X154027238Y-111148666D01*
X153932000Y-111053428D01*
X153884380Y-110910571D01*
X153884380Y-110815333D01*
X153932000Y-110672476D01*
X153979619Y-110624857D01*
X154884380Y-109672476D02*
X154884380Y-110243904D01*
X154884380Y-109958190D02*
X153884380Y-109958190D01*
X154027238Y-110053428D01*
X154122476Y-110148666D01*
X154170095Y-110243904D01*
X154884380Y-108720095D02*
X154884380Y-109291523D01*
X154884380Y-109005809D02*
X153884380Y-109005809D01*
X154027238Y-109101047D01*
X154122476Y-109196285D01*
X154170095Y-109291523D01*
%TO.C,R6*%
X137263333Y-122753380D02*
X136930000Y-122277190D01*
X136691904Y-122753380D02*
X136691904Y-121753380D01*
X137072857Y-121753380D01*
X137168095Y-121801000D01*
X137215714Y-121848619D01*
X137263333Y-121943857D01*
X137263333Y-122086714D01*
X137215714Y-122181952D01*
X137168095Y-122229571D01*
X137072857Y-122277190D01*
X136691904Y-122277190D01*
X138120476Y-121753380D02*
X137930000Y-121753380D01*
X137834761Y-121801000D01*
X137787142Y-121848619D01*
X137691904Y-121991476D01*
X137644285Y-122181952D01*
X137644285Y-122562904D01*
X137691904Y-122658142D01*
X137739523Y-122705761D01*
X137834761Y-122753380D01*
X138025238Y-122753380D01*
X138120476Y-122705761D01*
X138168095Y-122658142D01*
X138215714Y-122562904D01*
X138215714Y-122324809D01*
X138168095Y-122229571D01*
X138120476Y-122181952D01*
X138025238Y-122134333D01*
X137834761Y-122134333D01*
X137739523Y-122181952D01*
X137691904Y-122229571D01*
X137644285Y-122324809D01*
%TO.C,R5*%
X149550380Y-112180666D02*
X149074190Y-112514000D01*
X149550380Y-112752095D02*
X148550380Y-112752095D01*
X148550380Y-112371142D01*
X148598000Y-112275904D01*
X148645619Y-112228285D01*
X148740857Y-112180666D01*
X148883714Y-112180666D01*
X148978952Y-112228285D01*
X149026571Y-112275904D01*
X149074190Y-112371142D01*
X149074190Y-112752095D01*
X148550380Y-111275904D02*
X148550380Y-111752095D01*
X149026571Y-111799714D01*
X148978952Y-111752095D01*
X148931333Y-111656857D01*
X148931333Y-111418761D01*
X148978952Y-111323523D01*
X149026571Y-111275904D01*
X149121809Y-111228285D01*
X149359904Y-111228285D01*
X149455142Y-111275904D01*
X149502761Y-111323523D01*
X149550380Y-111418761D01*
X149550380Y-111656857D01*
X149502761Y-111752095D01*
X149455142Y-111799714D01*
%TO.C,U3*%
X153884380Y-113261044D02*
X154693904Y-113261044D01*
X154789142Y-113213425D01*
X154836761Y-113165806D01*
X154884380Y-113070568D01*
X154884380Y-112880092D01*
X154836761Y-112784854D01*
X154789142Y-112737235D01*
X154693904Y-112689616D01*
X153884380Y-112689616D01*
X153884380Y-112308663D02*
X153884380Y-111689616D01*
X154265333Y-112022949D01*
X154265333Y-111880092D01*
X154312952Y-111784854D01*
X154360571Y-111737235D01*
X154455809Y-111689616D01*
X154693904Y-111689616D01*
X154789142Y-111737235D01*
X154836761Y-111784854D01*
X154884380Y-111880092D01*
X154884380Y-112165806D01*
X154836761Y-112261044D01*
X154789142Y-112308663D01*
%TO.C,C1*%
X131913333Y-110593142D02*
X131865714Y-110640761D01*
X131722857Y-110688380D01*
X131627619Y-110688380D01*
X131484761Y-110640761D01*
X131389523Y-110545523D01*
X131341904Y-110450285D01*
X131294285Y-110259809D01*
X131294285Y-110116952D01*
X131341904Y-109926476D01*
X131389523Y-109831238D01*
X131484761Y-109736000D01*
X131627619Y-109688380D01*
X131722857Y-109688380D01*
X131865714Y-109736000D01*
X131913333Y-109783619D01*
X132865714Y-110688380D02*
X132294285Y-110688380D01*
X132580000Y-110688380D02*
X132580000Y-109688380D01*
X132484761Y-109831238D01*
X132389523Y-109926476D01*
X132294285Y-109974095D01*
%TO.C,R12*%
X142994142Y-103957380D02*
X142660809Y-103481190D01*
X142422714Y-103957380D02*
X142422714Y-102957380D01*
X142803666Y-102957380D01*
X142898904Y-103005000D01*
X142946523Y-103052619D01*
X142994142Y-103147857D01*
X142994142Y-103290714D01*
X142946523Y-103385952D01*
X142898904Y-103433571D01*
X142803666Y-103481190D01*
X142422714Y-103481190D01*
X143946523Y-103957380D02*
X143375095Y-103957380D01*
X143660809Y-103957380D02*
X143660809Y-102957380D01*
X143565571Y-103100238D01*
X143470333Y-103195476D01*
X143375095Y-103243095D01*
X144327476Y-103052619D02*
X144375095Y-103005000D01*
X144470333Y-102957380D01*
X144708428Y-102957380D01*
X144803666Y-103005000D01*
X144851285Y-103052619D01*
X144898904Y-103147857D01*
X144898904Y-103243095D01*
X144851285Y-103385952D01*
X144279857Y-103957380D01*
X144898904Y-103957380D01*
%TO.C,R2*%
X161488380Y-122356666D02*
X161012190Y-122690000D01*
X161488380Y-122928095D02*
X160488380Y-122928095D01*
X160488380Y-122547142D01*
X160536000Y-122451904D01*
X160583619Y-122404285D01*
X160678857Y-122356666D01*
X160821714Y-122356666D01*
X160916952Y-122404285D01*
X160964571Y-122451904D01*
X161012190Y-122547142D01*
X161012190Y-122928095D01*
X160583619Y-121975714D02*
X160536000Y-121928095D01*
X160488380Y-121832857D01*
X160488380Y-121594761D01*
X160536000Y-121499523D01*
X160583619Y-121451904D01*
X160678857Y-121404285D01*
X160774095Y-121404285D01*
X160916952Y-121451904D01*
X161488380Y-122023333D01*
X161488380Y-121404285D01*
%TO.C,U1*%
X137541095Y-112990380D02*
X137541095Y-113799904D01*
X137588714Y-113895142D01*
X137636333Y-113942761D01*
X137731571Y-113990380D01*
X137922047Y-113990380D01*
X138017285Y-113942761D01*
X138064904Y-113895142D01*
X138112523Y-113799904D01*
X138112523Y-112990380D01*
X139112523Y-113990380D02*
X138541095Y-113990380D01*
X138826809Y-113990380D02*
X138826809Y-112990380D01*
X138731571Y-113133238D01*
X138636333Y-113228476D01*
X138541095Y-113276095D01*
%TO.C,R1*%
X143073380Y-122356666D02*
X142597190Y-122690000D01*
X143073380Y-122928095D02*
X142073380Y-122928095D01*
X142073380Y-122547142D01*
X142121000Y-122451904D01*
X142168619Y-122404285D01*
X142263857Y-122356666D01*
X142406714Y-122356666D01*
X142501952Y-122404285D01*
X142549571Y-122451904D01*
X142597190Y-122547142D01*
X142597190Y-122928095D01*
X143073380Y-121404285D02*
X143073380Y-121975714D01*
X143073380Y-121690000D02*
X142073380Y-121690000D01*
X142216238Y-121785238D01*
X142311476Y-121880476D01*
X142359095Y-121975714D01*
%TO.C,C14*%
X164187142Y-117990857D02*
X164234761Y-118038476D01*
X164282380Y-118181333D01*
X164282380Y-118276571D01*
X164234761Y-118419428D01*
X164139523Y-118514666D01*
X164044285Y-118562285D01*
X163853809Y-118609904D01*
X163710952Y-118609904D01*
X163520476Y-118562285D01*
X163425238Y-118514666D01*
X163330000Y-118419428D01*
X163282380Y-118276571D01*
X163282380Y-118181333D01*
X163330000Y-118038476D01*
X163377619Y-117990857D01*
X164282380Y-117038476D02*
X164282380Y-117609904D01*
X164282380Y-117324190D02*
X163282380Y-117324190D01*
X163425238Y-117419428D01*
X163520476Y-117514666D01*
X163568095Y-117609904D01*
X163615714Y-116181333D02*
X164282380Y-116181333D01*
X163234761Y-116419428D02*
X163949047Y-116657523D01*
X163949047Y-116038476D01*
%TO.C,S1*%
D19*
X135722662Y-81343905D02*
X135791246Y-81366766D01*
X135905553Y-81366766D01*
X135951276Y-81343905D01*
X135974137Y-81321043D01*
X135996999Y-81275320D01*
X135996999Y-81229598D01*
X135974137Y-81183875D01*
X135951276Y-81161013D01*
X135905553Y-81138152D01*
X135814107Y-81115290D01*
X135768385Y-81092429D01*
X135745523Y-81069568D01*
X135722662Y-81023845D01*
X135722662Y-80978122D01*
X135745523Y-80932399D01*
X135768385Y-80909538D01*
X135814107Y-80886676D01*
X135928415Y-80886676D01*
X135996999Y-80909538D01*
X136454227Y-81366766D02*
X136179890Y-81366766D01*
X136317059Y-81366766D02*
X136317059Y-80886676D01*
X136271336Y-80955260D01*
X136225613Y-81000983D01*
X136179890Y-81023845D01*
%TO.C,R20*%
D17*
X169997380Y-118244857D02*
X169521190Y-118578190D01*
X169997380Y-118816285D02*
X168997380Y-118816285D01*
X168997380Y-118435333D01*
X169045000Y-118340095D01*
X169092619Y-118292476D01*
X169187857Y-118244857D01*
X169330714Y-118244857D01*
X169425952Y-118292476D01*
X169473571Y-118340095D01*
X169521190Y-118435333D01*
X169521190Y-118816285D01*
X169092619Y-117863904D02*
X169045000Y-117816285D01*
X168997380Y-117721047D01*
X168997380Y-117482952D01*
X169045000Y-117387714D01*
X169092619Y-117340095D01*
X169187857Y-117292476D01*
X169283095Y-117292476D01*
X169425952Y-117340095D01*
X169997380Y-117911523D01*
X169997380Y-117292476D01*
X168997380Y-116673428D02*
X168997380Y-116578190D01*
X169045000Y-116482952D01*
X169092619Y-116435333D01*
X169187857Y-116387714D01*
X169378333Y-116340095D01*
X169616428Y-116340095D01*
X169806904Y-116387714D01*
X169902142Y-116435333D01*
X169949761Y-116482952D01*
X169997380Y-116578190D01*
X169997380Y-116673428D01*
X169949761Y-116768666D01*
X169902142Y-116816285D01*
X169806904Y-116863904D01*
X169616428Y-116911523D01*
X169378333Y-116911523D01*
X169187857Y-116863904D01*
X169092619Y-116816285D01*
X169045000Y-116768666D01*
X168997380Y-116673428D01*
%TD*%
M02*
