%TF.GenerationSoftware,KiCad,Pcbnew,5.1.8*%
%TF.CreationDate,2021-02-28T21:38:59-05:00*%
%TF.ProjectId,ECG,4543472e-6b69-4636-9164-5f7063625858,rev?*%
%TF.SameCoordinates,Original*%
%TF.FileFunction,Profile,NP*%
%FSLAX46Y46*%
G04 Gerber Fmt 4.6, Leading zero omitted, Abs format (unit mm)*
G04 Created by KiCad (PCBNEW 5.1.8) date 2021-02-28 21:38:59*
%MOMM*%
%LPD*%
G01*
G04 APERTURE LIST*
%TA.AperFunction,Profile*%
%ADD10C,0.100000*%
%TD*%
G04 APERTURE END LIST*
D10*
X177794600Y-111882900D02*
X178154600Y-111385100D01*
X178154600Y-111385100D02*
X178498200Y-110876200D01*
X178498200Y-110876200D02*
X178825400Y-110356700D01*
X178825400Y-110356700D02*
X179136100Y-109827200D01*
X179136100Y-109827200D02*
X179430000Y-109288000D01*
X179430000Y-109288000D02*
X179707100Y-108739800D01*
X179707100Y-108739800D02*
X179967300Y-108182900D01*
X179967300Y-108182900D02*
X180210400Y-107617900D01*
X126111700Y-112369300D02*
X126503990Y-112843500D01*
X126503990Y-112843500D02*
X126912260Y-113305200D01*
X126912260Y-113305200D02*
X151765000Y-140490000D01*
X151765000Y-140490000D02*
X176617900Y-113305000D01*
X176617900Y-113305000D02*
X177026200Y-112843300D01*
X177026200Y-112843300D02*
X177418400Y-112369100D01*
X177418400Y-112369100D02*
X177794600Y-111882900D01*
X180210400Y-107617900D02*
X180436400Y-107045200D01*
X180436400Y-107045200D02*
X180645100Y-106465400D01*
X180645100Y-106465400D02*
X180836400Y-105878900D01*
X180836400Y-105878900D02*
X181010100Y-105286200D01*
X181010100Y-105286200D02*
X181166200Y-104687800D01*
X181166200Y-104687800D02*
X181304500Y-104084200D01*
X181304500Y-104084200D02*
X181425000Y-103475900D01*
X181425000Y-103475900D02*
X181527400Y-102863400D01*
X181684400Y-97869400D02*
X181619400Y-97240700D01*
X181619400Y-97240700D02*
X181535200Y-96612700D01*
X181535200Y-96612700D02*
X181431700Y-95985900D01*
X181431700Y-95985900D02*
X181308700Y-95360700D01*
X181308700Y-95360700D02*
X181166200Y-94737600D01*
X181166200Y-94737600D02*
X181004800Y-94120000D01*
X181004800Y-94120000D02*
X180825500Y-93511300D01*
X180825500Y-93511300D02*
X180628600Y-92911800D01*
X181527400Y-102863400D02*
X181611700Y-102247100D01*
X181611700Y-102247100D02*
X181677800Y-101627600D01*
X181677800Y-101627600D02*
X181725500Y-101005300D01*
X181725500Y-101005300D02*
X181754700Y-100380700D01*
X181754700Y-100380700D02*
X181765400Y-99754300D01*
X181765400Y-99754300D02*
X181757300Y-99126700D01*
X181757300Y-99126700D02*
X181730300Y-98498200D01*
X181730300Y-98498200D02*
X181684400Y-97869400D01*
X180628600Y-92911800D02*
X180414500Y-92321900D01*
X180414500Y-92321900D02*
X180183400Y-91741900D01*
X180183400Y-91741900D02*
X179935700Y-91172200D01*
X179935700Y-91172200D02*
X179671800Y-90613200D01*
X179671800Y-90613200D02*
X179391900Y-90065160D01*
X122363821Y-94737500D02*
X122221297Y-95360600D01*
X122221297Y-95360600D02*
X122098333Y-95985900D01*
X122098333Y-95985900D02*
X121994812Y-96612700D01*
X121994812Y-96612700D02*
X121910612Y-97240700D01*
X121910612Y-97240700D02*
X121845615Y-97869400D01*
X121845615Y-97869400D02*
X121799701Y-98498200D01*
X121799701Y-98498200D02*
X121772750Y-99126700D01*
X121772750Y-99126700D02*
X121764643Y-99754400D01*
X121764643Y-99754400D02*
X121775260Y-100380800D01*
X121775260Y-100380800D02*
X121804482Y-101005400D01*
X121804482Y-101005400D02*
X121852189Y-101627700D01*
X121852189Y-101627700D02*
X121918261Y-102247200D01*
X121918261Y-102247200D02*
X122002579Y-102863500D01*
X122002579Y-102863500D02*
X122105023Y-103476000D01*
X122105023Y-103476000D02*
X122225473Y-104084300D01*
X122225473Y-104084300D02*
X122363811Y-104687900D01*
X122363811Y-104687900D02*
X122519916Y-105286300D01*
X122519916Y-105286300D02*
X122693668Y-105879000D01*
X122693668Y-105879000D02*
X122884950Y-106465500D01*
X122884950Y-106465500D02*
X123093640Y-107045400D01*
X123093640Y-107045400D02*
X123319620Y-107618000D01*
X123319620Y-107618000D02*
X123562770Y-108183100D01*
X123562770Y-108183100D02*
X123822960Y-108739900D01*
X123822960Y-108739900D02*
X124100090Y-109288200D01*
X124100090Y-109288200D02*
X124394030Y-109827400D01*
X124394030Y-109827400D02*
X124704660Y-110356900D01*
X124704660Y-110356900D02*
X125031860Y-110876400D01*
X125031860Y-110876400D02*
X125375520Y-111385200D01*
X125375520Y-111385200D02*
X125735500Y-111883100D01*
X125735500Y-111883100D02*
X126111700Y-112369300D01*
X179391900Y-90065160D02*
X179096400Y-89528520D01*
X179096400Y-89528520D02*
X178785600Y-89003590D01*
X178785600Y-89003590D02*
X178459800Y-88490760D01*
X178459800Y-88490760D02*
X178119400Y-87990360D01*
X178119400Y-87990360D02*
X177764600Y-87502760D01*
X177764600Y-87502760D02*
X177395900Y-87028310D01*
X177395900Y-87028310D02*
X177013600Y-86567380D01*
X177013600Y-86567380D02*
X176617900Y-86120310D01*
X176617900Y-86120310D02*
X176209100Y-85687470D01*
X176209100Y-85687470D02*
X175787700Y-85269220D01*
X175787700Y-85269220D02*
X175354000Y-84865910D01*
X175354000Y-84865910D02*
X174908200Y-84477900D01*
X174908200Y-84477900D02*
X174450800Y-84105540D01*
X174450800Y-84105540D02*
X173981900Y-83749200D01*
X173981900Y-83749200D02*
X173502000Y-83409230D01*
X173502000Y-83409230D02*
X173011400Y-83085990D01*
X173011400Y-83085990D02*
X172510400Y-82779830D01*
X172510400Y-82779830D02*
X171999300Y-82491120D01*
X171999300Y-82491120D02*
X171478500Y-82220210D01*
X171478500Y-82220210D02*
X170948300Y-81967450D01*
X170948300Y-81967450D02*
X170409000Y-81733220D01*
X170409000Y-81733220D02*
X169860900Y-81517850D01*
X169860900Y-81517850D02*
X169304400Y-81321716D01*
X169304400Y-81321716D02*
X168739800Y-81145168D01*
X168739800Y-81145168D02*
X168170200Y-80989277D01*
X168170200Y-80989277D02*
X167598600Y-80854781D01*
X167598600Y-80854781D02*
X167025500Y-80741550D01*
X167025500Y-80741550D02*
X166451400Y-80649454D01*
X166451400Y-80649454D02*
X165876700Y-80578361D01*
X165876700Y-80578361D02*
X165301800Y-80528141D01*
X165301800Y-80528141D02*
X164727200Y-80498664D01*
X164727200Y-80498664D02*
X164153400Y-80489797D01*
X164153400Y-80489797D02*
X163580800Y-80501411D01*
X163580800Y-80501411D02*
X163009800Y-80533374D01*
X163009800Y-80533374D02*
X162440900Y-80585555D01*
X162440900Y-80585555D02*
X161874500Y-80657825D01*
X161874500Y-80657825D02*
X161311100Y-80750052D01*
X161311100Y-80750052D02*
X160751100Y-80862106D01*
X160751100Y-80862106D02*
X160195000Y-80993854D01*
X160195000Y-80993854D02*
X159643200Y-81145168D01*
X159643200Y-81145168D02*
X159096100Y-81315915D01*
X159096100Y-81315915D02*
X158554300Y-81505970D01*
X158554300Y-81505970D02*
X158018100Y-81715190D01*
X158018100Y-81715190D02*
X157488000Y-81943450D01*
X157488000Y-81943450D02*
X156964500Y-82190630D01*
X156964500Y-82190630D02*
X156447900Y-82456580D01*
X156447900Y-82456580D02*
X155938800Y-82741190D01*
X155938800Y-82741190D02*
X155437600Y-83044310D01*
X155437600Y-83044310D02*
X154944700Y-83365820D01*
X154944700Y-83365820D02*
X154460600Y-83705590D01*
X154460600Y-83705590D02*
X153985700Y-84063480D01*
X153985700Y-84063480D02*
X153520400Y-84439360D01*
X153520400Y-84439360D02*
X153065300Y-84833120D01*
X153065300Y-84833120D02*
X152620800Y-85244600D01*
X152620800Y-85244600D02*
X152187200Y-85673690D01*
X152187200Y-85673690D02*
X151765200Y-86120250D01*
X151765200Y-86120250D02*
X151343100Y-85673670D01*
X151343100Y-85673670D02*
X150909500Y-85244570D01*
X150909500Y-85244570D02*
X150465000Y-84833070D01*
X150465000Y-84833070D02*
X150009900Y-84439310D01*
X150009900Y-84439310D02*
X149544700Y-84063410D01*
X149544700Y-84063410D02*
X149069800Y-83705500D01*
X149069800Y-83705500D02*
X148585600Y-83365730D01*
X148585600Y-83365730D02*
X148092800Y-83044200D01*
X148092800Y-83044200D02*
X147591500Y-82741070D01*
X147591500Y-82741070D02*
X147082400Y-82456460D01*
X147082400Y-82456460D02*
X146565900Y-82190490D01*
X146565900Y-82190490D02*
X146042300Y-81943310D01*
X146042300Y-81943310D02*
X145512200Y-81715040D01*
X145512200Y-81715040D02*
X144976000Y-81505810D01*
X144976000Y-81505810D02*
X144434200Y-81315753D01*
X144434200Y-81315753D02*
X143887100Y-81144999D01*
X143887100Y-81144999D02*
X143335300Y-80993681D01*
X143335300Y-80993681D02*
X142779200Y-80861928D01*
X142779200Y-80861928D02*
X142219200Y-80749871D01*
X142219200Y-80749871D02*
X141655800Y-80657641D01*
X141655800Y-80657641D02*
X141089400Y-80585370D01*
X141089400Y-80585370D02*
X140520400Y-80533187D01*
X140520400Y-80533187D02*
X139949400Y-80501223D01*
X139949400Y-80501223D02*
X139376800Y-80489610D01*
X139376800Y-80489610D02*
X138803000Y-80498477D01*
X138803000Y-80498477D02*
X138228400Y-80527957D01*
X138228400Y-80527957D02*
X137653500Y-80578180D01*
X137653500Y-80578180D02*
X137078800Y-80649276D01*
X137078800Y-80649276D02*
X136504600Y-80741376D01*
X136504600Y-80741376D02*
X135931600Y-80854612D01*
X135931600Y-80854612D02*
X135359900Y-80989114D01*
X135359900Y-80989114D02*
X134790300Y-81145012D01*
X134790300Y-81145012D02*
X134225700Y-81321564D01*
X134225700Y-81321564D02*
X133669200Y-81517700D01*
X133669200Y-81517700D02*
X133121100Y-81733070D01*
X133121100Y-81733070D02*
X132581800Y-81967320D01*
X132581800Y-81967320D02*
X132051600Y-82220070D01*
X132051600Y-82220070D02*
X131530770Y-82490990D01*
X131530770Y-82490990D02*
X131019700Y-82779710D01*
X131019700Y-82779710D02*
X130518690Y-83085870D01*
X130518690Y-83085870D02*
X130028080Y-83409110D01*
X130028080Y-83409110D02*
X129548180Y-83749090D01*
X129548180Y-83749090D02*
X129079340Y-84105430D01*
X129079340Y-84105430D02*
X128621860Y-84477790D01*
X128621860Y-84477790D02*
X128176090Y-84865810D01*
X128176090Y-84865810D02*
X127742340Y-85269120D01*
X127742340Y-85269120D02*
X127320940Y-85687380D01*
X127320940Y-85687380D02*
X126912230Y-86120220D01*
X126912230Y-86120220D02*
X126516520Y-86567290D01*
X126516520Y-86567290D02*
X126134140Y-87028230D01*
X126134140Y-87028230D02*
X125765430Y-87502680D01*
X125765430Y-87502680D02*
X125410700Y-87990280D01*
X125410700Y-87990280D02*
X125070280Y-88490680D01*
X125070280Y-88490680D02*
X124744500Y-89003520D01*
X124744500Y-89003520D02*
X124433690Y-89528450D01*
X124433690Y-89528450D02*
X124138180Y-90065100D01*
X124138180Y-90065100D02*
X123858280Y-90613100D01*
X123858280Y-90613100D02*
X123594330Y-91172100D01*
X123594330Y-91172100D02*
X123346660Y-91741800D01*
X123346660Y-91741800D02*
X123115580Y-92321800D01*
X123115580Y-92321800D02*
X122901430Y-92911700D01*
X122901430Y-92911700D02*
X122704541Y-93511200D01*
X122704541Y-93511200D02*
X122525227Y-94119900D01*
X122525227Y-94119900D02*
X122363821Y-94737500D01*
X122363821Y-94737500D02*
X122363821Y-94737500D01*
X122363821Y-94737500D02*
X122363821Y-94737500D01*
M02*
