%TF.GenerationSoftware,KiCad,Pcbnew,5.1.8*%
%TF.CreationDate,2021-02-28T21:38:59-05:00*%
%TF.ProjectId,ECG,4543472e-6b69-4636-9164-5f7063625858,rev?*%
%TF.SameCoordinates,Original*%
%TF.FileFunction,Soldermask,Top*%
%TF.FilePolarity,Negative*%
%FSLAX46Y46*%
G04 Gerber Fmt 4.6, Leading zero omitted, Abs format (unit mm)*
G04 Created by KiCad (PCBNEW 5.1.8) date 2021-02-28 21:38:59*
%MOMM*%
%LPD*%
G01*
G04 APERTURE LIST*
%TA.AperFunction,Profile*%
%ADD10C,0.100000*%
%TD*%
%ADD11C,0.699440*%
%ADD12C,0.100000*%
%ADD13O,1.450000X1.450000*%
%ADD14C,1.300000*%
%ADD15O,2.716000X1.408000*%
%ADD16C,1.608000*%
%ADD17O,1.408000X2.716000*%
%ADD18C,1.600000*%
%ADD19C,1.408000*%
G04 APERTURE END LIST*
D10*
X177794600Y-111882900D02*
X178154600Y-111385100D01*
X178154600Y-111385100D02*
X178498200Y-110876200D01*
X178498200Y-110876200D02*
X178825400Y-110356700D01*
X178825400Y-110356700D02*
X179136100Y-109827200D01*
X179136100Y-109827200D02*
X179430000Y-109288000D01*
X179430000Y-109288000D02*
X179707100Y-108739800D01*
X179707100Y-108739800D02*
X179967300Y-108182900D01*
X179967300Y-108182900D02*
X180210400Y-107617900D01*
X126111700Y-112369300D02*
X126503990Y-112843500D01*
X126503990Y-112843500D02*
X126912260Y-113305200D01*
X126912260Y-113305200D02*
X151765000Y-140490000D01*
X151765000Y-140490000D02*
X176617900Y-113305000D01*
X176617900Y-113305000D02*
X177026200Y-112843300D01*
X177026200Y-112843300D02*
X177418400Y-112369100D01*
X177418400Y-112369100D02*
X177794600Y-111882900D01*
X180210400Y-107617900D02*
X180436400Y-107045200D01*
X180436400Y-107045200D02*
X180645100Y-106465400D01*
X180645100Y-106465400D02*
X180836400Y-105878900D01*
X180836400Y-105878900D02*
X181010100Y-105286200D01*
X181010100Y-105286200D02*
X181166200Y-104687800D01*
X181166200Y-104687800D02*
X181304500Y-104084200D01*
X181304500Y-104084200D02*
X181425000Y-103475900D01*
X181425000Y-103475900D02*
X181527400Y-102863400D01*
X181684400Y-97869400D02*
X181619400Y-97240700D01*
X181619400Y-97240700D02*
X181535200Y-96612700D01*
X181535200Y-96612700D02*
X181431700Y-95985900D01*
X181431700Y-95985900D02*
X181308700Y-95360700D01*
X181308700Y-95360700D02*
X181166200Y-94737600D01*
X181166200Y-94737600D02*
X181004800Y-94120000D01*
X181004800Y-94120000D02*
X180825500Y-93511300D01*
X180825500Y-93511300D02*
X180628600Y-92911800D01*
X181527400Y-102863400D02*
X181611700Y-102247100D01*
X181611700Y-102247100D02*
X181677800Y-101627600D01*
X181677800Y-101627600D02*
X181725500Y-101005300D01*
X181725500Y-101005300D02*
X181754700Y-100380700D01*
X181754700Y-100380700D02*
X181765400Y-99754300D01*
X181765400Y-99754300D02*
X181757300Y-99126700D01*
X181757300Y-99126700D02*
X181730300Y-98498200D01*
X181730300Y-98498200D02*
X181684400Y-97869400D01*
X180628600Y-92911800D02*
X180414500Y-92321900D01*
X180414500Y-92321900D02*
X180183400Y-91741900D01*
X180183400Y-91741900D02*
X179935700Y-91172200D01*
X179935700Y-91172200D02*
X179671800Y-90613200D01*
X179671800Y-90613200D02*
X179391900Y-90065160D01*
X122363821Y-94737500D02*
X122221297Y-95360600D01*
X122221297Y-95360600D02*
X122098333Y-95985900D01*
X122098333Y-95985900D02*
X121994812Y-96612700D01*
X121994812Y-96612700D02*
X121910612Y-97240700D01*
X121910612Y-97240700D02*
X121845615Y-97869400D01*
X121845615Y-97869400D02*
X121799701Y-98498200D01*
X121799701Y-98498200D02*
X121772750Y-99126700D01*
X121772750Y-99126700D02*
X121764643Y-99754400D01*
X121764643Y-99754400D02*
X121775260Y-100380800D01*
X121775260Y-100380800D02*
X121804482Y-101005400D01*
X121804482Y-101005400D02*
X121852189Y-101627700D01*
X121852189Y-101627700D02*
X121918261Y-102247200D01*
X121918261Y-102247200D02*
X122002579Y-102863500D01*
X122002579Y-102863500D02*
X122105023Y-103476000D01*
X122105023Y-103476000D02*
X122225473Y-104084300D01*
X122225473Y-104084300D02*
X122363811Y-104687900D01*
X122363811Y-104687900D02*
X122519916Y-105286300D01*
X122519916Y-105286300D02*
X122693668Y-105879000D01*
X122693668Y-105879000D02*
X122884950Y-106465500D01*
X122884950Y-106465500D02*
X123093640Y-107045400D01*
X123093640Y-107045400D02*
X123319620Y-107618000D01*
X123319620Y-107618000D02*
X123562770Y-108183100D01*
X123562770Y-108183100D02*
X123822960Y-108739900D01*
X123822960Y-108739900D02*
X124100090Y-109288200D01*
X124100090Y-109288200D02*
X124394030Y-109827400D01*
X124394030Y-109827400D02*
X124704660Y-110356900D01*
X124704660Y-110356900D02*
X125031860Y-110876400D01*
X125031860Y-110876400D02*
X125375520Y-111385200D01*
X125375520Y-111385200D02*
X125735500Y-111883100D01*
X125735500Y-111883100D02*
X126111700Y-112369300D01*
X179391900Y-90065160D02*
X179096400Y-89528520D01*
X179096400Y-89528520D02*
X178785600Y-89003590D01*
X178785600Y-89003590D02*
X178459800Y-88490760D01*
X178459800Y-88490760D02*
X178119400Y-87990360D01*
X178119400Y-87990360D02*
X177764600Y-87502760D01*
X177764600Y-87502760D02*
X177395900Y-87028310D01*
X177395900Y-87028310D02*
X177013600Y-86567380D01*
X177013600Y-86567380D02*
X176617900Y-86120310D01*
X176617900Y-86120310D02*
X176209100Y-85687470D01*
X176209100Y-85687470D02*
X175787700Y-85269220D01*
X175787700Y-85269220D02*
X175354000Y-84865910D01*
X175354000Y-84865910D02*
X174908200Y-84477900D01*
X174908200Y-84477900D02*
X174450800Y-84105540D01*
X174450800Y-84105540D02*
X173981900Y-83749200D01*
X173981900Y-83749200D02*
X173502000Y-83409230D01*
X173502000Y-83409230D02*
X173011400Y-83085990D01*
X173011400Y-83085990D02*
X172510400Y-82779830D01*
X172510400Y-82779830D02*
X171999300Y-82491120D01*
X171999300Y-82491120D02*
X171478500Y-82220210D01*
X171478500Y-82220210D02*
X170948300Y-81967450D01*
X170948300Y-81967450D02*
X170409000Y-81733220D01*
X170409000Y-81733220D02*
X169860900Y-81517850D01*
X169860900Y-81517850D02*
X169304400Y-81321716D01*
X169304400Y-81321716D02*
X168739800Y-81145168D01*
X168739800Y-81145168D02*
X168170200Y-80989277D01*
X168170200Y-80989277D02*
X167598600Y-80854781D01*
X167598600Y-80854781D02*
X167025500Y-80741550D01*
X167025500Y-80741550D02*
X166451400Y-80649454D01*
X166451400Y-80649454D02*
X165876700Y-80578361D01*
X165876700Y-80578361D02*
X165301800Y-80528141D01*
X165301800Y-80528141D02*
X164727200Y-80498664D01*
X164727200Y-80498664D02*
X164153400Y-80489797D01*
X164153400Y-80489797D02*
X163580800Y-80501411D01*
X163580800Y-80501411D02*
X163009800Y-80533374D01*
X163009800Y-80533374D02*
X162440900Y-80585555D01*
X162440900Y-80585555D02*
X161874500Y-80657825D01*
X161874500Y-80657825D02*
X161311100Y-80750052D01*
X161311100Y-80750052D02*
X160751100Y-80862106D01*
X160751100Y-80862106D02*
X160195000Y-80993854D01*
X160195000Y-80993854D02*
X159643200Y-81145168D01*
X159643200Y-81145168D02*
X159096100Y-81315915D01*
X159096100Y-81315915D02*
X158554300Y-81505970D01*
X158554300Y-81505970D02*
X158018100Y-81715190D01*
X158018100Y-81715190D02*
X157488000Y-81943450D01*
X157488000Y-81943450D02*
X156964500Y-82190630D01*
X156964500Y-82190630D02*
X156447900Y-82456580D01*
X156447900Y-82456580D02*
X155938800Y-82741190D01*
X155938800Y-82741190D02*
X155437600Y-83044310D01*
X155437600Y-83044310D02*
X154944700Y-83365820D01*
X154944700Y-83365820D02*
X154460600Y-83705590D01*
X154460600Y-83705590D02*
X153985700Y-84063480D01*
X153985700Y-84063480D02*
X153520400Y-84439360D01*
X153520400Y-84439360D02*
X153065300Y-84833120D01*
X153065300Y-84833120D02*
X152620800Y-85244600D01*
X152620800Y-85244600D02*
X152187200Y-85673690D01*
X152187200Y-85673690D02*
X151765200Y-86120250D01*
X151765200Y-86120250D02*
X151343100Y-85673670D01*
X151343100Y-85673670D02*
X150909500Y-85244570D01*
X150909500Y-85244570D02*
X150465000Y-84833070D01*
X150465000Y-84833070D02*
X150009900Y-84439310D01*
X150009900Y-84439310D02*
X149544700Y-84063410D01*
X149544700Y-84063410D02*
X149069800Y-83705500D01*
X149069800Y-83705500D02*
X148585600Y-83365730D01*
X148585600Y-83365730D02*
X148092800Y-83044200D01*
X148092800Y-83044200D02*
X147591500Y-82741070D01*
X147591500Y-82741070D02*
X147082400Y-82456460D01*
X147082400Y-82456460D02*
X146565900Y-82190490D01*
X146565900Y-82190490D02*
X146042300Y-81943310D01*
X146042300Y-81943310D02*
X145512200Y-81715040D01*
X145512200Y-81715040D02*
X144976000Y-81505810D01*
X144976000Y-81505810D02*
X144434200Y-81315753D01*
X144434200Y-81315753D02*
X143887100Y-81144999D01*
X143887100Y-81144999D02*
X143335300Y-80993681D01*
X143335300Y-80993681D02*
X142779200Y-80861928D01*
X142779200Y-80861928D02*
X142219200Y-80749871D01*
X142219200Y-80749871D02*
X141655800Y-80657641D01*
X141655800Y-80657641D02*
X141089400Y-80585370D01*
X141089400Y-80585370D02*
X140520400Y-80533187D01*
X140520400Y-80533187D02*
X139949400Y-80501223D01*
X139949400Y-80501223D02*
X139376800Y-80489610D01*
X139376800Y-80489610D02*
X138803000Y-80498477D01*
X138803000Y-80498477D02*
X138228400Y-80527957D01*
X138228400Y-80527957D02*
X137653500Y-80578180D01*
X137653500Y-80578180D02*
X137078800Y-80649276D01*
X137078800Y-80649276D02*
X136504600Y-80741376D01*
X136504600Y-80741376D02*
X135931600Y-80854612D01*
X135931600Y-80854612D02*
X135359900Y-80989114D01*
X135359900Y-80989114D02*
X134790300Y-81145012D01*
X134790300Y-81145012D02*
X134225700Y-81321564D01*
X134225700Y-81321564D02*
X133669200Y-81517700D01*
X133669200Y-81517700D02*
X133121100Y-81733070D01*
X133121100Y-81733070D02*
X132581800Y-81967320D01*
X132581800Y-81967320D02*
X132051600Y-82220070D01*
X132051600Y-82220070D02*
X131530770Y-82490990D01*
X131530770Y-82490990D02*
X131019700Y-82779710D01*
X131019700Y-82779710D02*
X130518690Y-83085870D01*
X130518690Y-83085870D02*
X130028080Y-83409110D01*
X130028080Y-83409110D02*
X129548180Y-83749090D01*
X129548180Y-83749090D02*
X129079340Y-84105430D01*
X129079340Y-84105430D02*
X128621860Y-84477790D01*
X128621860Y-84477790D02*
X128176090Y-84865810D01*
X128176090Y-84865810D02*
X127742340Y-85269120D01*
X127742340Y-85269120D02*
X127320940Y-85687380D01*
X127320940Y-85687380D02*
X126912230Y-86120220D01*
X126912230Y-86120220D02*
X126516520Y-86567290D01*
X126516520Y-86567290D02*
X126134140Y-87028230D01*
X126134140Y-87028230D02*
X125765430Y-87502680D01*
X125765430Y-87502680D02*
X125410700Y-87990280D01*
X125410700Y-87990280D02*
X125070280Y-88490680D01*
X125070280Y-88490680D02*
X124744500Y-89003520D01*
X124744500Y-89003520D02*
X124433690Y-89528450D01*
X124433690Y-89528450D02*
X124138180Y-90065100D01*
X124138180Y-90065100D02*
X123858280Y-90613100D01*
X123858280Y-90613100D02*
X123594330Y-91172100D01*
X123594330Y-91172100D02*
X123346660Y-91741800D01*
X123346660Y-91741800D02*
X123115580Y-92321800D01*
X123115580Y-92321800D02*
X122901430Y-92911700D01*
X122901430Y-92911700D02*
X122704541Y-93511200D01*
X122704541Y-93511200D02*
X122525227Y-94119900D01*
X122525227Y-94119900D02*
X122363821Y-94737500D01*
X122363821Y-94737500D02*
X122363821Y-94737500D01*
X122363821Y-94737500D02*
X122363821Y-94737500D01*
%TO.C,Q1*%
G36*
G01*
X154387600Y-88095200D02*
X155187600Y-88095200D01*
G75*
G02*
X155237600Y-88145200I0J-50000D01*
G01*
X155237600Y-89045200D01*
G75*
G02*
X155187600Y-89095200I-50000J0D01*
G01*
X154387600Y-89095200D01*
G75*
G02*
X154337600Y-89045200I0J50000D01*
G01*
X154337600Y-88145200D01*
G75*
G02*
X154387600Y-88095200I50000J0D01*
G01*
G37*
G36*
G01*
X153437600Y-86095200D02*
X154237600Y-86095200D01*
G75*
G02*
X154287600Y-86145200I0J-50000D01*
G01*
X154287600Y-87045200D01*
G75*
G02*
X154237600Y-87095200I-50000J0D01*
G01*
X153437600Y-87095200D01*
G75*
G02*
X153387600Y-87045200I0J50000D01*
G01*
X153387600Y-86145200D01*
G75*
G02*
X153437600Y-86095200I50000J0D01*
G01*
G37*
G36*
G01*
X155337600Y-86095200D02*
X156137600Y-86095200D01*
G75*
G02*
X156187600Y-86145200I0J-50000D01*
G01*
X156187600Y-87045200D01*
G75*
G02*
X156137600Y-87095200I-50000J0D01*
G01*
X155337600Y-87095200D01*
G75*
G02*
X155287600Y-87045200I0J50000D01*
G01*
X155287600Y-86145200D01*
G75*
G02*
X155337600Y-86095200I50000J0D01*
G01*
G37*
%TD*%
%TO.C,U9*%
G36*
G01*
X161887000Y-105849000D02*
X161887000Y-105449000D01*
G75*
G02*
X161937000Y-105399000I50000J0D01*
G01*
X163437000Y-105399000D01*
G75*
G02*
X163487000Y-105449000I0J-50000D01*
G01*
X163487000Y-105849000D01*
G75*
G02*
X163437000Y-105899000I-50000J0D01*
G01*
X161937000Y-105899000D01*
G75*
G02*
X161887000Y-105849000I0J50000D01*
G01*
G37*
G36*
G01*
X161887000Y-106499000D02*
X161887000Y-106099000D01*
G75*
G02*
X161937000Y-106049000I50000J0D01*
G01*
X163437000Y-106049000D01*
G75*
G02*
X163487000Y-106099000I0J-50000D01*
G01*
X163487000Y-106499000D01*
G75*
G02*
X163437000Y-106549000I-50000J0D01*
G01*
X161937000Y-106549000D01*
G75*
G02*
X161887000Y-106499000I0J50000D01*
G01*
G37*
G36*
G01*
X161887000Y-107149000D02*
X161887000Y-106749000D01*
G75*
G02*
X161937000Y-106699000I50000J0D01*
G01*
X163437000Y-106699000D01*
G75*
G02*
X163487000Y-106749000I0J-50000D01*
G01*
X163487000Y-107149000D01*
G75*
G02*
X163437000Y-107199000I-50000J0D01*
G01*
X161937000Y-107199000D01*
G75*
G02*
X161887000Y-107149000I0J50000D01*
G01*
G37*
G36*
G01*
X159227000Y-107149000D02*
X159227000Y-106749000D01*
G75*
G02*
X159277000Y-106699000I50000J0D01*
G01*
X160777000Y-106699000D01*
G75*
G02*
X160827000Y-106749000I0J-50000D01*
G01*
X160827000Y-107149000D01*
G75*
G02*
X160777000Y-107199000I-50000J0D01*
G01*
X159277000Y-107199000D01*
G75*
G02*
X159227000Y-107149000I0J50000D01*
G01*
G37*
G36*
G01*
X159227000Y-106499000D02*
X159227000Y-106099000D01*
G75*
G02*
X159277000Y-106049000I50000J0D01*
G01*
X160777000Y-106049000D01*
G75*
G02*
X160827000Y-106099000I0J-50000D01*
G01*
X160827000Y-106499000D01*
G75*
G02*
X160777000Y-106549000I-50000J0D01*
G01*
X159277000Y-106549000D01*
G75*
G02*
X159227000Y-106499000I0J50000D01*
G01*
G37*
G36*
G01*
X159227000Y-105849000D02*
X159227000Y-105449000D01*
G75*
G02*
X159277000Y-105399000I50000J0D01*
G01*
X160777000Y-105399000D01*
G75*
G02*
X160827000Y-105449000I0J-50000D01*
G01*
X160827000Y-105849000D01*
G75*
G02*
X160777000Y-105899000I-50000J0D01*
G01*
X159277000Y-105899000D01*
G75*
G02*
X159227000Y-105849000I0J50000D01*
G01*
G37*
%TD*%
%TO.C,R28*%
G36*
G01*
X172310168Y-114601000D02*
X171351832Y-114601000D01*
G75*
G02*
X171081000Y-114330168I0J270832D01*
G01*
X171081000Y-113571832D01*
G75*
G02*
X171351832Y-113301000I270832J0D01*
G01*
X172310168Y-113301000D01*
G75*
G02*
X172581000Y-113571832I0J-270832D01*
G01*
X172581000Y-114330168D01*
G75*
G02*
X172310168Y-114601000I-270832J0D01*
G01*
G37*
G36*
G01*
X172310168Y-116601000D02*
X171351832Y-116601000D01*
G75*
G02*
X171081000Y-116330168I0J270832D01*
G01*
X171081000Y-115571832D01*
G75*
G02*
X171351832Y-115301000I270832J0D01*
G01*
X172310168Y-115301000D01*
G75*
G02*
X172581000Y-115571832I0J-270832D01*
G01*
X172581000Y-116330168D01*
G75*
G02*
X172310168Y-116601000I-270832J0D01*
G01*
G37*
%TD*%
%TO.C,R25*%
G36*
G01*
X165382832Y-112126000D02*
X166341168Y-112126000D01*
G75*
G02*
X166612000Y-112396832I0J-270832D01*
G01*
X166612000Y-113155168D01*
G75*
G02*
X166341168Y-113426000I-270832J0D01*
G01*
X165382832Y-113426000D01*
G75*
G02*
X165112000Y-113155168I0J270832D01*
G01*
X165112000Y-112396832D01*
G75*
G02*
X165382832Y-112126000I270832J0D01*
G01*
G37*
G36*
G01*
X165382832Y-110126000D02*
X166341168Y-110126000D01*
G75*
G02*
X166612000Y-110396832I0J-270832D01*
G01*
X166612000Y-111155168D01*
G75*
G02*
X166341168Y-111426000I-270832J0D01*
G01*
X165382832Y-111426000D01*
G75*
G02*
X165112000Y-111155168I0J270832D01*
G01*
X165112000Y-110396832D01*
G75*
G02*
X165382832Y-110126000I270832J0D01*
G01*
G37*
%TD*%
%TO.C,R24*%
G36*
G01*
X168373168Y-111426000D02*
X167414832Y-111426000D01*
G75*
G02*
X167144000Y-111155168I0J270832D01*
G01*
X167144000Y-110396832D01*
G75*
G02*
X167414832Y-110126000I270832J0D01*
G01*
X168373168Y-110126000D01*
G75*
G02*
X168644000Y-110396832I0J-270832D01*
G01*
X168644000Y-111155168D01*
G75*
G02*
X168373168Y-111426000I-270832J0D01*
G01*
G37*
G36*
G01*
X168373168Y-113426000D02*
X167414832Y-113426000D01*
G75*
G02*
X167144000Y-113155168I0J270832D01*
G01*
X167144000Y-112396832D01*
G75*
G02*
X167414832Y-112126000I270832J0D01*
G01*
X168373168Y-112126000D01*
G75*
G02*
X168644000Y-112396832I0J-270832D01*
G01*
X168644000Y-113155168D01*
G75*
G02*
X168373168Y-113426000I-270832J0D01*
G01*
G37*
%TD*%
%TO.C,C3*%
G36*
G01*
X126288625Y-105140000D02*
X127457375Y-105140000D01*
G75*
G02*
X127723000Y-105405625I0J-265625D01*
G01*
X127723000Y-108474375D01*
G75*
G02*
X127457375Y-108740000I-265625J0D01*
G01*
X126288625Y-108740000D01*
G75*
G02*
X126023000Y-108474375I0J265625D01*
G01*
X126023000Y-105405625D01*
G75*
G02*
X126288625Y-105140000I265625J0D01*
G01*
G37*
G36*
G01*
X126288625Y-99540000D02*
X127457375Y-99540000D01*
G75*
G02*
X127723000Y-99805625I0J-265625D01*
G01*
X127723000Y-102874375D01*
G75*
G02*
X127457375Y-103140000I-265625J0D01*
G01*
X126288625Y-103140000D01*
G75*
G02*
X126023000Y-102874375I0J265625D01*
G01*
X126023000Y-99805625D01*
G75*
G02*
X126288625Y-99540000I265625J0D01*
G01*
G37*
%TD*%
D11*
%TO.C,U8*%
X166209980Y-101450140D03*
X167408860Y-101450140D03*
X168610280Y-101450140D03*
X169809160Y-101450140D03*
X171010580Y-101450140D03*
X172209460Y-101450140D03*
X166209980Y-99951540D03*
X167408860Y-99951540D03*
X168610280Y-99951540D03*
X169809160Y-99951540D03*
X171010580Y-99951540D03*
X172209460Y-99951540D03*
X166209980Y-98450400D03*
X167408860Y-98450400D03*
X168610280Y-98450400D03*
X169809160Y-98450400D03*
X171010580Y-98450400D03*
X172209460Y-98450400D03*
X166209980Y-96951800D03*
X167408860Y-96951800D03*
X168610280Y-96951800D03*
X169809160Y-96951800D03*
X171010580Y-96951800D03*
X172209460Y-96951800D03*
G36*
G01*
X172660310Y-105400640D02*
X173358810Y-105400640D01*
G75*
G02*
X173408810Y-105450640I0J-50000D01*
G01*
X173408810Y-106949240D01*
G75*
G02*
X173358810Y-106999240I-50000J0D01*
G01*
X172660310Y-106999240D01*
G75*
G02*
X172610310Y-106949240I0J50000D01*
G01*
X172610310Y-105450640D01*
G75*
G02*
X172660310Y-105400640I50000J0D01*
G01*
G37*
G36*
G01*
X171560490Y-105400640D02*
X172258990Y-105400640D01*
G75*
G02*
X172308990Y-105450640I0J-50000D01*
G01*
X172308990Y-106949240D01*
G75*
G02*
X172258990Y-106999240I-50000J0D01*
G01*
X171560490Y-106999240D01*
G75*
G02*
X171510490Y-106949240I0J50000D01*
G01*
X171510490Y-105450640D01*
G75*
G02*
X171560490Y-105400640I50000J0D01*
G01*
G37*
G36*
G01*
X170460670Y-105400640D02*
X171159170Y-105400640D01*
G75*
G02*
X171209170Y-105450640I0J-50000D01*
G01*
X171209170Y-106949240D01*
G75*
G02*
X171159170Y-106999240I-50000J0D01*
G01*
X170460670Y-106999240D01*
G75*
G02*
X170410670Y-106949240I0J50000D01*
G01*
X170410670Y-105450640D01*
G75*
G02*
X170460670Y-105400640I50000J0D01*
G01*
G37*
G36*
G01*
X169360850Y-105400640D02*
X170059350Y-105400640D01*
G75*
G02*
X170109350Y-105450640I0J-50000D01*
G01*
X170109350Y-106949240D01*
G75*
G02*
X170059350Y-106999240I-50000J0D01*
G01*
X169360850Y-106999240D01*
G75*
G02*
X169310850Y-106949240I0J50000D01*
G01*
X169310850Y-105450640D01*
G75*
G02*
X169360850Y-105400640I50000J0D01*
G01*
G37*
G36*
G01*
X168261030Y-105400640D02*
X168959530Y-105400640D01*
G75*
G02*
X169009530Y-105450640I0J-50000D01*
G01*
X169009530Y-106949240D01*
G75*
G02*
X168959530Y-106999240I-50000J0D01*
G01*
X168261030Y-106999240D01*
G75*
G02*
X168211030Y-106949240I0J50000D01*
G01*
X168211030Y-105450640D01*
G75*
G02*
X168261030Y-105400640I50000J0D01*
G01*
G37*
G36*
G01*
X167161210Y-105400640D02*
X167859710Y-105400640D01*
G75*
G02*
X167909710Y-105450640I0J-50000D01*
G01*
X167909710Y-106949240D01*
G75*
G02*
X167859710Y-106999240I-50000J0D01*
G01*
X167161210Y-106999240D01*
G75*
G02*
X167111210Y-106949240I0J50000D01*
G01*
X167111210Y-105450640D01*
G75*
G02*
X167161210Y-105400640I50000J0D01*
G01*
G37*
G36*
G01*
X166061390Y-105400640D02*
X166759890Y-105400640D01*
G75*
G02*
X166809890Y-105450640I0J-50000D01*
G01*
X166809890Y-106949240D01*
G75*
G02*
X166759890Y-106999240I-50000J0D01*
G01*
X166061390Y-106999240D01*
G75*
G02*
X166011390Y-106949240I0J50000D01*
G01*
X166011390Y-105450640D01*
G75*
G02*
X166061390Y-105400640I50000J0D01*
G01*
G37*
G36*
G01*
X164961570Y-105400640D02*
X165660070Y-105400640D01*
G75*
G02*
X165710070Y-105450640I0J-50000D01*
G01*
X165710070Y-106949240D01*
G75*
G02*
X165660070Y-106999240I-50000J0D01*
G01*
X164961570Y-106999240D01*
G75*
G02*
X164911570Y-106949240I0J50000D01*
G01*
X164911570Y-105450640D01*
G75*
G02*
X164961570Y-105400640I50000J0D01*
G01*
G37*
G36*
G01*
X164961570Y-91402700D02*
X165660070Y-91402700D01*
G75*
G02*
X165710070Y-91452700I0J-50000D01*
G01*
X165710070Y-92951300D01*
G75*
G02*
X165660070Y-93001300I-50000J0D01*
G01*
X164961570Y-93001300D01*
G75*
G02*
X164911570Y-92951300I0J50000D01*
G01*
X164911570Y-91452700D01*
G75*
G02*
X164961570Y-91402700I50000J0D01*
G01*
G37*
G36*
G01*
X166061390Y-91402700D02*
X166759890Y-91402700D01*
G75*
G02*
X166809890Y-91452700I0J-50000D01*
G01*
X166809890Y-92951300D01*
G75*
G02*
X166759890Y-93001300I-50000J0D01*
G01*
X166061390Y-93001300D01*
G75*
G02*
X166011390Y-92951300I0J50000D01*
G01*
X166011390Y-91452700D01*
G75*
G02*
X166061390Y-91402700I50000J0D01*
G01*
G37*
G36*
G01*
X167161210Y-91402700D02*
X167859710Y-91402700D01*
G75*
G02*
X167909710Y-91452700I0J-50000D01*
G01*
X167909710Y-92951300D01*
G75*
G02*
X167859710Y-93001300I-50000J0D01*
G01*
X167161210Y-93001300D01*
G75*
G02*
X167111210Y-92951300I0J50000D01*
G01*
X167111210Y-91452700D01*
G75*
G02*
X167161210Y-91402700I50000J0D01*
G01*
G37*
G36*
G01*
X168261030Y-91402700D02*
X168959530Y-91402700D01*
G75*
G02*
X169009530Y-91452700I0J-50000D01*
G01*
X169009530Y-92951300D01*
G75*
G02*
X168959530Y-93001300I-50000J0D01*
G01*
X168261030Y-93001300D01*
G75*
G02*
X168211030Y-92951300I0J50000D01*
G01*
X168211030Y-91452700D01*
G75*
G02*
X168261030Y-91402700I50000J0D01*
G01*
G37*
G36*
G01*
X169360850Y-91402700D02*
X170059350Y-91402700D01*
G75*
G02*
X170109350Y-91452700I0J-50000D01*
G01*
X170109350Y-92951300D01*
G75*
G02*
X170059350Y-93001300I-50000J0D01*
G01*
X169360850Y-93001300D01*
G75*
G02*
X169310850Y-92951300I0J50000D01*
G01*
X169310850Y-91452700D01*
G75*
G02*
X169360850Y-91402700I50000J0D01*
G01*
G37*
G36*
G01*
X170460670Y-91402700D02*
X171159170Y-91402700D01*
G75*
G02*
X171209170Y-91452700I0J-50000D01*
G01*
X171209170Y-92951300D01*
G75*
G02*
X171159170Y-93001300I-50000J0D01*
G01*
X170460670Y-93001300D01*
G75*
G02*
X170410670Y-92951300I0J50000D01*
G01*
X170410670Y-91452700D01*
G75*
G02*
X170460670Y-91402700I50000J0D01*
G01*
G37*
G36*
G01*
X171560490Y-91402700D02*
X172258990Y-91402700D01*
G75*
G02*
X172308990Y-91452700I0J-50000D01*
G01*
X172308990Y-92951300D01*
G75*
G02*
X172258990Y-93001300I-50000J0D01*
G01*
X171560490Y-93001300D01*
G75*
G02*
X171510490Y-92951300I0J50000D01*
G01*
X171510490Y-91452700D01*
G75*
G02*
X171560490Y-91402700I50000J0D01*
G01*
G37*
G36*
G01*
X173358810Y-93001300D02*
X172660310Y-93001300D01*
G75*
G02*
X172610310Y-92951300I0J50000D01*
G01*
X172610310Y-91452700D01*
G75*
G02*
X172660310Y-91402700I50000J0D01*
G01*
X173358810Y-91402700D01*
G75*
G02*
X173408810Y-91452700I0J-50000D01*
G01*
X173408810Y-92951300D01*
G75*
G02*
X173358810Y-93001300I-50000J0D01*
G01*
G37*
%TD*%
D12*
%TO.C,L1*%
G36*
X127524268Y-98670259D02*
G01*
X127523293Y-98670163D01*
X127513656Y-98668244D01*
X127512718Y-98667959D01*
X127503698Y-98664223D01*
X127502833Y-98663761D01*
X127494702Y-98658334D01*
X127493944Y-98657713D01*
X127486954Y-98650723D01*
X127486333Y-98649965D01*
X127480906Y-98641834D01*
X127480444Y-98640969D01*
X127476708Y-98631949D01*
X127476423Y-98631011D01*
X127474504Y-98621374D01*
X127474408Y-98620399D01*
X127474167Y-98615500D01*
X127474167Y-96858667D01*
X127474408Y-96853768D01*
X127474504Y-96852793D01*
X127476423Y-96843156D01*
X127476708Y-96842218D01*
X127480444Y-96833198D01*
X127480906Y-96832333D01*
X127486333Y-96824202D01*
X127486954Y-96823444D01*
X127493944Y-96816454D01*
X127494702Y-96815833D01*
X127502833Y-96810406D01*
X127503698Y-96809944D01*
X127512718Y-96806208D01*
X127513656Y-96805923D01*
X127523293Y-96804004D01*
X127524268Y-96803908D01*
X127529167Y-96803667D01*
X128225184Y-96803667D01*
X128230083Y-96803908D01*
X128231058Y-96804004D01*
X128240695Y-96805923D01*
X128241633Y-96806208D01*
X128250653Y-96809944D01*
X128251518Y-96810406D01*
X128259649Y-96815833D01*
X128260407Y-96816454D01*
X128267397Y-96823444D01*
X128268018Y-96824202D01*
X128272198Y-96830134D01*
X128272451Y-96830555D01*
X128273691Y-96832742D01*
X128337867Y-96952820D01*
X128452725Y-97136688D01*
X128597757Y-97320066D01*
X128763829Y-97493012D01*
X128941168Y-97644725D01*
X129021159Y-97702519D01*
X129179513Y-97798053D01*
X129363199Y-97889166D01*
X129555051Y-97967997D01*
X129738491Y-98027009D01*
X129821412Y-98047965D01*
X129892841Y-98062421D01*
X129964443Y-98071819D01*
X130048086Y-98077343D01*
X130154982Y-98079919D01*
X130280798Y-98080494D01*
X130417711Y-98079782D01*
X130522021Y-98076975D01*
X130604089Y-98071137D01*
X130675175Y-98061332D01*
X130747210Y-98046336D01*
X130821851Y-98027347D01*
X131004820Y-97968658D01*
X131196657Y-97889985D01*
X131380508Y-97798946D01*
X131539165Y-97703427D01*
X131717966Y-97565300D01*
X131890170Y-97400910D01*
X132046082Y-97220857D01*
X132175937Y-97035860D01*
X132223339Y-96953682D01*
X132287976Y-96832742D01*
X132290510Y-96828516D01*
X132291055Y-96827701D01*
X132297263Y-96820140D01*
X132297956Y-96819447D01*
X132305552Y-96813215D01*
X132306367Y-96812671D01*
X132314942Y-96808085D01*
X132315847Y-96807709D01*
X132325294Y-96804839D01*
X132326256Y-96804648D01*
X132333547Y-96803751D01*
X132334037Y-96803727D01*
X132336483Y-96803667D01*
X133032500Y-96803667D01*
X133037399Y-96803908D01*
X133038374Y-96804004D01*
X133048011Y-96805923D01*
X133048949Y-96806208D01*
X133057969Y-96809944D01*
X133058834Y-96810406D01*
X133066965Y-96815833D01*
X133067723Y-96816454D01*
X133074713Y-96823444D01*
X133075334Y-96824202D01*
X133080761Y-96832333D01*
X133081223Y-96833198D01*
X133084959Y-96842218D01*
X133085244Y-96843156D01*
X133087163Y-96852793D01*
X133087259Y-96853768D01*
X133087500Y-96858667D01*
X133087500Y-98615500D01*
X133087259Y-98620399D01*
X133087163Y-98621374D01*
X133085244Y-98631011D01*
X133084959Y-98631949D01*
X133081223Y-98640969D01*
X133080761Y-98641834D01*
X133075334Y-98649965D01*
X133074713Y-98650723D01*
X133067723Y-98657713D01*
X133066965Y-98658334D01*
X133058834Y-98663761D01*
X133057969Y-98664223D01*
X133048949Y-98667959D01*
X133048011Y-98668244D01*
X133038374Y-98670163D01*
X133037399Y-98670259D01*
X133032500Y-98670500D01*
X127529167Y-98670500D01*
X127524268Y-98670259D01*
G37*
G36*
X132331584Y-94923759D02*
G01*
X132330609Y-94923663D01*
X132320972Y-94921744D01*
X132320034Y-94921459D01*
X132311014Y-94917723D01*
X132310149Y-94917261D01*
X132302018Y-94911834D01*
X132301260Y-94911213D01*
X132294270Y-94904223D01*
X132293649Y-94903465D01*
X132289469Y-94897533D01*
X132289216Y-94897112D01*
X132287976Y-94894925D01*
X132223804Y-94774855D01*
X132108942Y-94590979D01*
X131963910Y-94407601D01*
X131797838Y-94234655D01*
X131620507Y-94082949D01*
X131540497Y-94025142D01*
X131382777Y-93929965D01*
X131199626Y-93839016D01*
X131008091Y-93760113D01*
X130824705Y-93700775D01*
X130823062Y-93700333D01*
X130740387Y-93679306D01*
X130669283Y-93664785D01*
X130598217Y-93655347D01*
X130515266Y-93649786D01*
X130409331Y-93647182D01*
X130280859Y-93646583D01*
X130144175Y-93647284D01*
X130040144Y-93650060D01*
X129958388Y-93655853D01*
X129887683Y-93665597D01*
X129816127Y-93680519D01*
X129739875Y-93700007D01*
X129557117Y-93758805D01*
X129365595Y-93837407D01*
X129182127Y-93928205D01*
X129023090Y-94023789D01*
X129023066Y-94023805D01*
X128843701Y-94162367D01*
X128671497Y-94326757D01*
X128515585Y-94506810D01*
X128385730Y-94691807D01*
X128338328Y-94773985D01*
X128273691Y-94894925D01*
X128271157Y-94899151D01*
X128270612Y-94899966D01*
X128264404Y-94907527D01*
X128263711Y-94908220D01*
X128256115Y-94914452D01*
X128255300Y-94914996D01*
X128246725Y-94919582D01*
X128245820Y-94919958D01*
X128236373Y-94922828D01*
X128235411Y-94923019D01*
X128228120Y-94923916D01*
X128227630Y-94923940D01*
X128225184Y-94924000D01*
X127529167Y-94924000D01*
X127524268Y-94923759D01*
X127523293Y-94923663D01*
X127513656Y-94921744D01*
X127512718Y-94921459D01*
X127503698Y-94917723D01*
X127502833Y-94917261D01*
X127494702Y-94911834D01*
X127493944Y-94911213D01*
X127486954Y-94904223D01*
X127486333Y-94903465D01*
X127480906Y-94895334D01*
X127480444Y-94894469D01*
X127476708Y-94885449D01*
X127476423Y-94884511D01*
X127474504Y-94874874D01*
X127474408Y-94873899D01*
X127474167Y-94869000D01*
X127474167Y-93112167D01*
X127474408Y-93107268D01*
X127474504Y-93106293D01*
X127476423Y-93096656D01*
X127476708Y-93095718D01*
X127480444Y-93086698D01*
X127480906Y-93085833D01*
X127486333Y-93077702D01*
X127486954Y-93076944D01*
X127493944Y-93069954D01*
X127494702Y-93069333D01*
X127502833Y-93063906D01*
X127503698Y-93063444D01*
X127512718Y-93059708D01*
X127513656Y-93059423D01*
X127523293Y-93057504D01*
X127524268Y-93057408D01*
X127529167Y-93057167D01*
X133032500Y-93057167D01*
X133037399Y-93057408D01*
X133038374Y-93057504D01*
X133048011Y-93059423D01*
X133048949Y-93059708D01*
X133057969Y-93063444D01*
X133058834Y-93063906D01*
X133066965Y-93069333D01*
X133067723Y-93069954D01*
X133074713Y-93076944D01*
X133075334Y-93077702D01*
X133080761Y-93085833D01*
X133081223Y-93086698D01*
X133084959Y-93095718D01*
X133085244Y-93096656D01*
X133087163Y-93106293D01*
X133087259Y-93107268D01*
X133087500Y-93112167D01*
X133087500Y-94869000D01*
X133087259Y-94873899D01*
X133087163Y-94874874D01*
X133085244Y-94884511D01*
X133084959Y-94885449D01*
X133081223Y-94894469D01*
X133080761Y-94895334D01*
X133075334Y-94903465D01*
X133074713Y-94904223D01*
X133067723Y-94911213D01*
X133066965Y-94911834D01*
X133058834Y-94917261D01*
X133057969Y-94917723D01*
X133048949Y-94921459D01*
X133048011Y-94921744D01*
X133038374Y-94923663D01*
X133037399Y-94923759D01*
X133032500Y-94924000D01*
X132336483Y-94924000D01*
X132331584Y-94923759D01*
G37*
%TD*%
%TO.C,U7*%
G36*
G01*
X168738000Y-88785000D02*
X168738000Y-90285000D01*
G75*
G02*
X168688000Y-90335000I-50000J0D01*
G01*
X167688000Y-90335000D01*
G75*
G02*
X167638000Y-90285000I0J50000D01*
G01*
X167638000Y-88785000D01*
G75*
G02*
X167688000Y-88735000I50000J0D01*
G01*
X168688000Y-88735000D01*
G75*
G02*
X168738000Y-88785000I0J-50000D01*
G01*
G37*
G36*
G01*
X171238000Y-88785000D02*
X171238000Y-90285000D01*
G75*
G02*
X171188000Y-90335000I-50000J0D01*
G01*
X170188000Y-90335000D01*
G75*
G02*
X170138000Y-90285000I0J50000D01*
G01*
X170138000Y-88785000D01*
G75*
G02*
X170188000Y-88735000I50000J0D01*
G01*
X171188000Y-88735000D01*
G75*
G02*
X171238000Y-88785000I0J-50000D01*
G01*
G37*
%TD*%
%TO.C,R23*%
G36*
G01*
X169446832Y-112110000D02*
X170405168Y-112110000D01*
G75*
G02*
X170676000Y-112380832I0J-270832D01*
G01*
X170676000Y-113139168D01*
G75*
G02*
X170405168Y-113410000I-270832J0D01*
G01*
X169446832Y-113410000D01*
G75*
G02*
X169176000Y-113139168I0J270832D01*
G01*
X169176000Y-112380832D01*
G75*
G02*
X169446832Y-112110000I270832J0D01*
G01*
G37*
G36*
G01*
X169446832Y-110110000D02*
X170405168Y-110110000D01*
G75*
G02*
X170676000Y-110380832I0J-270832D01*
G01*
X170676000Y-111139168D01*
G75*
G02*
X170405168Y-111410000I-270832J0D01*
G01*
X169446832Y-111410000D01*
G75*
G02*
X169176000Y-111139168I0J270832D01*
G01*
X169176000Y-110380832D01*
G75*
G02*
X169446832Y-110110000I270832J0D01*
G01*
G37*
%TD*%
%TO.C,R22*%
G36*
G01*
X164754800Y-82317968D02*
X164754800Y-81359632D01*
G75*
G02*
X165025632Y-81088800I270832J0D01*
G01*
X165783968Y-81088800D01*
G75*
G02*
X166054800Y-81359632I0J-270832D01*
G01*
X166054800Y-82317968D01*
G75*
G02*
X165783968Y-82588800I-270832J0D01*
G01*
X165025632Y-82588800D01*
G75*
G02*
X164754800Y-82317968I0J270832D01*
G01*
G37*
G36*
G01*
X162754800Y-82317968D02*
X162754800Y-81359632D01*
G75*
G02*
X163025632Y-81088800I270832J0D01*
G01*
X163783968Y-81088800D01*
G75*
G02*
X164054800Y-81359632I0J-270832D01*
G01*
X164054800Y-82317968D01*
G75*
G02*
X163783968Y-82588800I-270832J0D01*
G01*
X163025632Y-82588800D01*
G75*
G02*
X162754800Y-82317968I0J270832D01*
G01*
G37*
%TD*%
%TO.C,R19*%
G36*
G01*
X159533968Y-87467200D02*
X158575632Y-87467200D01*
G75*
G02*
X158304800Y-87196368I0J270832D01*
G01*
X158304800Y-86438032D01*
G75*
G02*
X158575632Y-86167200I270832J0D01*
G01*
X159533968Y-86167200D01*
G75*
G02*
X159804800Y-86438032I0J-270832D01*
G01*
X159804800Y-87196368D01*
G75*
G02*
X159533968Y-87467200I-270832J0D01*
G01*
G37*
G36*
G01*
X159533968Y-89467200D02*
X158575632Y-89467200D01*
G75*
G02*
X158304800Y-89196368I0J270832D01*
G01*
X158304800Y-88438032D01*
G75*
G02*
X158575632Y-88167200I270832J0D01*
G01*
X159533968Y-88167200D01*
G75*
G02*
X159804800Y-88438032I0J-270832D01*
G01*
X159804800Y-89196368D01*
G75*
G02*
X159533968Y-89467200I-270832J0D01*
G01*
G37*
%TD*%
%TO.C,R13*%
G36*
G01*
X162436432Y-103236000D02*
X163394768Y-103236000D01*
G75*
G02*
X163665600Y-103506832I0J-270832D01*
G01*
X163665600Y-104265168D01*
G75*
G02*
X163394768Y-104536000I-270832J0D01*
G01*
X162436432Y-104536000D01*
G75*
G02*
X162165600Y-104265168I0J270832D01*
G01*
X162165600Y-103506832D01*
G75*
G02*
X162436432Y-103236000I270832J0D01*
G01*
G37*
G36*
G01*
X162436432Y-101236000D02*
X163394768Y-101236000D01*
G75*
G02*
X163665600Y-101506832I0J-270832D01*
G01*
X163665600Y-102265168D01*
G75*
G02*
X163394768Y-102536000I-270832J0D01*
G01*
X162436432Y-102536000D01*
G75*
G02*
X162165600Y-102265168I0J270832D01*
G01*
X162165600Y-101506832D01*
G75*
G02*
X162436432Y-101236000I270832J0D01*
G01*
G37*
%TD*%
D13*
%TO.C,J4*%
X172974000Y-109252000D03*
G36*
G01*
X173699000Y-110577000D02*
X173699000Y-111927000D01*
G75*
G02*
X173649000Y-111977000I-50000J0D01*
G01*
X172299000Y-111977000D01*
G75*
G02*
X172249000Y-111927000I0J50000D01*
G01*
X172249000Y-110577000D01*
G75*
G02*
X172299000Y-110527000I50000J0D01*
G01*
X173649000Y-110527000D01*
G75*
G02*
X173699000Y-110577000I0J-50000D01*
G01*
G37*
%TD*%
%TO.C,J3*%
X171276800Y-84429600D03*
X169276800Y-84429600D03*
X167276800Y-84429600D03*
X165276800Y-84429600D03*
X163276800Y-84429600D03*
X161276800Y-84429600D03*
X159276800Y-84429600D03*
G36*
G01*
X157951800Y-85154600D02*
X156601800Y-85154600D01*
G75*
G02*
X156551800Y-85104600I0J50000D01*
G01*
X156551800Y-83754600D01*
G75*
G02*
X156601800Y-83704600I50000J0D01*
G01*
X157951800Y-83704600D01*
G75*
G02*
X158001800Y-83754600I0J-50000D01*
G01*
X158001800Y-85104600D01*
G75*
G02*
X157951800Y-85154600I-50000J0D01*
G01*
G37*
%TD*%
%TO.C,J2*%
X164166800Y-88188800D03*
G36*
G01*
X165491800Y-87463800D02*
X166841800Y-87463800D01*
G75*
G02*
X166891800Y-87513800I0J-50000D01*
G01*
X166891800Y-88863800D01*
G75*
G02*
X166841800Y-88913800I-50000J0D01*
G01*
X165491800Y-88913800D01*
G75*
G02*
X165441800Y-88863800I0J50000D01*
G01*
X165441800Y-87513800D01*
G75*
G02*
X165491800Y-87463800I50000J0D01*
G01*
G37*
%TD*%
%TO.C,C25*%
G36*
G01*
X168488500Y-114007276D02*
X168488500Y-115014724D01*
G75*
G02*
X168217224Y-115286000I-271276J0D01*
G01*
X167484776Y-115286000D01*
G75*
G02*
X167213500Y-115014724I0J271276D01*
G01*
X167213500Y-114007276D01*
G75*
G02*
X167484776Y-113736000I271276J0D01*
G01*
X168217224Y-113736000D01*
G75*
G02*
X168488500Y-114007276I0J-271276D01*
G01*
G37*
G36*
G01*
X170563500Y-114007276D02*
X170563500Y-115014724D01*
G75*
G02*
X170292224Y-115286000I-271276J0D01*
G01*
X169559776Y-115286000D01*
G75*
G02*
X169288500Y-115014724I0J271276D01*
G01*
X169288500Y-114007276D01*
G75*
G02*
X169559776Y-113736000I271276J0D01*
G01*
X170292224Y-113736000D01*
G75*
G02*
X170563500Y-114007276I0J-271276D01*
G01*
G37*
%TD*%
%TO.C,C23*%
G36*
G01*
X166494500Y-108961724D02*
X166494500Y-107954276D01*
G75*
G02*
X166765776Y-107683000I271276J0D01*
G01*
X167498224Y-107683000D01*
G75*
G02*
X167769500Y-107954276I0J-271276D01*
G01*
X167769500Y-108961724D01*
G75*
G02*
X167498224Y-109233000I-271276J0D01*
G01*
X166765776Y-109233000D01*
G75*
G02*
X166494500Y-108961724I0J271276D01*
G01*
G37*
G36*
G01*
X164419500Y-108961724D02*
X164419500Y-107954276D01*
G75*
G02*
X164690776Y-107683000I271276J0D01*
G01*
X165423224Y-107683000D01*
G75*
G02*
X165694500Y-107954276I0J-271276D01*
G01*
X165694500Y-108961724D01*
G75*
G02*
X165423224Y-109233000I-271276J0D01*
G01*
X164690776Y-109233000D01*
G75*
G02*
X164419500Y-108961724I0J271276D01*
G01*
G37*
%TD*%
%TO.C,C21*%
G36*
G01*
X161721625Y-111680000D02*
X162890375Y-111680000D01*
G75*
G02*
X163156000Y-111945625I0J-265625D01*
G01*
X163156000Y-114114375D01*
G75*
G02*
X162890375Y-114380000I-265625J0D01*
G01*
X161721625Y-114380000D01*
G75*
G02*
X161456000Y-114114375I0J265625D01*
G01*
X161456000Y-111945625D01*
G75*
G02*
X161721625Y-111680000I265625J0D01*
G01*
G37*
G36*
G01*
X161721625Y-108080000D02*
X162890375Y-108080000D01*
G75*
G02*
X163156000Y-108345625I0J-265625D01*
G01*
X163156000Y-110514375D01*
G75*
G02*
X162890375Y-110780000I-265625J0D01*
G01*
X161721625Y-110780000D01*
G75*
G02*
X161456000Y-110514375I0J265625D01*
G01*
X161456000Y-108345625D01*
G75*
G02*
X161721625Y-108080000I265625J0D01*
G01*
G37*
%TD*%
%TO.C,C19*%
G36*
G01*
X169694900Y-87981324D02*
X169694900Y-86973876D01*
G75*
G02*
X169966176Y-86702600I271276J0D01*
G01*
X170698624Y-86702600D01*
G75*
G02*
X170969900Y-86973876I0J-271276D01*
G01*
X170969900Y-87981324D01*
G75*
G02*
X170698624Y-88252600I-271276J0D01*
G01*
X169966176Y-88252600D01*
G75*
G02*
X169694900Y-87981324I0J271276D01*
G01*
G37*
G36*
G01*
X167619900Y-87981324D02*
X167619900Y-86973876D01*
G75*
G02*
X167891176Y-86702600I271276J0D01*
G01*
X168623624Y-86702600D01*
G75*
G02*
X168894900Y-86973876I0J-271276D01*
G01*
X168894900Y-87981324D01*
G75*
G02*
X168623624Y-88252600I-271276J0D01*
G01*
X167891176Y-88252600D01*
G75*
G02*
X167619900Y-87981324I0J271276D01*
G01*
G37*
%TD*%
%TO.C,C15*%
G36*
G01*
X173020524Y-87970500D02*
X172013076Y-87970500D01*
G75*
G02*
X171741800Y-87699224I0J271276D01*
G01*
X171741800Y-86966776D01*
G75*
G02*
X172013076Y-86695500I271276J0D01*
G01*
X173020524Y-86695500D01*
G75*
G02*
X173291800Y-86966776I0J-271276D01*
G01*
X173291800Y-87699224D01*
G75*
G02*
X173020524Y-87970500I-271276J0D01*
G01*
G37*
G36*
G01*
X173020524Y-90045500D02*
X172013076Y-90045500D01*
G75*
G02*
X171741800Y-89774224I0J271276D01*
G01*
X171741800Y-89041776D01*
G75*
G02*
X172013076Y-88770500I271276J0D01*
G01*
X173020524Y-88770500D01*
G75*
G02*
X173291800Y-89041776I0J-271276D01*
G01*
X173291800Y-89774224D01*
G75*
G02*
X173020524Y-90045500I-271276J0D01*
G01*
G37*
%TD*%
%TO.C,C16*%
G36*
G01*
X143546000Y-112826625D02*
X143546000Y-113995375D01*
G75*
G02*
X143280375Y-114261000I-265625J0D01*
G01*
X141111625Y-114261000D01*
G75*
G02*
X140846000Y-113995375I0J265625D01*
G01*
X140846000Y-112826625D01*
G75*
G02*
X141111625Y-112561000I265625J0D01*
G01*
X143280375Y-112561000D01*
G75*
G02*
X143546000Y-112826625I0J-265625D01*
G01*
G37*
G36*
G01*
X147146000Y-112826625D02*
X147146000Y-113995375D01*
G75*
G02*
X146880375Y-114261000I-265625J0D01*
G01*
X144711625Y-114261000D01*
G75*
G02*
X144446000Y-113995375I0J265625D01*
G01*
X144446000Y-112826625D01*
G75*
G02*
X144711625Y-112561000I265625J0D01*
G01*
X146880375Y-112561000D01*
G75*
G02*
X147146000Y-112826625I0J-265625D01*
G01*
G37*
%TD*%
%TO.C,C2*%
G36*
G01*
X139750625Y-106854000D02*
X140919375Y-106854000D01*
G75*
G02*
X141185000Y-107119625I0J-265625D01*
G01*
X141185000Y-109288375D01*
G75*
G02*
X140919375Y-109554000I-265625J0D01*
G01*
X139750625Y-109554000D01*
G75*
G02*
X139485000Y-109288375I0J265625D01*
G01*
X139485000Y-107119625D01*
G75*
G02*
X139750625Y-106854000I265625J0D01*
G01*
G37*
G36*
G01*
X139750625Y-103254000D02*
X140919375Y-103254000D01*
G75*
G02*
X141185000Y-103519625I0J-265625D01*
G01*
X141185000Y-105688375D01*
G75*
G02*
X140919375Y-105954000I-265625J0D01*
G01*
X139750625Y-105954000D01*
G75*
G02*
X139485000Y-105688375I0J265625D01*
G01*
X139485000Y-103519625D01*
G75*
G02*
X139750625Y-103254000I265625J0D01*
G01*
G37*
%TD*%
%TO.C,U2*%
G36*
G01*
X125300500Y-96022000D02*
X125300500Y-95372000D01*
G75*
G02*
X125350500Y-95322000I50000J0D01*
G01*
X126570500Y-95322000D01*
G75*
G02*
X126620500Y-95372000I0J-50000D01*
G01*
X126620500Y-96022000D01*
G75*
G02*
X126570500Y-96072000I-50000J0D01*
G01*
X125350500Y-96072000D01*
G75*
G02*
X125300500Y-96022000I0J50000D01*
G01*
G37*
G36*
G01*
X125300500Y-96972000D02*
X125300500Y-96322000D01*
G75*
G02*
X125350500Y-96272000I50000J0D01*
G01*
X126570500Y-96272000D01*
G75*
G02*
X126620500Y-96322000I0J-50000D01*
G01*
X126620500Y-96972000D01*
G75*
G02*
X126570500Y-97022000I-50000J0D01*
G01*
X125350500Y-97022000D01*
G75*
G02*
X125300500Y-96972000I0J50000D01*
G01*
G37*
G36*
G01*
X125300500Y-97922000D02*
X125300500Y-97272000D01*
G75*
G02*
X125350500Y-97222000I50000J0D01*
G01*
X126570500Y-97222000D01*
G75*
G02*
X126620500Y-97272000I0J-50000D01*
G01*
X126620500Y-97922000D01*
G75*
G02*
X126570500Y-97972000I-50000J0D01*
G01*
X125350500Y-97972000D01*
G75*
G02*
X125300500Y-97922000I0J50000D01*
G01*
G37*
G36*
G01*
X122680500Y-97922000D02*
X122680500Y-97272000D01*
G75*
G02*
X122730500Y-97222000I50000J0D01*
G01*
X123950500Y-97222000D01*
G75*
G02*
X124000500Y-97272000I0J-50000D01*
G01*
X124000500Y-97922000D01*
G75*
G02*
X123950500Y-97972000I-50000J0D01*
G01*
X122730500Y-97972000D01*
G75*
G02*
X122680500Y-97922000I0J50000D01*
G01*
G37*
G36*
G01*
X122680500Y-96972000D02*
X122680500Y-96322000D01*
G75*
G02*
X122730500Y-96272000I50000J0D01*
G01*
X123950500Y-96272000D01*
G75*
G02*
X124000500Y-96322000I0J-50000D01*
G01*
X124000500Y-96972000D01*
G75*
G02*
X123950500Y-97022000I-50000J0D01*
G01*
X122730500Y-97022000D01*
G75*
G02*
X122680500Y-96972000I0J50000D01*
G01*
G37*
G36*
G01*
X122680500Y-96022000D02*
X122680500Y-95372000D01*
G75*
G02*
X122730500Y-95322000I50000J0D01*
G01*
X123950500Y-95322000D01*
G75*
G02*
X124000500Y-95372000I0J-50000D01*
G01*
X124000500Y-96022000D01*
G75*
G02*
X123950500Y-96072000I-50000J0D01*
G01*
X122730500Y-96072000D01*
G75*
G02*
X122680500Y-96022000I0J50000D01*
G01*
G37*
%TD*%
%TO.C,D1*%
G36*
G01*
X157590100Y-87341400D02*
X157065100Y-87341400D01*
G75*
G02*
X156802600Y-87078900I0J262500D01*
G01*
X156802600Y-86453900D01*
G75*
G02*
X157065100Y-86191400I262500J0D01*
G01*
X157590100Y-86191400D01*
G75*
G02*
X157852600Y-86453900I0J-262500D01*
G01*
X157852600Y-87078900D01*
G75*
G02*
X157590100Y-87341400I-262500J0D01*
G01*
G37*
G36*
G01*
X157590100Y-89091400D02*
X157065100Y-89091400D01*
G75*
G02*
X156802600Y-88828900I0J262500D01*
G01*
X156802600Y-88203900D01*
G75*
G02*
X157065100Y-87941400I262500J0D01*
G01*
X157590100Y-87941400D01*
G75*
G02*
X157852600Y-88203900I0J-262500D01*
G01*
X157852600Y-88828900D01*
G75*
G02*
X157590100Y-89091400I-262500J0D01*
G01*
G37*
%TD*%
%TO.C,U6*%
G36*
G01*
X156085200Y-92300800D02*
X156085200Y-91950800D01*
G75*
G02*
X156260200Y-91775800I175000J0D01*
G01*
X157960200Y-91775800D01*
G75*
G02*
X158135200Y-91950800I0J-175000D01*
G01*
X158135200Y-92300800D01*
G75*
G02*
X157960200Y-92475800I-175000J0D01*
G01*
X156260200Y-92475800D01*
G75*
G02*
X156085200Y-92300800I0J175000D01*
G01*
G37*
G36*
G01*
X156085200Y-93570800D02*
X156085200Y-93220800D01*
G75*
G02*
X156260200Y-93045800I175000J0D01*
G01*
X157960200Y-93045800D01*
G75*
G02*
X158135200Y-93220800I0J-175000D01*
G01*
X158135200Y-93570800D01*
G75*
G02*
X157960200Y-93745800I-175000J0D01*
G01*
X156260200Y-93745800D01*
G75*
G02*
X156085200Y-93570800I0J175000D01*
G01*
G37*
G36*
G01*
X156085200Y-94840800D02*
X156085200Y-94490800D01*
G75*
G02*
X156260200Y-94315800I175000J0D01*
G01*
X157960200Y-94315800D01*
G75*
G02*
X158135200Y-94490800I0J-175000D01*
G01*
X158135200Y-94840800D01*
G75*
G02*
X157960200Y-95015800I-175000J0D01*
G01*
X156260200Y-95015800D01*
G75*
G02*
X156085200Y-94840800I0J175000D01*
G01*
G37*
G36*
G01*
X156085200Y-96110800D02*
X156085200Y-95760800D01*
G75*
G02*
X156260200Y-95585800I175000J0D01*
G01*
X157960200Y-95585800D01*
G75*
G02*
X158135200Y-95760800I0J-175000D01*
G01*
X158135200Y-96110800D01*
G75*
G02*
X157960200Y-96285800I-175000J0D01*
G01*
X156260200Y-96285800D01*
G75*
G02*
X156085200Y-96110800I0J175000D01*
G01*
G37*
G36*
G01*
X151135200Y-96110800D02*
X151135200Y-95760800D01*
G75*
G02*
X151310200Y-95585800I175000J0D01*
G01*
X153010200Y-95585800D01*
G75*
G02*
X153185200Y-95760800I0J-175000D01*
G01*
X153185200Y-96110800D01*
G75*
G02*
X153010200Y-96285800I-175000J0D01*
G01*
X151310200Y-96285800D01*
G75*
G02*
X151135200Y-96110800I0J175000D01*
G01*
G37*
G36*
G01*
X151135200Y-94840800D02*
X151135200Y-94490800D01*
G75*
G02*
X151310200Y-94315800I175000J0D01*
G01*
X153010200Y-94315800D01*
G75*
G02*
X153185200Y-94490800I0J-175000D01*
G01*
X153185200Y-94840800D01*
G75*
G02*
X153010200Y-95015800I-175000J0D01*
G01*
X151310200Y-95015800D01*
G75*
G02*
X151135200Y-94840800I0J175000D01*
G01*
G37*
G36*
G01*
X151135200Y-93570800D02*
X151135200Y-93220800D01*
G75*
G02*
X151310200Y-93045800I175000J0D01*
G01*
X153010200Y-93045800D01*
G75*
G02*
X153185200Y-93220800I0J-175000D01*
G01*
X153185200Y-93570800D01*
G75*
G02*
X153010200Y-93745800I-175000J0D01*
G01*
X151310200Y-93745800D01*
G75*
G02*
X151135200Y-93570800I0J175000D01*
G01*
G37*
G36*
G01*
X151135200Y-92300800D02*
X151135200Y-91950800D01*
G75*
G02*
X151310200Y-91775800I175000J0D01*
G01*
X153010200Y-91775800D01*
G75*
G02*
X153185200Y-91950800I0J-175000D01*
G01*
X153185200Y-92300800D01*
G75*
G02*
X153010200Y-92475800I-175000J0D01*
G01*
X151310200Y-92475800D01*
G75*
G02*
X151135200Y-92300800I0J175000D01*
G01*
G37*
%TD*%
%TO.C,R18*%
G36*
G01*
X156164800Y-97260032D02*
X156164800Y-98218368D01*
G75*
G02*
X155893968Y-98489200I-270832J0D01*
G01*
X155135632Y-98489200D01*
G75*
G02*
X154864800Y-98218368I0J270832D01*
G01*
X154864800Y-97260032D01*
G75*
G02*
X155135632Y-96989200I270832J0D01*
G01*
X155893968Y-96989200D01*
G75*
G02*
X156164800Y-97260032I0J-270832D01*
G01*
G37*
G36*
G01*
X158164800Y-97260032D02*
X158164800Y-98218368D01*
G75*
G02*
X157893968Y-98489200I-270832J0D01*
G01*
X157135632Y-98489200D01*
G75*
G02*
X156864800Y-98218368I0J270832D01*
G01*
X156864800Y-97260032D01*
G75*
G02*
X157135632Y-96989200I270832J0D01*
G01*
X157893968Y-96989200D01*
G75*
G02*
X158164800Y-97260032I0J-270832D01*
G01*
G37*
%TD*%
%TO.C,R17*%
G36*
G01*
X148428332Y-93203000D02*
X149386668Y-93203000D01*
G75*
G02*
X149657500Y-93473832I0J-270832D01*
G01*
X149657500Y-94232168D01*
G75*
G02*
X149386668Y-94503000I-270832J0D01*
G01*
X148428332Y-94503000D01*
G75*
G02*
X148157500Y-94232168I0J270832D01*
G01*
X148157500Y-93473832D01*
G75*
G02*
X148428332Y-93203000I270832J0D01*
G01*
G37*
G36*
G01*
X148428332Y-91203000D02*
X149386668Y-91203000D01*
G75*
G02*
X149657500Y-91473832I0J-270832D01*
G01*
X149657500Y-92232168D01*
G75*
G02*
X149386668Y-92503000I-270832J0D01*
G01*
X148428332Y-92503000D01*
G75*
G02*
X148157500Y-92232168I0J270832D01*
G01*
X148157500Y-91473832D01*
G75*
G02*
X148428332Y-91203000I270832J0D01*
G01*
G37*
%TD*%
%TO.C,R16*%
G36*
G01*
X146523332Y-93187000D02*
X147481668Y-93187000D01*
G75*
G02*
X147752500Y-93457832I0J-270832D01*
G01*
X147752500Y-94216168D01*
G75*
G02*
X147481668Y-94487000I-270832J0D01*
G01*
X146523332Y-94487000D01*
G75*
G02*
X146252500Y-94216168I0J270832D01*
G01*
X146252500Y-93457832D01*
G75*
G02*
X146523332Y-93187000I270832J0D01*
G01*
G37*
G36*
G01*
X146523332Y-91187000D02*
X147481668Y-91187000D01*
G75*
G02*
X147752500Y-91457832I0J-270832D01*
G01*
X147752500Y-92216168D01*
G75*
G02*
X147481668Y-92487000I-270832J0D01*
G01*
X146523332Y-92487000D01*
G75*
G02*
X146252500Y-92216168I0J270832D01*
G01*
X146252500Y-91457832D01*
G75*
G02*
X146523332Y-91187000I270832J0D01*
G01*
G37*
%TD*%
%TO.C,C22*%
G36*
G01*
X154438400Y-89818676D02*
X154438400Y-90826124D01*
G75*
G02*
X154167124Y-91097400I-271276J0D01*
G01*
X153434676Y-91097400D01*
G75*
G02*
X153163400Y-90826124I0J271276D01*
G01*
X153163400Y-89818676D01*
G75*
G02*
X153434676Y-89547400I271276J0D01*
G01*
X154167124Y-89547400D01*
G75*
G02*
X154438400Y-89818676I0J-271276D01*
G01*
G37*
G36*
G01*
X156513400Y-89818676D02*
X156513400Y-90826124D01*
G75*
G02*
X156242124Y-91097400I-271276J0D01*
G01*
X155509676Y-91097400D01*
G75*
G02*
X155238400Y-90826124I0J271276D01*
G01*
X155238400Y-89818676D01*
G75*
G02*
X155509676Y-89547400I271276J0D01*
G01*
X156242124Y-89547400D01*
G75*
G02*
X156513400Y-89818676I0J-271276D01*
G01*
G37*
%TD*%
%TO.C,C13*%
G36*
G01*
X144296500Y-93841134D02*
X144296500Y-91578866D01*
G75*
G02*
X144565366Y-91310000I268866J0D01*
G01*
X145452634Y-91310000D01*
G75*
G02*
X145721500Y-91578866I0J-268866D01*
G01*
X145721500Y-93841134D01*
G75*
G02*
X145452634Y-94110000I-268866J0D01*
G01*
X144565366Y-94110000D01*
G75*
G02*
X144296500Y-93841134I0J268866D01*
G01*
G37*
G36*
G01*
X141171500Y-93841134D02*
X141171500Y-91578866D01*
G75*
G02*
X141440366Y-91310000I268866J0D01*
G01*
X142327634Y-91310000D01*
G75*
G02*
X142596500Y-91578866I0J-268866D01*
G01*
X142596500Y-93841134D01*
G75*
G02*
X142327634Y-94110000I-268866J0D01*
G01*
X141440366Y-94110000D01*
G75*
G02*
X141171500Y-93841134I0J268866D01*
G01*
G37*
%TD*%
%TO.C,R15*%
G36*
G01*
X155603832Y-105300000D02*
X156562168Y-105300000D01*
G75*
G02*
X156833000Y-105570832I0J-270832D01*
G01*
X156833000Y-106329168D01*
G75*
G02*
X156562168Y-106600000I-270832J0D01*
G01*
X155603832Y-106600000D01*
G75*
G02*
X155333000Y-106329168I0J270832D01*
G01*
X155333000Y-105570832D01*
G75*
G02*
X155603832Y-105300000I270832J0D01*
G01*
G37*
G36*
G01*
X155603832Y-107300000D02*
X156562168Y-107300000D01*
G75*
G02*
X156833000Y-107570832I0J-270832D01*
G01*
X156833000Y-108329168D01*
G75*
G02*
X156562168Y-108600000I-270832J0D01*
G01*
X155603832Y-108600000D01*
G75*
G02*
X155333000Y-108329168I0J270832D01*
G01*
X155333000Y-107570832D01*
G75*
G02*
X155603832Y-107300000I270832J0D01*
G01*
G37*
%TD*%
%TO.C,R7*%
G36*
G01*
X144497168Y-110092000D02*
X143538832Y-110092000D01*
G75*
G02*
X143268000Y-109821168I0J270832D01*
G01*
X143268000Y-109062832D01*
G75*
G02*
X143538832Y-108792000I270832J0D01*
G01*
X144497168Y-108792000D01*
G75*
G02*
X144768000Y-109062832I0J-270832D01*
G01*
X144768000Y-109821168D01*
G75*
G02*
X144497168Y-110092000I-270832J0D01*
G01*
G37*
G36*
G01*
X144497168Y-108092000D02*
X143538832Y-108092000D01*
G75*
G02*
X143268000Y-107821168I0J270832D01*
G01*
X143268000Y-107062832D01*
G75*
G02*
X143538832Y-106792000I270832J0D01*
G01*
X144497168Y-106792000D01*
G75*
G02*
X144768000Y-107062832I0J-270832D01*
G01*
X144768000Y-107821168D01*
G75*
G02*
X144497168Y-108092000I-270832J0D01*
G01*
G37*
%TD*%
%TO.C,D2*%
G36*
G01*
X130362000Y-86495500D02*
X130362000Y-85970500D01*
G75*
G02*
X130624500Y-85708000I262500J0D01*
G01*
X131249500Y-85708000D01*
G75*
G02*
X131512000Y-85970500I0J-262500D01*
G01*
X131512000Y-86495500D01*
G75*
G02*
X131249500Y-86758000I-262500J0D01*
G01*
X130624500Y-86758000D01*
G75*
G02*
X130362000Y-86495500I0J262500D01*
G01*
G37*
G36*
G01*
X132112000Y-86495500D02*
X132112000Y-85970500D01*
G75*
G02*
X132374500Y-85708000I262500J0D01*
G01*
X132999500Y-85708000D01*
G75*
G02*
X133262000Y-85970500I0J-262500D01*
G01*
X133262000Y-86495500D01*
G75*
G02*
X132999500Y-86758000I-262500J0D01*
G01*
X132374500Y-86758000D01*
G75*
G02*
X132112000Y-86495500I0J262500D01*
G01*
G37*
%TD*%
%TO.C,R11*%
G36*
G01*
X139939000Y-98142168D02*
X139939000Y-97183832D01*
G75*
G02*
X140209832Y-96913000I270832J0D01*
G01*
X140968168Y-96913000D01*
G75*
G02*
X141239000Y-97183832I0J-270832D01*
G01*
X141239000Y-98142168D01*
G75*
G02*
X140968168Y-98413000I-270832J0D01*
G01*
X140209832Y-98413000D01*
G75*
G02*
X139939000Y-98142168I0J270832D01*
G01*
G37*
G36*
G01*
X141939000Y-98142168D02*
X141939000Y-97183832D01*
G75*
G02*
X142209832Y-96913000I270832J0D01*
G01*
X142968168Y-96913000D01*
G75*
G02*
X143239000Y-97183832I0J-270832D01*
G01*
X143239000Y-98142168D01*
G75*
G02*
X142968168Y-98413000I-270832J0D01*
G01*
X142209832Y-98413000D01*
G75*
G02*
X141939000Y-98142168I0J270832D01*
G01*
G37*
%TD*%
%TO.C,C5*%
G36*
G01*
X141101276Y-116100900D02*
X142108724Y-116100900D01*
G75*
G02*
X142380000Y-116372176I0J-271276D01*
G01*
X142380000Y-117104624D01*
G75*
G02*
X142108724Y-117375900I-271276J0D01*
G01*
X141101276Y-117375900D01*
G75*
G02*
X140830000Y-117104624I0J271276D01*
G01*
X140830000Y-116372176D01*
G75*
G02*
X141101276Y-116100900I271276J0D01*
G01*
G37*
G36*
G01*
X141101276Y-118175900D02*
X142108724Y-118175900D01*
G75*
G02*
X142380000Y-118447176I0J-271276D01*
G01*
X142380000Y-119179624D01*
G75*
G02*
X142108724Y-119450900I-271276J0D01*
G01*
X141101276Y-119450900D01*
G75*
G02*
X140830000Y-119179624I0J271276D01*
G01*
X140830000Y-118447176D01*
G75*
G02*
X141101276Y-118175900I271276J0D01*
G01*
G37*
%TD*%
%TO.C,U4*%
G36*
G01*
X133723500Y-90345000D02*
X133723500Y-89995000D01*
G75*
G02*
X133898500Y-89820000I175000J0D01*
G01*
X135598500Y-89820000D01*
G75*
G02*
X135773500Y-89995000I0J-175000D01*
G01*
X135773500Y-90345000D01*
G75*
G02*
X135598500Y-90520000I-175000J0D01*
G01*
X133898500Y-90520000D01*
G75*
G02*
X133723500Y-90345000I0J175000D01*
G01*
G37*
G36*
G01*
X133723500Y-91615000D02*
X133723500Y-91265000D01*
G75*
G02*
X133898500Y-91090000I175000J0D01*
G01*
X135598500Y-91090000D01*
G75*
G02*
X135773500Y-91265000I0J-175000D01*
G01*
X135773500Y-91615000D01*
G75*
G02*
X135598500Y-91790000I-175000J0D01*
G01*
X133898500Y-91790000D01*
G75*
G02*
X133723500Y-91615000I0J175000D01*
G01*
G37*
G36*
G01*
X133723500Y-92885000D02*
X133723500Y-92535000D01*
G75*
G02*
X133898500Y-92360000I175000J0D01*
G01*
X135598500Y-92360000D01*
G75*
G02*
X135773500Y-92535000I0J-175000D01*
G01*
X135773500Y-92885000D01*
G75*
G02*
X135598500Y-93060000I-175000J0D01*
G01*
X133898500Y-93060000D01*
G75*
G02*
X133723500Y-92885000I0J175000D01*
G01*
G37*
G36*
G01*
X133723500Y-94155000D02*
X133723500Y-93805000D01*
G75*
G02*
X133898500Y-93630000I175000J0D01*
G01*
X135598500Y-93630000D01*
G75*
G02*
X135773500Y-93805000I0J-175000D01*
G01*
X135773500Y-94155000D01*
G75*
G02*
X135598500Y-94330000I-175000J0D01*
G01*
X133898500Y-94330000D01*
G75*
G02*
X133723500Y-94155000I0J175000D01*
G01*
G37*
G36*
G01*
X138673500Y-94155000D02*
X138673500Y-93805000D01*
G75*
G02*
X138848500Y-93630000I175000J0D01*
G01*
X140548500Y-93630000D01*
G75*
G02*
X140723500Y-93805000I0J-175000D01*
G01*
X140723500Y-94155000D01*
G75*
G02*
X140548500Y-94330000I-175000J0D01*
G01*
X138848500Y-94330000D01*
G75*
G02*
X138673500Y-94155000I0J175000D01*
G01*
G37*
G36*
G01*
X138673500Y-92885000D02*
X138673500Y-92535000D01*
G75*
G02*
X138848500Y-92360000I175000J0D01*
G01*
X140548500Y-92360000D01*
G75*
G02*
X140723500Y-92535000I0J-175000D01*
G01*
X140723500Y-92885000D01*
G75*
G02*
X140548500Y-93060000I-175000J0D01*
G01*
X138848500Y-93060000D01*
G75*
G02*
X138673500Y-92885000I0J175000D01*
G01*
G37*
G36*
G01*
X138673500Y-91615000D02*
X138673500Y-91265000D01*
G75*
G02*
X138848500Y-91090000I175000J0D01*
G01*
X140548500Y-91090000D01*
G75*
G02*
X140723500Y-91265000I0J-175000D01*
G01*
X140723500Y-91615000D01*
G75*
G02*
X140548500Y-91790000I-175000J0D01*
G01*
X138848500Y-91790000D01*
G75*
G02*
X138673500Y-91615000I0J175000D01*
G01*
G37*
G36*
G01*
X138673500Y-90345000D02*
X138673500Y-89995000D01*
G75*
G02*
X138848500Y-89820000I175000J0D01*
G01*
X140548500Y-89820000D01*
G75*
G02*
X140723500Y-89995000I0J-175000D01*
G01*
X140723500Y-90345000D01*
G75*
G02*
X140548500Y-90520000I-175000J0D01*
G01*
X138848500Y-90520000D01*
G75*
G02*
X138673500Y-90345000I0J175000D01*
G01*
G37*
%TD*%
%TO.C,C8*%
G36*
G01*
X144648724Y-102259000D02*
X143641276Y-102259000D01*
G75*
G02*
X143370000Y-101987724I0J271276D01*
G01*
X143370000Y-101255276D01*
G75*
G02*
X143641276Y-100984000I271276J0D01*
G01*
X144648724Y-100984000D01*
G75*
G02*
X144920000Y-101255276I0J-271276D01*
G01*
X144920000Y-101987724D01*
G75*
G02*
X144648724Y-102259000I-271276J0D01*
G01*
G37*
G36*
G01*
X144648724Y-100184000D02*
X143641276Y-100184000D01*
G75*
G02*
X143370000Y-99912724I0J271276D01*
G01*
X143370000Y-99180276D01*
G75*
G02*
X143641276Y-98909000I271276J0D01*
G01*
X144648724Y-98909000D01*
G75*
G02*
X144920000Y-99180276I0J-271276D01*
G01*
X144920000Y-99912724D01*
G75*
G02*
X144648724Y-100184000I-271276J0D01*
G01*
G37*
%TD*%
%TO.C,D3*%
G36*
G01*
X151502500Y-87210000D02*
X152027500Y-87210000D01*
G75*
G02*
X152290000Y-87472500I0J-262500D01*
G01*
X152290000Y-88097500D01*
G75*
G02*
X152027500Y-88360000I-262500J0D01*
G01*
X151502500Y-88360000D01*
G75*
G02*
X151240000Y-88097500I0J262500D01*
G01*
X151240000Y-87472500D01*
G75*
G02*
X151502500Y-87210000I262500J0D01*
G01*
G37*
G36*
G01*
X151502500Y-88960000D02*
X152027500Y-88960000D01*
G75*
G02*
X152290000Y-89222500I0J-262500D01*
G01*
X152290000Y-89847500D01*
G75*
G02*
X152027500Y-90110000I-262500J0D01*
G01*
X151502500Y-90110000D01*
G75*
G02*
X151240000Y-89847500I0J262500D01*
G01*
X151240000Y-89222500D01*
G75*
G02*
X151502500Y-88960000I262500J0D01*
G01*
G37*
%TD*%
%TO.C,C17*%
G36*
G01*
X149093724Y-112567500D02*
X148086276Y-112567500D01*
G75*
G02*
X147815000Y-112296224I0J271276D01*
G01*
X147815000Y-111563776D01*
G75*
G02*
X148086276Y-111292500I271276J0D01*
G01*
X149093724Y-111292500D01*
G75*
G02*
X149365000Y-111563776I0J-271276D01*
G01*
X149365000Y-112296224D01*
G75*
G02*
X149093724Y-112567500I-271276J0D01*
G01*
G37*
G36*
G01*
X149093724Y-110492500D02*
X148086276Y-110492500D01*
G75*
G02*
X147815000Y-110221224I0J271276D01*
G01*
X147815000Y-109488776D01*
G75*
G02*
X148086276Y-109217500I271276J0D01*
G01*
X149093724Y-109217500D01*
G75*
G02*
X149365000Y-109488776I0J-271276D01*
G01*
X149365000Y-110221224D01*
G75*
G02*
X149093724Y-110492500I-271276J0D01*
G01*
G37*
%TD*%
%TO.C,R8*%
G36*
G01*
X143654000Y-98142168D02*
X143654000Y-97183832D01*
G75*
G02*
X143924832Y-96913000I270832J0D01*
G01*
X144683168Y-96913000D01*
G75*
G02*
X144954000Y-97183832I0J-270832D01*
G01*
X144954000Y-98142168D01*
G75*
G02*
X144683168Y-98413000I-270832J0D01*
G01*
X143924832Y-98413000D01*
G75*
G02*
X143654000Y-98142168I0J270832D01*
G01*
G37*
G36*
G01*
X145654000Y-98142168D02*
X145654000Y-97183832D01*
G75*
G02*
X145924832Y-96913000I270832J0D01*
G01*
X146683168Y-96913000D01*
G75*
G02*
X146954000Y-97183832I0J-270832D01*
G01*
X146954000Y-98142168D01*
G75*
G02*
X146683168Y-98413000I-270832J0D01*
G01*
X145924832Y-98413000D01*
G75*
G02*
X145654000Y-98142168I0J270832D01*
G01*
G37*
%TD*%
%TO.C,R4*%
G36*
G01*
X158778832Y-116222000D02*
X159737168Y-116222000D01*
G75*
G02*
X160008000Y-116492832I0J-270832D01*
G01*
X160008000Y-117251168D01*
G75*
G02*
X159737168Y-117522000I-270832J0D01*
G01*
X158778832Y-117522000D01*
G75*
G02*
X158508000Y-117251168I0J270832D01*
G01*
X158508000Y-116492832D01*
G75*
G02*
X158778832Y-116222000I270832J0D01*
G01*
G37*
G36*
G01*
X158778832Y-118222000D02*
X159737168Y-118222000D01*
G75*
G02*
X160008000Y-118492832I0J-270832D01*
G01*
X160008000Y-119251168D01*
G75*
G02*
X159737168Y-119522000I-270832J0D01*
G01*
X158778832Y-119522000D01*
G75*
G02*
X158508000Y-119251168I0J270832D01*
G01*
X158508000Y-118492832D01*
G75*
G02*
X158778832Y-118222000I270832J0D01*
G01*
G37*
%TD*%
%TO.C,C18*%
G36*
G01*
X139047000Y-87761276D02*
X139047000Y-88768724D01*
G75*
G02*
X138775724Y-89040000I-271276J0D01*
G01*
X138043276Y-89040000D01*
G75*
G02*
X137772000Y-88768724I0J271276D01*
G01*
X137772000Y-87761276D01*
G75*
G02*
X138043276Y-87490000I271276J0D01*
G01*
X138775724Y-87490000D01*
G75*
G02*
X139047000Y-87761276I0J-271276D01*
G01*
G37*
G36*
G01*
X136972000Y-87761276D02*
X136972000Y-88768724D01*
G75*
G02*
X136700724Y-89040000I-271276J0D01*
G01*
X135968276Y-89040000D01*
G75*
G02*
X135697000Y-88768724I0J271276D01*
G01*
X135697000Y-87761276D01*
G75*
G02*
X135968276Y-87490000I271276J0D01*
G01*
X136700724Y-87490000D01*
G75*
G02*
X136972000Y-87761276I0J-271276D01*
G01*
G37*
%TD*%
%TO.C,R10*%
G36*
G01*
X142592168Y-102234000D02*
X141633832Y-102234000D01*
G75*
G02*
X141363000Y-101963168I0J270832D01*
G01*
X141363000Y-101204832D01*
G75*
G02*
X141633832Y-100934000I270832J0D01*
G01*
X142592168Y-100934000D01*
G75*
G02*
X142863000Y-101204832I0J-270832D01*
G01*
X142863000Y-101963168D01*
G75*
G02*
X142592168Y-102234000I-270832J0D01*
G01*
G37*
G36*
G01*
X142592168Y-100234000D02*
X141633832Y-100234000D01*
G75*
G02*
X141363000Y-99963168I0J270832D01*
G01*
X141363000Y-99204832D01*
G75*
G02*
X141633832Y-98934000I270832J0D01*
G01*
X142592168Y-98934000D01*
G75*
G02*
X142863000Y-99204832I0J-270832D01*
G01*
X142863000Y-99963168D01*
G75*
G02*
X142592168Y-100234000I-270832J0D01*
G01*
G37*
%TD*%
%TO.C,C10*%
G36*
G01*
X137545276Y-98887500D02*
X138552724Y-98887500D01*
G75*
G02*
X138824000Y-99158776I0J-271276D01*
G01*
X138824000Y-99891224D01*
G75*
G02*
X138552724Y-100162500I-271276J0D01*
G01*
X137545276Y-100162500D01*
G75*
G02*
X137274000Y-99891224I0J271276D01*
G01*
X137274000Y-99158776D01*
G75*
G02*
X137545276Y-98887500I271276J0D01*
G01*
G37*
G36*
G01*
X137545276Y-100962500D02*
X138552724Y-100962500D01*
G75*
G02*
X138824000Y-101233776I0J-271276D01*
G01*
X138824000Y-101966224D01*
G75*
G02*
X138552724Y-102237500I-271276J0D01*
G01*
X137545276Y-102237500D01*
G75*
G02*
X137274000Y-101966224I0J271276D01*
G01*
X137274000Y-101233776D01*
G75*
G02*
X137545276Y-100962500I271276J0D01*
G01*
G37*
%TD*%
%TO.C,U5*%
G36*
G01*
X150162000Y-104084000D02*
X149812000Y-104084000D01*
G75*
G02*
X149637000Y-103909000I0J175000D01*
G01*
X149637000Y-102209000D01*
G75*
G02*
X149812000Y-102034000I175000J0D01*
G01*
X150162000Y-102034000D01*
G75*
G02*
X150337000Y-102209000I0J-175000D01*
G01*
X150337000Y-103909000D01*
G75*
G02*
X150162000Y-104084000I-175000J0D01*
G01*
G37*
G36*
G01*
X151432000Y-104084000D02*
X151082000Y-104084000D01*
G75*
G02*
X150907000Y-103909000I0J175000D01*
G01*
X150907000Y-102209000D01*
G75*
G02*
X151082000Y-102034000I175000J0D01*
G01*
X151432000Y-102034000D01*
G75*
G02*
X151607000Y-102209000I0J-175000D01*
G01*
X151607000Y-103909000D01*
G75*
G02*
X151432000Y-104084000I-175000J0D01*
G01*
G37*
G36*
G01*
X152702000Y-104084000D02*
X152352000Y-104084000D01*
G75*
G02*
X152177000Y-103909000I0J175000D01*
G01*
X152177000Y-102209000D01*
G75*
G02*
X152352000Y-102034000I175000J0D01*
G01*
X152702000Y-102034000D01*
G75*
G02*
X152877000Y-102209000I0J-175000D01*
G01*
X152877000Y-103909000D01*
G75*
G02*
X152702000Y-104084000I-175000J0D01*
G01*
G37*
G36*
G01*
X153972000Y-104084000D02*
X153622000Y-104084000D01*
G75*
G02*
X153447000Y-103909000I0J175000D01*
G01*
X153447000Y-102209000D01*
G75*
G02*
X153622000Y-102034000I175000J0D01*
G01*
X153972000Y-102034000D01*
G75*
G02*
X154147000Y-102209000I0J-175000D01*
G01*
X154147000Y-103909000D01*
G75*
G02*
X153972000Y-104084000I-175000J0D01*
G01*
G37*
G36*
G01*
X153972000Y-99134000D02*
X153622000Y-99134000D01*
G75*
G02*
X153447000Y-98959000I0J175000D01*
G01*
X153447000Y-97259000D01*
G75*
G02*
X153622000Y-97084000I175000J0D01*
G01*
X153972000Y-97084000D01*
G75*
G02*
X154147000Y-97259000I0J-175000D01*
G01*
X154147000Y-98959000D01*
G75*
G02*
X153972000Y-99134000I-175000J0D01*
G01*
G37*
G36*
G01*
X152702000Y-99134000D02*
X152352000Y-99134000D01*
G75*
G02*
X152177000Y-98959000I0J175000D01*
G01*
X152177000Y-97259000D01*
G75*
G02*
X152352000Y-97084000I175000J0D01*
G01*
X152702000Y-97084000D01*
G75*
G02*
X152877000Y-97259000I0J-175000D01*
G01*
X152877000Y-98959000D01*
G75*
G02*
X152702000Y-99134000I-175000J0D01*
G01*
G37*
G36*
G01*
X151432000Y-99134000D02*
X151082000Y-99134000D01*
G75*
G02*
X150907000Y-98959000I0J175000D01*
G01*
X150907000Y-97259000D01*
G75*
G02*
X151082000Y-97084000I175000J0D01*
G01*
X151432000Y-97084000D01*
G75*
G02*
X151607000Y-97259000I0J-175000D01*
G01*
X151607000Y-98959000D01*
G75*
G02*
X151432000Y-99134000I-175000J0D01*
G01*
G37*
G36*
G01*
X150162000Y-99134000D02*
X149812000Y-99134000D01*
G75*
G02*
X149637000Y-98959000I0J175000D01*
G01*
X149637000Y-97259000D01*
G75*
G02*
X149812000Y-97084000I175000J0D01*
G01*
X150162000Y-97084000D01*
G75*
G02*
X150337000Y-97259000I0J-175000D01*
G01*
X150337000Y-98959000D01*
G75*
G02*
X150162000Y-99134000I-175000J0D01*
G01*
G37*
%TD*%
%TO.C,R9*%
G36*
G01*
X145697832Y-104760000D02*
X146656168Y-104760000D01*
G75*
G02*
X146927000Y-105030832I0J-270832D01*
G01*
X146927000Y-105789168D01*
G75*
G02*
X146656168Y-106060000I-270832J0D01*
G01*
X145697832Y-106060000D01*
G75*
G02*
X145427000Y-105789168I0J270832D01*
G01*
X145427000Y-105030832D01*
G75*
G02*
X145697832Y-104760000I270832J0D01*
G01*
G37*
G36*
G01*
X145697832Y-106760000D02*
X146656168Y-106760000D01*
G75*
G02*
X146927000Y-107030832I0J-270832D01*
G01*
X146927000Y-107789168D01*
G75*
G02*
X146656168Y-108060000I-270832J0D01*
G01*
X145697832Y-108060000D01*
G75*
G02*
X145427000Y-107789168I0J270832D01*
G01*
X145427000Y-107030832D01*
G75*
G02*
X145697832Y-106760000I270832J0D01*
G01*
G37*
%TD*%
%TO.C,C12*%
G36*
G01*
X146680724Y-102237500D02*
X145673276Y-102237500D01*
G75*
G02*
X145402000Y-101966224I0J271276D01*
G01*
X145402000Y-101233776D01*
G75*
G02*
X145673276Y-100962500I271276J0D01*
G01*
X146680724Y-100962500D01*
G75*
G02*
X146952000Y-101233776I0J-271276D01*
G01*
X146952000Y-101966224D01*
G75*
G02*
X146680724Y-102237500I-271276J0D01*
G01*
G37*
G36*
G01*
X146680724Y-100162500D02*
X145673276Y-100162500D01*
G75*
G02*
X145402000Y-99891224I0J271276D01*
G01*
X145402000Y-99158776D01*
G75*
G02*
X145673276Y-98887500I271276J0D01*
G01*
X146680724Y-98887500D01*
G75*
G02*
X146952000Y-99158776I0J-271276D01*
G01*
X146952000Y-99891224D01*
G75*
G02*
X146680724Y-100162500I-271276J0D01*
G01*
G37*
%TD*%
%TO.C,C7*%
G36*
G01*
X152770000Y-106056866D02*
X152770000Y-108319134D01*
G75*
G02*
X152501134Y-108588000I-268866J0D01*
G01*
X151613866Y-108588000D01*
G75*
G02*
X151345000Y-108319134I0J268866D01*
G01*
X151345000Y-106056866D01*
G75*
G02*
X151613866Y-105788000I268866J0D01*
G01*
X152501134Y-105788000D01*
G75*
G02*
X152770000Y-106056866I0J-268866D01*
G01*
G37*
G36*
G01*
X149645000Y-106056866D02*
X149645000Y-108319134D01*
G75*
G02*
X149376134Y-108588000I-268866J0D01*
G01*
X148488866Y-108588000D01*
G75*
G02*
X148220000Y-108319134I0J268866D01*
G01*
X148220000Y-106056866D01*
G75*
G02*
X148488866Y-105788000I268866J0D01*
G01*
X149376134Y-105788000D01*
G75*
G02*
X149645000Y-106056866I0J-268866D01*
G01*
G37*
%TD*%
%TO.C,R21*%
G36*
G01*
X132095000Y-88420832D02*
X132095000Y-89379168D01*
G75*
G02*
X131824168Y-89650000I-270832J0D01*
G01*
X131065832Y-89650000D01*
G75*
G02*
X130795000Y-89379168I0J270832D01*
G01*
X130795000Y-88420832D01*
G75*
G02*
X131065832Y-88150000I270832J0D01*
G01*
X131824168Y-88150000D01*
G75*
G02*
X132095000Y-88420832I0J-270832D01*
G01*
G37*
G36*
G01*
X130095000Y-88420832D02*
X130095000Y-89379168D01*
G75*
G02*
X129824168Y-89650000I-270832J0D01*
G01*
X129065832Y-89650000D01*
G75*
G02*
X128795000Y-89379168I0J270832D01*
G01*
X128795000Y-88420832D01*
G75*
G02*
X129065832Y-88150000I270832J0D01*
G01*
X129824168Y-88150000D01*
G75*
G02*
X130095000Y-88420832I0J-270832D01*
G01*
G37*
%TD*%
%TO.C,R3*%
G36*
G01*
X143792832Y-116095000D02*
X144751168Y-116095000D01*
G75*
G02*
X145022000Y-116365832I0J-270832D01*
G01*
X145022000Y-117124168D01*
G75*
G02*
X144751168Y-117395000I-270832J0D01*
G01*
X143792832Y-117395000D01*
G75*
G02*
X143522000Y-117124168I0J270832D01*
G01*
X143522000Y-116365832D01*
G75*
G02*
X143792832Y-116095000I270832J0D01*
G01*
G37*
G36*
G01*
X143792832Y-118095000D02*
X144751168Y-118095000D01*
G75*
G02*
X145022000Y-118365832I0J-270832D01*
G01*
X145022000Y-119124168D01*
G75*
G02*
X144751168Y-119395000I-270832J0D01*
G01*
X143792832Y-119395000D01*
G75*
G02*
X143522000Y-119124168I0J270832D01*
G01*
X143522000Y-118365832D01*
G75*
G02*
X143792832Y-118095000I270832J0D01*
G01*
G37*
%TD*%
D14*
%TO.C,J1*%
X156765000Y-131325000D03*
X156765000Y-128825000D03*
X146765000Y-131325000D03*
X146765000Y-128825000D03*
X151765000Y-123825000D03*
X156765000Y-118825000D03*
X146765000Y-118825000D03*
D15*
X151765000Y-128825000D03*
D16*
X149265000Y-118825000D03*
X151765000Y-118825000D03*
X154265000Y-118825000D03*
D17*
X156765000Y-123825000D03*
X146765000Y-123825000D03*
%TD*%
%TO.C,C24*%
G36*
G01*
X132329724Y-115615500D02*
X131322276Y-115615500D01*
G75*
G02*
X131051000Y-115344224I0J271276D01*
G01*
X131051000Y-114611776D01*
G75*
G02*
X131322276Y-114340500I271276J0D01*
G01*
X132329724Y-114340500D01*
G75*
G02*
X132601000Y-114611776I0J-271276D01*
G01*
X132601000Y-115344224D01*
G75*
G02*
X132329724Y-115615500I-271276J0D01*
G01*
G37*
G36*
G01*
X132329724Y-113540500D02*
X131322276Y-113540500D01*
G75*
G02*
X131051000Y-113269224I0J271276D01*
G01*
X131051000Y-112536776D01*
G75*
G02*
X131322276Y-112265500I271276J0D01*
G01*
X132329724Y-112265500D01*
G75*
G02*
X132601000Y-112536776I0J-271276D01*
G01*
X132601000Y-113269224D01*
G75*
G02*
X132329724Y-113540500I-271276J0D01*
G01*
G37*
%TD*%
%TO.C,C20*%
G36*
G01*
X147705276Y-98887500D02*
X148712724Y-98887500D01*
G75*
G02*
X148984000Y-99158776I0J-271276D01*
G01*
X148984000Y-99891224D01*
G75*
G02*
X148712724Y-100162500I-271276J0D01*
G01*
X147705276Y-100162500D01*
G75*
G02*
X147434000Y-99891224I0J271276D01*
G01*
X147434000Y-99158776D01*
G75*
G02*
X147705276Y-98887500I271276J0D01*
G01*
G37*
G36*
G01*
X147705276Y-100962500D02*
X148712724Y-100962500D01*
G75*
G02*
X148984000Y-101233776I0J-271276D01*
G01*
X148984000Y-101966224D01*
G75*
G02*
X148712724Y-102237500I-271276J0D01*
G01*
X147705276Y-102237500D01*
G75*
G02*
X147434000Y-101966224I0J271276D01*
G01*
X147434000Y-101233776D01*
G75*
G02*
X147705276Y-100962500I271276J0D01*
G01*
G37*
%TD*%
%TO.C,C6*%
G36*
G01*
X161421276Y-116202500D02*
X162428724Y-116202500D01*
G75*
G02*
X162700000Y-116473776I0J-271276D01*
G01*
X162700000Y-117206224D01*
G75*
G02*
X162428724Y-117477500I-271276J0D01*
G01*
X161421276Y-117477500D01*
G75*
G02*
X161150000Y-117206224I0J271276D01*
G01*
X161150000Y-116473776D01*
G75*
G02*
X161421276Y-116202500I271276J0D01*
G01*
G37*
G36*
G01*
X161421276Y-118277500D02*
X162428724Y-118277500D01*
G75*
G02*
X162700000Y-118548776I0J-271276D01*
G01*
X162700000Y-119281224D01*
G75*
G02*
X162428724Y-119552500I-271276J0D01*
G01*
X161421276Y-119552500D01*
G75*
G02*
X161150000Y-119281224I0J271276D01*
G01*
X161150000Y-118548776D01*
G75*
G02*
X161421276Y-118277500I271276J0D01*
G01*
G37*
%TD*%
%TO.C,R14*%
G36*
G01*
X155095832Y-98950000D02*
X156054168Y-98950000D01*
G75*
G02*
X156325000Y-99220832I0J-270832D01*
G01*
X156325000Y-99979168D01*
G75*
G02*
X156054168Y-100250000I-270832J0D01*
G01*
X155095832Y-100250000D01*
G75*
G02*
X154825000Y-99979168I0J270832D01*
G01*
X154825000Y-99220832D01*
G75*
G02*
X155095832Y-98950000I270832J0D01*
G01*
G37*
G36*
G01*
X155095832Y-100950000D02*
X156054168Y-100950000D01*
G75*
G02*
X156325000Y-101220832I0J-270832D01*
G01*
X156325000Y-101979168D01*
G75*
G02*
X156054168Y-102250000I-270832J0D01*
G01*
X155095832Y-102250000D01*
G75*
G02*
X154825000Y-101979168I0J270832D01*
G01*
X154825000Y-101220832D01*
G75*
G02*
X155095832Y-100950000I270832J0D01*
G01*
G37*
%TD*%
%TO.C,C4*%
G36*
G01*
X137162500Y-112526276D02*
X137162500Y-113533724D01*
G75*
G02*
X136891224Y-113805000I-271276J0D01*
G01*
X136158776Y-113805000D01*
G75*
G02*
X135887500Y-113533724I0J271276D01*
G01*
X135887500Y-112526276D01*
G75*
G02*
X136158776Y-112255000I271276J0D01*
G01*
X136891224Y-112255000D01*
G75*
G02*
X137162500Y-112526276I0J-271276D01*
G01*
G37*
G36*
G01*
X135087500Y-112526276D02*
X135087500Y-113533724D01*
G75*
G02*
X134816224Y-113805000I-271276J0D01*
G01*
X134083776Y-113805000D01*
G75*
G02*
X133812500Y-113533724I0J271276D01*
G01*
X133812500Y-112526276D01*
G75*
G02*
X134083776Y-112255000I271276J0D01*
G01*
X134816224Y-112255000D01*
G75*
G02*
X135087500Y-112526276I0J-271276D01*
G01*
G37*
%TD*%
%TO.C,R26*%
G36*
G01*
X149507832Y-86980000D02*
X150466168Y-86980000D01*
G75*
G02*
X150737000Y-87250832I0J-270832D01*
G01*
X150737000Y-88009168D01*
G75*
G02*
X150466168Y-88280000I-270832J0D01*
G01*
X149507832Y-88280000D01*
G75*
G02*
X149237000Y-88009168I0J270832D01*
G01*
X149237000Y-87250832D01*
G75*
G02*
X149507832Y-86980000I270832J0D01*
G01*
G37*
G36*
G01*
X149507832Y-88980000D02*
X150466168Y-88980000D01*
G75*
G02*
X150737000Y-89250832I0J-270832D01*
G01*
X150737000Y-90009168D01*
G75*
G02*
X150466168Y-90280000I-270832J0D01*
G01*
X149507832Y-90280000D01*
G75*
G02*
X149237000Y-90009168I0J270832D01*
G01*
X149237000Y-89250832D01*
G75*
G02*
X149507832Y-88980000I270832J0D01*
G01*
G37*
%TD*%
%TO.C,C11*%
G36*
G01*
X153547276Y-105237500D02*
X154554724Y-105237500D01*
G75*
G02*
X154826000Y-105508776I0J-271276D01*
G01*
X154826000Y-106241224D01*
G75*
G02*
X154554724Y-106512500I-271276J0D01*
G01*
X153547276Y-106512500D01*
G75*
G02*
X153276000Y-106241224I0J271276D01*
G01*
X153276000Y-105508776D01*
G75*
G02*
X153547276Y-105237500I271276J0D01*
G01*
G37*
G36*
G01*
X153547276Y-107312500D02*
X154554724Y-107312500D01*
G75*
G02*
X154826000Y-107583776I0J-271276D01*
G01*
X154826000Y-108316224D01*
G75*
G02*
X154554724Y-108587500I-271276J0D01*
G01*
X153547276Y-108587500D01*
G75*
G02*
X153276000Y-108316224I0J271276D01*
G01*
X153276000Y-107583776D01*
G75*
G02*
X153547276Y-107312500I271276J0D01*
G01*
G37*
%TD*%
%TO.C,R6*%
G36*
G01*
X135780000Y-121129168D02*
X135780000Y-120170832D01*
G75*
G02*
X136050832Y-119900000I270832J0D01*
G01*
X136809168Y-119900000D01*
G75*
G02*
X137080000Y-120170832I0J-270832D01*
G01*
X137080000Y-121129168D01*
G75*
G02*
X136809168Y-121400000I-270832J0D01*
G01*
X136050832Y-121400000D01*
G75*
G02*
X135780000Y-121129168I0J270832D01*
G01*
G37*
G36*
G01*
X137780000Y-121129168D02*
X137780000Y-120170832D01*
G75*
G02*
X138050832Y-119900000I270832J0D01*
G01*
X138809168Y-119900000D01*
G75*
G02*
X139080000Y-120170832I0J-270832D01*
G01*
X139080000Y-121129168D01*
G75*
G02*
X138809168Y-121400000I-270832J0D01*
G01*
X138050832Y-121400000D01*
G75*
G02*
X137780000Y-121129168I0J270832D01*
G01*
G37*
%TD*%
%TO.C,R5*%
G36*
G01*
X149450168Y-116315000D02*
X148491832Y-116315000D01*
G75*
G02*
X148221000Y-116044168I0J270832D01*
G01*
X148221000Y-115285832D01*
G75*
G02*
X148491832Y-115015000I270832J0D01*
G01*
X149450168Y-115015000D01*
G75*
G02*
X149721000Y-115285832I0J-270832D01*
G01*
X149721000Y-116044168D01*
G75*
G02*
X149450168Y-116315000I-270832J0D01*
G01*
G37*
G36*
G01*
X149450168Y-114315000D02*
X148491832Y-114315000D01*
G75*
G02*
X148221000Y-114044168I0J270832D01*
G01*
X148221000Y-113285832D01*
G75*
G02*
X148491832Y-113015000I270832J0D01*
G01*
X149450168Y-113015000D01*
G75*
G02*
X149721000Y-113285832I0J-270832D01*
G01*
X149721000Y-114044168D01*
G75*
G02*
X149450168Y-114315000I-270832J0D01*
G01*
G37*
%TD*%
%TO.C,U3*%
G36*
G01*
X150509920Y-115424140D02*
X150509920Y-113974140D01*
G75*
G02*
X150559920Y-113924140I50000J0D01*
G01*
X151009920Y-113924140D01*
G75*
G02*
X151059920Y-113974140I0J-50000D01*
G01*
X151059920Y-115424140D01*
G75*
G02*
X151009920Y-115474140I-50000J0D01*
G01*
X150559920Y-115474140D01*
G75*
G02*
X150509920Y-115424140I0J50000D01*
G01*
G37*
G36*
G01*
X151159920Y-115424140D02*
X151159920Y-113974140D01*
G75*
G02*
X151209920Y-113924140I50000J0D01*
G01*
X151659920Y-113924140D01*
G75*
G02*
X151709920Y-113974140I0J-50000D01*
G01*
X151709920Y-115424140D01*
G75*
G02*
X151659920Y-115474140I-50000J0D01*
G01*
X151209920Y-115474140D01*
G75*
G02*
X151159920Y-115424140I0J50000D01*
G01*
G37*
G36*
G01*
X151809920Y-115424140D02*
X151809920Y-113974140D01*
G75*
G02*
X151859920Y-113924140I50000J0D01*
G01*
X152309920Y-113924140D01*
G75*
G02*
X152359920Y-113974140I0J-50000D01*
G01*
X152359920Y-115424140D01*
G75*
G02*
X152309920Y-115474140I-50000J0D01*
G01*
X151859920Y-115474140D01*
G75*
G02*
X151809920Y-115424140I0J50000D01*
G01*
G37*
G36*
G01*
X152459920Y-115424140D02*
X152459920Y-113974140D01*
G75*
G02*
X152509920Y-113924140I50000J0D01*
G01*
X152959920Y-113924140D01*
G75*
G02*
X153009920Y-113974140I0J-50000D01*
G01*
X153009920Y-115424140D01*
G75*
G02*
X152959920Y-115474140I-50000J0D01*
G01*
X152509920Y-115474140D01*
G75*
G02*
X152459920Y-115424140I0J50000D01*
G01*
G37*
G36*
G01*
X152459920Y-111024140D02*
X152459920Y-109574140D01*
G75*
G02*
X152509920Y-109524140I50000J0D01*
G01*
X152959920Y-109524140D01*
G75*
G02*
X153009920Y-109574140I0J-50000D01*
G01*
X153009920Y-111024140D01*
G75*
G02*
X152959920Y-111074140I-50000J0D01*
G01*
X152509920Y-111074140D01*
G75*
G02*
X152459920Y-111024140I0J50000D01*
G01*
G37*
G36*
G01*
X151809920Y-111024140D02*
X151809920Y-109574140D01*
G75*
G02*
X151859920Y-109524140I50000J0D01*
G01*
X152309920Y-109524140D01*
G75*
G02*
X152359920Y-109574140I0J-50000D01*
G01*
X152359920Y-111024140D01*
G75*
G02*
X152309920Y-111074140I-50000J0D01*
G01*
X151859920Y-111074140D01*
G75*
G02*
X151809920Y-111024140I0J50000D01*
G01*
G37*
G36*
G01*
X151159920Y-111024140D02*
X151159920Y-109574140D01*
G75*
G02*
X151209920Y-109524140I50000J0D01*
G01*
X151659920Y-109524140D01*
G75*
G02*
X151709920Y-109574140I0J-50000D01*
G01*
X151709920Y-111024140D01*
G75*
G02*
X151659920Y-111074140I-50000J0D01*
G01*
X151209920Y-111074140D01*
G75*
G02*
X151159920Y-111024140I0J50000D01*
G01*
G37*
G36*
G01*
X150509920Y-111024140D02*
X150509920Y-109574140D01*
G75*
G02*
X150559920Y-109524140I50000J0D01*
G01*
X151009920Y-109524140D01*
G75*
G02*
X151059920Y-109574140I0J-50000D01*
G01*
X151059920Y-111024140D01*
G75*
G02*
X151009920Y-111074140I-50000J0D01*
G01*
X150559920Y-111074140D01*
G75*
G02*
X150509920Y-111024140I0J50000D01*
G01*
G37*
%TD*%
%TO.C,C1*%
G36*
G01*
X133654625Y-101070000D02*
X134823375Y-101070000D01*
G75*
G02*
X135089000Y-101335625I0J-265625D01*
G01*
X135089000Y-104404375D01*
G75*
G02*
X134823375Y-104670000I-265625J0D01*
G01*
X133654625Y-104670000D01*
G75*
G02*
X133389000Y-104404375I0J265625D01*
G01*
X133389000Y-101335625D01*
G75*
G02*
X133654625Y-101070000I265625J0D01*
G01*
G37*
G36*
G01*
X133654625Y-106670000D02*
X134823375Y-106670000D01*
G75*
G02*
X135089000Y-106935625I0J-265625D01*
G01*
X135089000Y-110004375D01*
G75*
G02*
X134823375Y-110270000I-265625J0D01*
G01*
X133654625Y-110270000D01*
G75*
G02*
X133389000Y-110004375I0J265625D01*
G01*
X133389000Y-106935625D01*
G75*
G02*
X133654625Y-106670000I265625J0D01*
G01*
G37*
%TD*%
%TO.C,R12*%
G36*
G01*
X148732000Y-103025832D02*
X148732000Y-103984168D01*
G75*
G02*
X148461168Y-104255000I-270832J0D01*
G01*
X147702832Y-104255000D01*
G75*
G02*
X147432000Y-103984168I0J270832D01*
G01*
X147432000Y-103025832D01*
G75*
G02*
X147702832Y-102755000I270832J0D01*
G01*
X148461168Y-102755000D01*
G75*
G02*
X148732000Y-103025832I0J-270832D01*
G01*
G37*
G36*
G01*
X146732000Y-103025832D02*
X146732000Y-103984168D01*
G75*
G02*
X146461168Y-104255000I-270832J0D01*
G01*
X145702832Y-104255000D01*
G75*
G02*
X145432000Y-103984168I0J270832D01*
G01*
X145432000Y-103025832D01*
G75*
G02*
X145702832Y-102755000I270832J0D01*
G01*
X146461168Y-102755000D01*
G75*
G02*
X146732000Y-103025832I0J-270832D01*
G01*
G37*
%TD*%
%TO.C,C9*%
G36*
G01*
X140584724Y-102259000D02*
X139577276Y-102259000D01*
G75*
G02*
X139306000Y-101987724I0J271276D01*
G01*
X139306000Y-101255276D01*
G75*
G02*
X139577276Y-100984000I271276J0D01*
G01*
X140584724Y-100984000D01*
G75*
G02*
X140856000Y-101255276I0J-271276D01*
G01*
X140856000Y-101987724D01*
G75*
G02*
X140584724Y-102259000I-271276J0D01*
G01*
G37*
G36*
G01*
X140584724Y-100184000D02*
X139577276Y-100184000D01*
G75*
G02*
X139306000Y-99912724I0J271276D01*
G01*
X139306000Y-99180276D01*
G75*
G02*
X139577276Y-98909000I271276J0D01*
G01*
X140584724Y-98909000D01*
G75*
G02*
X140856000Y-99180276I0J-271276D01*
G01*
X140856000Y-99912724D01*
G75*
G02*
X140584724Y-100184000I-271276J0D01*
G01*
G37*
%TD*%
%TO.C,R2*%
G36*
G01*
X158778832Y-120540000D02*
X159737168Y-120540000D01*
G75*
G02*
X160008000Y-120810832I0J-270832D01*
G01*
X160008000Y-121569168D01*
G75*
G02*
X159737168Y-121840000I-270832J0D01*
G01*
X158778832Y-121840000D01*
G75*
G02*
X158508000Y-121569168I0J270832D01*
G01*
X158508000Y-120810832D01*
G75*
G02*
X158778832Y-120540000I270832J0D01*
G01*
G37*
G36*
G01*
X158778832Y-122540000D02*
X159737168Y-122540000D01*
G75*
G02*
X160008000Y-122810832I0J-270832D01*
G01*
X160008000Y-123569168D01*
G75*
G02*
X159737168Y-123840000I-270832J0D01*
G01*
X158778832Y-123840000D01*
G75*
G02*
X158508000Y-123569168I0J270832D01*
G01*
X158508000Y-122810832D01*
G75*
G02*
X158778832Y-122540000I270832J0D01*
G01*
G37*
%TD*%
%TO.C,U1*%
G36*
G01*
X133025000Y-115110000D02*
X133025000Y-114760000D01*
G75*
G02*
X133200000Y-114585000I175000J0D01*
G01*
X134900000Y-114585000D01*
G75*
G02*
X135075000Y-114760000I0J-175000D01*
G01*
X135075000Y-115110000D01*
G75*
G02*
X134900000Y-115285000I-175000J0D01*
G01*
X133200000Y-115285000D01*
G75*
G02*
X133025000Y-115110000I0J175000D01*
G01*
G37*
G36*
G01*
X133025000Y-116380000D02*
X133025000Y-116030000D01*
G75*
G02*
X133200000Y-115855000I175000J0D01*
G01*
X134900000Y-115855000D01*
G75*
G02*
X135075000Y-116030000I0J-175000D01*
G01*
X135075000Y-116380000D01*
G75*
G02*
X134900000Y-116555000I-175000J0D01*
G01*
X133200000Y-116555000D01*
G75*
G02*
X133025000Y-116380000I0J175000D01*
G01*
G37*
G36*
G01*
X133025000Y-117650000D02*
X133025000Y-117300000D01*
G75*
G02*
X133200000Y-117125000I175000J0D01*
G01*
X134900000Y-117125000D01*
G75*
G02*
X135075000Y-117300000I0J-175000D01*
G01*
X135075000Y-117650000D01*
G75*
G02*
X134900000Y-117825000I-175000J0D01*
G01*
X133200000Y-117825000D01*
G75*
G02*
X133025000Y-117650000I0J175000D01*
G01*
G37*
G36*
G01*
X133025000Y-118920000D02*
X133025000Y-118570000D01*
G75*
G02*
X133200000Y-118395000I175000J0D01*
G01*
X134900000Y-118395000D01*
G75*
G02*
X135075000Y-118570000I0J-175000D01*
G01*
X135075000Y-118920000D01*
G75*
G02*
X134900000Y-119095000I-175000J0D01*
G01*
X133200000Y-119095000D01*
G75*
G02*
X133025000Y-118920000I0J175000D01*
G01*
G37*
G36*
G01*
X137975000Y-118920000D02*
X137975000Y-118570000D01*
G75*
G02*
X138150000Y-118395000I175000J0D01*
G01*
X139850000Y-118395000D01*
G75*
G02*
X140025000Y-118570000I0J-175000D01*
G01*
X140025000Y-118920000D01*
G75*
G02*
X139850000Y-119095000I-175000J0D01*
G01*
X138150000Y-119095000D01*
G75*
G02*
X137975000Y-118920000I0J175000D01*
G01*
G37*
G36*
G01*
X137975000Y-117650000D02*
X137975000Y-117300000D01*
G75*
G02*
X138150000Y-117125000I175000J0D01*
G01*
X139850000Y-117125000D01*
G75*
G02*
X140025000Y-117300000I0J-175000D01*
G01*
X140025000Y-117650000D01*
G75*
G02*
X139850000Y-117825000I-175000J0D01*
G01*
X138150000Y-117825000D01*
G75*
G02*
X137975000Y-117650000I0J175000D01*
G01*
G37*
G36*
G01*
X137975000Y-116380000D02*
X137975000Y-116030000D01*
G75*
G02*
X138150000Y-115855000I175000J0D01*
G01*
X139850000Y-115855000D01*
G75*
G02*
X140025000Y-116030000I0J-175000D01*
G01*
X140025000Y-116380000D01*
G75*
G02*
X139850000Y-116555000I-175000J0D01*
G01*
X138150000Y-116555000D01*
G75*
G02*
X137975000Y-116380000I0J175000D01*
G01*
G37*
G36*
G01*
X137975000Y-115110000D02*
X137975000Y-114760000D01*
G75*
G02*
X138150000Y-114585000I175000J0D01*
G01*
X139850000Y-114585000D01*
G75*
G02*
X140025000Y-114760000I0J-175000D01*
G01*
X140025000Y-115110000D01*
G75*
G02*
X139850000Y-115285000I-175000J0D01*
G01*
X138150000Y-115285000D01*
G75*
G02*
X137975000Y-115110000I0J175000D01*
G01*
G37*
%TD*%
%TO.C,R1*%
G36*
G01*
X143792832Y-120540000D02*
X144751168Y-120540000D01*
G75*
G02*
X145022000Y-120810832I0J-270832D01*
G01*
X145022000Y-121569168D01*
G75*
G02*
X144751168Y-121840000I-270832J0D01*
G01*
X143792832Y-121840000D01*
G75*
G02*
X143522000Y-121569168I0J270832D01*
G01*
X143522000Y-120810832D01*
G75*
G02*
X143792832Y-120540000I270832J0D01*
G01*
G37*
G36*
G01*
X143792832Y-122540000D02*
X144751168Y-122540000D01*
G75*
G02*
X145022000Y-122810832I0J-270832D01*
G01*
X145022000Y-123569168D01*
G75*
G02*
X144751168Y-123840000I-270832J0D01*
G01*
X143792832Y-123840000D01*
G75*
G02*
X143522000Y-123569168I0J270832D01*
G01*
X143522000Y-122810832D01*
G75*
G02*
X143792832Y-122540000I270832J0D01*
G01*
G37*
%TD*%
%TO.C,C14*%
G36*
G01*
X168143724Y-119150000D02*
X167136276Y-119150000D01*
G75*
G02*
X166865000Y-118878724I0J271276D01*
G01*
X166865000Y-118146276D01*
G75*
G02*
X167136276Y-117875000I271276J0D01*
G01*
X168143724Y-117875000D01*
G75*
G02*
X168415000Y-118146276I0J-271276D01*
G01*
X168415000Y-118878724D01*
G75*
G02*
X168143724Y-119150000I-271276J0D01*
G01*
G37*
G36*
G01*
X168143724Y-117075000D02*
X167136276Y-117075000D01*
G75*
G02*
X166865000Y-116803724I0J271276D01*
G01*
X166865000Y-116071276D01*
G75*
G02*
X167136276Y-115800000I271276J0D01*
G01*
X168143724Y-115800000D01*
G75*
G02*
X168415000Y-116071276I0J-271276D01*
G01*
X168415000Y-116803724D01*
G75*
G02*
X168143724Y-117075000I-271276J0D01*
G01*
G37*
%TD*%
D18*
%TO.C,S1*%
X143165000Y-84455000D03*
X134965000Y-84455000D03*
D19*
X141065000Y-84455000D03*
X139065000Y-84455000D03*
G36*
G01*
X136361000Y-85109000D02*
X136361000Y-83801000D01*
G75*
G02*
X136411000Y-83751000I50000J0D01*
G01*
X137719000Y-83751000D01*
G75*
G02*
X137769000Y-83801000I0J-50000D01*
G01*
X137769000Y-85109000D01*
G75*
G02*
X137719000Y-85159000I-50000J0D01*
G01*
X136411000Y-85159000D01*
G75*
G02*
X136361000Y-85109000I0J50000D01*
G01*
G37*
%TD*%
%TO.C,R20*%
G36*
G01*
X165128832Y-115841000D02*
X166087168Y-115841000D01*
G75*
G02*
X166358000Y-116111832I0J-270832D01*
G01*
X166358000Y-116870168D01*
G75*
G02*
X166087168Y-117141000I-270832J0D01*
G01*
X165128832Y-117141000D01*
G75*
G02*
X164858000Y-116870168I0J270832D01*
G01*
X164858000Y-116111832D01*
G75*
G02*
X165128832Y-115841000I270832J0D01*
G01*
G37*
G36*
G01*
X165128832Y-117841000D02*
X166087168Y-117841000D01*
G75*
G02*
X166358000Y-118111832I0J-270832D01*
G01*
X166358000Y-118870168D01*
G75*
G02*
X166087168Y-119141000I-270832J0D01*
G01*
X165128832Y-119141000D01*
G75*
G02*
X164858000Y-118870168I0J270832D01*
G01*
X164858000Y-118111832D01*
G75*
G02*
X165128832Y-117841000I270832J0D01*
G01*
G37*
%TD*%
M02*
