M48
; DRILL file {KiCad 5.1.8} date Sun Feb 28 21:39:10 2021
; FORMAT={-:-/ absolute / inch / decimal}
; #@! TF.CreationDate,2021-02-28T21:39:10-05:00
; #@! TF.GenerationSoftware,Kicad,Pcbnew,5.1.8
FMAT,2
INCH
T1C0.0079
T2C0.0098
T3C0.0315
T4C0.0394
T5C0.0472
T6C0.0591
%
G90
G05
T1
X4.855Y-3.805
X4.865Y-4.09
X4.87Y-4.145
X4.9Y-3.87
X4.925Y-4.145
X4.93Y-4.09
X4.935Y-4.305
X4.98Y-3.54
X4.98Y-3.625
X5.005Y-3.58
X5.015Y-3.77
X5.02Y-3.49
X5.03Y-3.535
X5.045Y-3.62
X5.05Y-3.775
X5.07Y-3.585
X5.07Y-4.475
X5.075Y-4.165
X5.08Y-3.75
X5.085Y-3.42
X5.09Y-3.78
X5.1Y-4.08
X5.105Y-3.62
X5.11Y-4.525
X5.12Y-3.755
X5.125Y-4.465
X5.135Y-3.78
X5.14Y-3.575
X5.145Y-4.1
X5.155Y-4.215
X5.155Y-4.265
X5.16Y-3.955
X5.16Y-4.02
X5.16Y-4.17
X5.165Y-3.825
X5.185Y-4.24
X5.2Y-4.36
X5.225Y-3.45
X5.225Y-3.58
X5.235Y-3.495
X5.275Y-3.395
X5.28Y-4.72
X5.29Y-4.22
X5.3Y-4.0
X5.3Y-4.05
X5.3Y-4.1
X5.3Y-4.15
X5.31Y-4.725
X5.325Y-3.24
X5.325Y-3.395
X5.35Y-4.0
X5.35Y-4.05
X5.35Y-4.1
X5.35Y-4.15
X5.37Y-3.84
X5.38Y-3.78
X5.385Y-4.82
X5.395Y-3.23
X5.4Y-4.1
X5.4Y-4.15
X5.41Y-3.805
X5.41Y-3.845
X5.415Y-4.5
X5.43Y-3.21
X5.45Y-3.84
X5.45Y-4.85
X5.5Y-4.9
X5.505Y-3.41
X5.515Y-4.8
X5.52Y-4.33
X5.52Y-4.49
X5.525Y-3.26
X5.5279Y-3.9879
X5.53Y-3.21
X5.53Y-3.49
X5.55Y-4.535
X5.55Y-4.95
X5.555Y-3.235
X5.56Y-3.4
X5.575Y-4.72
X5.585Y-3.49
X5.59Y-3.26
X5.6Y-4.85
X5.6Y-4.9
X5.6Y-5.0
X5.62Y-3.405
X5.63Y-3.245
X5.63Y-3.435
X5.63Y-3.76
X5.63Y-4.535
X5.635Y-3.725
X5.65Y-5.05
X5.66Y-3.455
X5.665Y-3.77
X5.67Y-3.415
X5.68Y-4.72
X5.68Y-4.97
X5.7Y-5.1
X5.705Y-3.265
X5.72Y-3.51
X5.7378Y-4.6172
X5.785Y-4.57
X5.8Y-3.5
X5.8Y-5.25
X5.85Y-5.05
X5.85Y-5.15
X5.85Y-5.25
X5.85Y-5.3
X5.855Y-4.41
X5.875Y-4.84
X5.88Y-3.395
X5.89Y-3.36
X5.9Y-3.98
X5.9Y-5.2
X5.9Y-5.3
X5.9Y-5.35
X5.95Y-5.15
X5.95Y-5.25
X5.95Y-5.35
X5.95Y-5.4
X5.962Y-4.5695
X5.975Y-3.505
X5.975Y-4.8
X5.9878Y-4.6172
X6.0Y-5.2
X6.0Y-5.3
X6.0Y-5.4
X6.05Y-4.85
X6.05Y-4.95
X6.05Y-5.15
X6.05Y-5.25
X6.05Y-5.35
X6.0566Y-3.4093
X6.094Y-3.488
X6.098Y-3.608
X6.1Y-4.8
X6.1Y-4.9
X6.1Y-5.0
X6.1Y-5.1
X6.1Y-5.2
X6.1Y-5.3
X6.105Y-4.11
X6.15Y-4.33
X6.15Y-5.25
X6.158Y-3.484
X6.185Y-4.06
X6.19Y-3.99
X6.2Y-4.11
X6.2Y-5.0
X6.205Y-3.92
X6.206Y-3.546
X6.21Y-4.275
X6.21Y-4.77
X6.22Y-4.425
X6.2295Y-4.5695
X6.245Y-4.185
X6.25Y-5.05
X6.25Y-5.15
X6.26Y-4.085
X6.27Y-3.965
X6.272Y-3.78
X6.285Y-3.875
X6.298Y-3.806
X6.3Y-5.1
X6.3Y-3.764
X6.304Y-3.592
X6.305Y-4.03
X6.312Y-3.422
X6.312Y-3.508
X6.315Y-4.405
X6.325Y-4.365
X6.325Y-4.65
X6.335Y-3.96
X6.335Y-4.77
X6.34Y-4.1
X6.346Y-3.826
X6.35Y-5.05
X6.352Y-3.882
X6.368Y-3.9157
X6.39Y-3.896
X6.4Y-5.0
X6.405Y-4.2106
X6.41Y-3.938
X6.445Y-3.73
X6.45Y-4.95
X6.46Y-3.64
X6.47Y-3.715
X6.505Y-3.705
X6.508Y-3.876
X6.509Y-3.817
X6.5091Y-3.9351
X6.52Y-4.725
X6.53Y-4.3613
X6.55Y-4.8
X6.55Y-4.85
X6.566Y-3.906
X6.568Y-3.788
X6.568Y-3.846
X6.572Y-3.226
X6.58Y-3.42
X6.59Y-3.745
X6.6Y-4.8
X6.614Y-3.788
X6.614Y-3.906
X6.63Y-3.72
X6.63Y-4.3075
X6.65Y-4.75
X6.66Y-3.765
X6.6675Y-4.3075
X6.67Y-3.7
X6.68Y-3.74
X6.705Y-3.255
X6.71Y-4.6825
X6.715Y-3.73
X6.715Y-3.765
X6.725Y-3.7
X6.735Y-4.045
X6.745Y-4.25
X6.75Y-4.3956
X6.76Y-3.73
X6.765Y-3.58
X6.77Y-3.765
X6.7725Y-4.6175
X6.785Y-3.38
X6.795Y-3.695
X6.81Y-3.75
X6.81Y-4.025
X6.8114Y-3.5814
X6.815Y-3.325
X6.825Y-4.435
X6.825Y-4.48
X6.825Y-4.535
X6.835Y-3.365
X6.835Y-3.72
X6.845Y-3.765
X6.845Y-3.815
X6.845Y-3.88
X6.845Y-3.935
X6.845Y-3.985
X6.845Y-4.02
X6.845Y-4.055
X6.85Y-3.415
X6.85Y-3.47
X6.85Y-3.52
X6.85Y-3.57
X6.85Y-3.63
X6.85Y-3.675
X6.85Y-4.145
X6.85Y-4.19
X6.85Y-4.225
X6.85Y-4.26
T2
X4.86Y-3.93
X4.86Y-3.98
X4.86Y-4.02
X5.0Y-3.8976
X5.05Y-4.38
X5.1Y-4.03
X5.1Y-4.305
X5.1475Y-4.5775
X5.185Y-3.915
X5.1925Y-4.6225
X5.225Y-3.915
X5.2425Y-4.43
X5.26Y-4.4
X5.29Y-3.765
X5.32Y-3.91
X5.37Y-4.365
X5.385Y-4.215
X5.425Y-4.26
X5.44Y-4.45
X5.46Y-4.215
X5.46Y-4.29
X5.485Y-4.45
X5.5408Y-4.4006
X5.5775Y-4.4
X5.66Y-3.64
X5.795Y-4.76
X6.035Y-4.62
X6.065Y-3.355
X6.07Y-3.62
X6.075Y-4.51
X6.105Y-3.325
X6.12Y-4.48
X6.13Y-3.66
X6.13Y-4.62
X6.19Y-4.62
X6.22Y-3.25
X6.224Y-3.378
X6.25Y-3.66
X6.255Y-3.235
X6.3Y-4.97
X6.345Y-4.865
X6.38Y-3.22
X6.39Y-4.53
X6.445Y-4.77
X6.445Y-4.865
X6.45Y-4.27
X6.465Y-4.335
X6.465Y-4.4
X6.5768Y-4.76
X6.6059Y-4.7309
X6.61Y-4.3613
X6.665Y-3.235
X6.745Y-3.39
T3
X6.192Y-3.324
X6.2707Y-3.324
X6.3495Y-3.324
X6.4282Y-3.324
X6.507Y-3.324
X6.5857Y-3.324
X6.6644Y-3.324
X6.7432Y-3.324
X5.3963Y-3.325
X5.475Y-3.325
X5.5537Y-3.325
X6.4633Y-3.472
X6.542Y-3.472
X6.81Y-4.3013
X6.81Y-4.38
T4
X5.8766Y-4.6781
X5.975Y-4.6781
X6.0734Y-4.6781
T5
X5.7781Y-4.6781
X5.7781Y-5.0719
X5.7781Y-5.1703
X5.975Y-4.875
X6.1719Y-4.6781
X6.1719Y-5.0719
X6.1719Y-5.1703
T6
X5.3136Y-3.325
X5.6364Y-3.325
T3
G00X5.7781Y-4.8888
M15
G01X5.7781Y-4.8612
M16
G05
G00X5.9612Y-5.0719
M15
G01X5.9888Y-5.0719
M16
G05
G00X6.1719Y-4.8888
M15
G01X6.1719Y-4.8612
M16
G05
T0
M30
