<?xml version="1.0" encoding="UTF-8" standalone="no"?>
<svg
   xmlns:dc="http://purl.org/dc/elements/1.1/"
   xmlns:cc="http://creativecommons.org/ns#"
   xmlns:rdf="http://www.w3.org/1999/02/22-rdf-syntax-ns#"
   xmlns:svg="http://www.w3.org/2000/svg"
   xmlns="http://www.w3.org/2000/svg"
   xmlns:sodipodi="http://sodipodi.sourceforge.net/DTD/sodipodi-0.dtd"
   xmlns:inkscape="http://www.inkscape.org/namespaces/inkscape"
   width="60.0mm"
   height="60.0mm"
   viewBox="0 0 60.0 60.0"
   version="1.1"
   id="svg8"
   sodipodi:docname="heart.svg"
   inkscape:version="1.0.1 (3bc2e813f5, 2020-09-07)">
  <defs
     id="defs2" />
  <sodipodi:namedview
     id="base"
     pagecolor="#ffffff"
     bordercolor="#666666"
     borderopacity="1.0"
     inkscape:pageopacity="0.0"
     inkscape:pageshadow="2"
     inkscape:zoom="2.8"
     inkscape:cx="32.272048"
     inkscape:cy="87.556892"
     inkscape:document-units="mm"
     inkscape:current-layer="g19"
     inkscape:document-rotation="0"
     showgrid="true"
     inkscape:window-width="1920"
     inkscape:window-height="1051"
     inkscape:window-x="1920"
     inkscape:window-y="0"
     inkscape:window-maximized="1"
     borderlayer="true">
    <inkscape:grid
       spacingx="2.54"
       spacingy="2.54"
       empspacing="1"
       type="xygrid"
       units="mm"
       id="grid11" />
    <inkscape:grid
       spacingx="2.54"
       spacingy="2.54"
       empspacing="1"
       type="xygrid"
       units="mm"
       id="grid28" />
    <inkscape:grid
       spacingx="2.54"
       spacingy="2.54"
       empspacing="1"
       type="xygrid"
       units="mm"
       id="grid41" />
    <inkscape:grid
       spacingx="2.54"
       spacingy="2.54"
       empspacing="1"
       type="xygrid"
       units="mm"
       id="grid56" />
    <inkscape:grid
       spacingx="2.54"
       spacingy="2.54"
       empspacing="1"
       type="xygrid"
       units="mm"
       id="grid19" />
  </sodipodi:namedview>
  <metadata
     id="metadata5">
    <rdf:RDF>
      <cc:Work
         rdf:about="">
        <dc:format>image/svg+xml</dc:format>
        <dc:type
           rdf:resource="http://purl.org/dc/dcmitype/StillImage" />
        <dc:title />
      </cc:Work>
    </rdf:RDF>
  </metadata>
  <g
     inkscape:label="[fixed] BG"
     inkscape:groupmode="layer"
     sodipodi:insensitive="true"
     id="g17">
    <rect
       x="0"
       y="0"
       width="10.0"
       height="10.0"
       style="fill:#FFFFFF;fill-opacity:1;stroke:none"
       id="rect15" />
  </g>
  <g
     inkscape:label="Edge.Cuts"
     inkscape:groupmode="layer"
     id="g19">
    <path
       id="rect68"
       style="fill:#000000;stroke-width:0.194517"
       d="M 0.598821 14.2475 L 0.456297 14.8706 L 0.333333 15.4959 L 0.229812 16.1227 L 0.145612 16.7507 L 0.0806151 17.3794 L 0.034701 18.0082 L 0.00775026 18.6367 L -0.000356761 19.2644 L 0.0102604 19.8908 L 0.0394821 20.5154 L 0.0871887 21.1377 L 0.153261 21.7572 L 0.237579 22.3735 L 0.340023 22.986 L 0.460473 23.5943 L 0.598811 24.1979 L 0.754916 24.7963 L 0.928668 25.389 L 1.11995 25.9755 L 1.32864 26.5554 L 1.55462 27.128 L 1.79777 27.6931 L 2.05796 28.2499 L 2.33509 28.7982 L 2.62903 29.3374 L 2.93966 29.8669 L 3.26686 30.3864 L 3.61052 30.8952 L 3.9705 31.3931 L 4.3467 31.8793 L 4.73899 32.3535 L 5.14726 32.8152 L 30 60 L 54.8529 32.815 L 55.2612 32.3533 L 55.6534 31.8791 L 56.0296 31.3929 L 56.3896 30.8951 L 56.7332 30.3862 L 57.0604 29.8667 L 57.3711 29.3372 L 57.665 28.798 L 57.9421 28.2498 L 58.2023 27.6929 L 58.4454 27.1279 L 58.6714 26.5552 L 58.8801 25.9754 L 59.0714 25.3889 L 59.2451 24.7962 L 59.4012 24.1978 L 59.5395 23.5942 L 59.66 22.9859 L 59.7624 22.3734 L 59.8467 21.7571 L 59.9128 21.1376 L 59.9605 20.5153 L 59.9897 19.8907 L 60.0004 19.2643 L 59.9923 18.6367 L 59.9653 18.0082 L 59.9194 17.3794 L 59.8544 16.7507 L 59.7702 16.1227 L 59.6667 15.4959 L 59.5437 14.8707 L 59.4012 14.2476 L 59.2398 13.63 L 59.0605 13.0213 L 58.8636 12.4218 L 58.6495 11.8319 L 58.4184 11.2519 L 58.1707 10.6822 L 57.9068 10.1232 L 57.6269 9.57516 L 57.3314 9.03852 L 57.0206 8.51359 L 56.6948 8.00076 L 56.3544 7.50036 L 55.9996 7.01276 L 55.6309 6.53831 L 55.2486 6.07738 L 54.8529 5.63031 L 54.4441 5.19747 L 54.0227 4.77922 L 53.589 4.37591 L 53.1432 3.9879 L 52.6858 3.61554 L 52.2169 3.2592 L 51.737 2.91923 L 51.2464 2.59599 L 50.7454 2.28983 L 50.2343 2.00112 L 49.7135 1.73021 L 49.1833 1.47745 L 48.644 1.24322 L 48.0959 1.02785 L 47.5394 0.831716 L 46.9748 0.655168 L 46.4052 0.499277 L 45.8336 0.364781 L 45.2605 0.25155 L 44.6864 0.159454 L 44.1117 0.0883614 L 43.5368 0.0381415 L 42.9622 0.00866359 L 42.3884 -0.000203145 L 41.8158 0.0114105 L 41.2448 0.0433736 L 40.6759 0.0955555 L 40.1095 0.167825 L 39.5461 0.260052 L 38.9861 0.372106 L 38.43 0.503854 L 37.8782 0.655168 L 37.3311 0.825915 L 36.7893 1.01597 L 36.2531 1.22519 L 35.723 1.45345 L 35.1995 1.70063 L 34.6829 1.96658 L 34.1738 2.25119 L 33.6726 2.55431 L 33.1797 2.87582 L 32.6956 3.21559 L 32.2207 3.57348 L 31.7554 3.94936 L 31.3003 4.34312 L 30.8558 4.7546 L 30.4222 5.18369 L 30.0002 5.63025 L 29.5781 5.18367 L 29.1445 4.75457 L 28.7 4.34307 L 28.2449 3.94931 L 27.7797 3.57341 L 27.3048 3.2155 L 26.8206 2.87573 L 26.3278 2.5542 L 25.8265 2.25107 L 25.3174 1.96646 L 24.8009 1.70049 L 24.2773 1.45331 L 23.7472 1.22504 L 23.211 1.01581 L 22.6692 0.825753 L 22.1221 0.654999 L 21.5703 0.503681 L 21.0142 0.371928 L 20.4542 0.259871 L 19.8908 0.167641 L 19.3244 0.0953696 L 18.7554 0.0431865 L 18.1844 0.0112228 L 17.6118 -0.000390484 L 17.038 0.00847734 L 16.4634 0.0379571 L 15.8885 0.0881797 L 15.3138 0.159276 L 14.7396 0.251376 L 14.1666 0.364612 L 13.5949 0.499114 L 13.0253 0.655012 L 12.4607 0.831564 L 11.9042 1.0277 L 11.3561 1.24307 L 10.8168 1.47732 L 10.2866 1.73007 L 9.76577 2.00099 L 9.2547 2.28971 L 8.75369 2.59587 L 8.26308 2.91911 L 7.78318 3.25909 L 7.31434 3.61543 L 6.85686 3.98779 L 6.41109 4.37581 L 5.97734 4.77912 L 5.55594 5.19738 L 5.14723 5.63022 L 4.75152 6.07729 L 4.36914 6.53823 L 4.00043 7.01268 L 3.6457 7.50028 L 3.30528 8.00068 L 2.9795 8.51352 L 2.66869 9.03845 L 2.37318 9.5751 L 2.09328 10.1231 L 1.82933 10.6821 L 1.58166 11.2518 L 1.35058 11.8318 L 1.13643 12.4217 L 0.939541 13.0212 L 0.760227 13.6299 L 0.598821 14.2475 L 0.598821 14.2475" />
  </g>
</svg>
